<svg width="16" height="16" viewBox="0 0 16 16" fill="none" xmlns="http://www.w3.org/2000/svg">
<path d="M1.98756 13.8837L1.9679 15.2945C1.96544 15.4705 2.0317 15.6403 2.15208 15.7664C2.27247 15.8924 2.43713 15.9645 2.60984 15.9667C2.78255 15.9689 2.94915 15.9011 3.07301 15.7781C3.19687 15.6552 3.26783 15.4872 3.27029 15.3111L3.28995 13.9003C3.85229 13.7612 4.35353 13.4354 4.71467 12.9741C5.0758 12.5128 5.27628 11.9424 5.2845 11.3528C5.29271 10.7631 5.1082 10.1878 4.76005 9.71747C4.4119 9.24715 3.91992 8.9086 3.36166 8.75519L3.47385 0.705526C3.4763 0.529452 3.41005 0.359712 3.28966 0.233649C3.16927 0.107587 3.00461 0.0355269 2.83191 0.0333219C2.6592 0.0311169 2.49259 0.0989474 2.36873 0.221892C2.24487 0.344836 2.17391 0.512824 2.17146 0.688898L2.05927 8.73856C1.49693 8.87766 0.995685 9.20353 0.634551 9.6648C0.273417 10.1261 0.0729378 10.6965 0.0647198 11.2861C0.0565017 11.8758 0.241012 12.4511 0.589162 12.9214C0.937312 13.3917 1.4293 13.7303 1.98756 13.8837ZM2.69311 9.99167C2.9507 9.99496 3.20142 10.076 3.41356 10.2247C3.62571 10.3733 3.78975 10.5828 3.88494 10.8267C3.98014 11.0706 4.00221 11.3379 3.94836 11.5948C3.89452 11.8517 3.76718 12.0867 3.58245 12.2701C3.39772 12.4535 3.16389 12.577 2.91054 12.625C2.65719 12.673 2.39569 12.6433 2.15911 12.5398C1.92253 12.4363 1.72149 12.2635 1.58143 12.0433C1.44136 11.8231 1.36856 11.5654 1.37222 11.3028C1.37713 10.9507 1.51905 10.6147 1.76676 10.3688C2.01448 10.1229 2.3477 9.98726 2.69311 9.99167Z" fill="#19C595"/>
<path d="M7.26685 13.8837L7.24719 15.2945C7.24474 15.4705 7.31099 15.6403 7.43138 15.7664C7.55177 15.8924 7.71643 15.9645 7.88914 15.9667C8.06184 15.9689 8.22845 15.9011 8.35231 15.7781C8.47617 15.6552 8.54713 15.4872 8.54958 15.3111L8.56925 13.9003C9.13158 13.7612 9.63283 13.4354 9.99396 12.9741C10.3551 12.5128 10.5556 11.9424 10.5638 11.3528C10.572 10.7631 10.3875 10.1878 10.0394 9.71747C9.6912 9.24715 9.19921 8.9086 8.64095 8.75519L8.75315 0.705526C8.7556 0.529452 8.68934 0.359712 8.56896 0.233649C8.44857 0.107587 8.28391 0.0355269 8.1112 0.0333219C7.9385 0.0311169 7.77189 0.0989474 7.64803 0.221892C7.52417 0.344836 7.45321 0.512824 7.45075 0.688898L7.33856 8.73856C6.77623 8.87766 6.27498 9.20353 5.91385 9.6648C5.55271 10.1261 5.35223 10.6965 5.34402 11.2861C5.3358 11.8758 5.52031 12.4511 5.86846 12.9214C6.21661 13.3917 6.7086 13.7303 7.26685 13.8837ZM7.97241 9.99167C8.23 9.99496 8.48072 10.076 8.69286 10.2247C8.905 10.3733 9.06905 10.5828 9.16424 10.8267C9.25943 11.0706 9.2815 11.3379 9.22766 11.5948C9.17382 11.8517 9.04648 12.0867 8.86175 12.2701C8.67702 12.4535 8.44319 12.577 8.18984 12.625C7.93649 12.673 7.67498 12.6433 7.4384 12.5398C7.20182 12.4363 7.00079 12.2635 6.86073 12.0433C6.72066 11.8231 6.64785 11.5654 6.65151 11.3028C6.65642 10.9507 6.79835 10.6147 7.04606 10.3688C7.29378 10.1229 7.627 9.98726 7.97241 9.99167Z" fill="#19C595"/>
<path d="M12.5457 13.8837L12.526 15.2945C12.5235 15.4705 12.5898 15.6403 12.7102 15.7664C12.8306 15.8924 12.9952 15.9645 13.1679 15.9667C13.3407 15.9689 13.5073 15.9011 13.6311 15.7781C13.755 15.6552 13.8259 15.4872 13.8284 15.3111L13.8481 13.9003C14.4104 13.7612 14.9116 13.4354 15.2728 12.9741C15.6339 12.5128 15.8344 11.9424 15.8426 11.3528C15.8508 10.7631 15.6663 10.1878 15.3182 9.71747C14.97 9.24715 14.478 8.9086 13.9198 8.75519L14.032 0.705526C14.0344 0.529452 13.9682 0.359712 13.8478 0.233649C13.7274 0.107587 13.5627 0.0355269 13.39 0.0333219C13.2173 0.0311169 13.0507 0.0989474 12.9268 0.221892C12.803 0.344836 12.732 0.512824 12.7296 0.688898L12.6174 8.73856C12.055 8.87766 11.5538 9.20353 11.1927 9.6648C10.8315 10.1261 10.631 10.6965 10.6228 11.2861C10.6146 11.8758 10.7991 12.4511 11.1473 12.9214C11.4954 13.3917 11.9874 13.7303 12.5457 13.8837ZM13.2512 9.99167C13.5088 9.99496 13.7595 10.076 13.9717 10.2247C14.1838 10.3733 14.3479 10.5828 14.443 10.8267C14.5382 11.0706 14.5603 11.3379 14.5065 11.5948C14.4526 11.8517 14.3253 12.0867 14.1406 12.2701C13.9558 12.4535 13.722 12.577 13.4686 12.625C13.2153 12.673 12.9538 12.6433 12.7172 12.5398C12.4806 12.4363 12.2796 12.2635 12.1395 12.0433C11.9995 11.8231 11.9267 11.5654 11.9303 11.3028C11.9352 10.9507 12.0772 10.6147 12.3249 10.3688C12.5726 10.1229 12.9058 9.98726 13.2512 9.99167Z" fill="#19C595"/>
</svg>
