<svg width="28" height="28" viewBox="0 0 28 28" fill="none" xmlns="http://www.w3.org/2000/svg">
<g filter="url(#filter0_i_19_517)">
<rect width="28" height="28" rx="8" fill="white" fill-opacity="0.01"/>
<path d="M20 14V16.8C20 17.9201 20 18.4802 19.782 18.908C19.5902 19.2843 19.2843 19.5902 18.908 19.782C18.4802 20 17.9201 20 16.8 20H11.2C10.0799 20 9.51984 20 9.09202 19.782C8.7157 19.5902 8.40974 19.2843 8.21798 18.908C8 18.4802 8 17.9201 8 16.8V14M16.6666 10.6667L14 8M14 8L11.3333 10.6667M14 8V16" stroke="#BB88FF" stroke-width="1.6" stroke-linecap="round" stroke-linejoin="round"/>
</g>
<defs>
<filter id="filter0_i_19_517" x="0" y="0" width="28" height="28" filterUnits="userSpaceOnUse" color-interpolation-filters="sRGB">
<feFlood flood-opacity="0" result="BackgroundImageFix"/>
<feBlend mode="normal" in="SourceGraphic" in2="BackgroundImageFix" result="shape"/>
<feColorMatrix in="SourceAlpha" type="matrix" values="0 0 0 0 0 0 0 0 0 0 0 0 0 0 0 0 0 0 127 0" result="hardAlpha"/>
<feMorphology radius="1" operator="erode" in="SourceAlpha" result="effect1_innerShadow_19_517"/>
<feOffset/>
<feComposite in2="hardAlpha" operator="arithmetic" k2="-1" k3="1"/>
<feColorMatrix type="matrix" values="0 0 0 0 0.85098 0 0 0 0 0.85098 0 0 0 0 0.85098 0 0 0 1 0"/>
<feBlend mode="normal" in2="shape" result="effect1_innerShadow_19_517"/>
</filter>
</defs>
</svg>
