<svg width="17" height="17" viewBox="0 0 17 17" fill="none" xmlns="http://www.w3.org/2000/svg">
<path d="M13.8125 3.71875H11.9717L11.0666 2.36141C11.0181 2.28873 10.9524 2.22913 10.8754 2.18789C10.7984 2.14665 10.7124 2.12505 10.625 2.125H6.375C6.28763 2.12505 6.20162 2.14665 6.12459 2.18789C6.04756 2.22913 5.98189 2.28873 5.9334 2.36141L5.02762 3.71875H3.1875C2.76481 3.71875 2.35943 3.88666 2.06055 4.18555C1.76166 4.48443 1.59375 4.88981 1.59375 5.3125V12.75C1.59375 13.1727 1.76166 13.5781 2.06055 13.877C2.35943 14.1758 2.76481 14.3438 3.1875 14.3438H13.8125C14.2352 14.3438 14.6406 14.1758 14.9395 13.877C15.2383 13.5781 15.4062 13.1727 15.4062 12.75V5.3125C15.4062 4.88981 15.2383 4.48443 14.9395 4.18555C14.6406 3.88666 14.2352 3.71875 13.8125 3.71875ZM14.3438 12.75C14.3438 12.8909 14.2878 13.026 14.1882 13.1257C14.0885 13.2253 13.9534 13.2812 13.8125 13.2812H3.1875C3.0466 13.2812 2.91148 13.2253 2.81185 13.1257C2.71222 13.026 2.65625 12.8909 2.65625 12.75V5.3125C2.65625 5.1716 2.71222 5.03648 2.81185 4.93685C2.91148 4.83722 3.0466 4.78125 3.1875 4.78125H5.3125C5.39998 4.78131 5.48613 4.75976 5.56328 4.71852C5.64044 4.67727 5.70621 4.61762 5.75477 4.54484L6.65922 3.1875H10.3401L11.2452 4.54484C11.2938 4.61762 11.3596 4.67727 11.4367 4.71852C11.5139 4.75976 11.6 4.78131 11.6875 4.78125H13.8125C13.9534 4.78125 14.0885 4.83722 14.1882 4.93685C14.2878 5.03648 14.3438 5.1716 14.3438 5.3125V12.75ZM8.5 5.84375C7.92211 5.84375 7.35719 6.01512 6.87669 6.33617C6.39619 6.65723 6.02169 7.11357 5.80054 7.64747C5.57939 8.18137 5.52153 8.76887 5.63427 9.33565C5.74701 9.90244 6.02529 10.4231 6.43392 10.8317C6.84255 11.2403 7.36318 11.5186 7.92997 11.6314C8.49676 11.7441 9.08425 11.6862 9.61815 11.4651C10.1521 11.2439 10.6084 10.8694 10.9295 10.3889C11.2505 9.90843 11.4219 9.34352 11.4219 8.76562C11.421 7.99097 11.1129 7.24829 10.5651 6.70052C10.0173 6.15275 9.27466 5.84463 8.5 5.84375ZM8.5 10.625C8.13225 10.625 7.77276 10.5159 7.46699 10.3116C7.16121 10.1073 6.92289 9.81693 6.78216 9.47718C6.64143 9.13742 6.60461 8.76356 6.67635 8.40288C6.7481 8.0422 6.92519 7.71089 7.18522 7.45085C7.44526 7.19081 7.77657 7.01372 8.13725 6.94198C8.49794 6.87023 8.8718 6.90705 9.21155 7.04779C9.55131 7.18852 9.8417 7.42684 10.046 7.73261C10.2503 8.03838 10.3594 8.39788 10.3594 8.76562C10.3594 9.25876 10.1635 9.7317 9.81478 10.0804C9.46608 10.4291 8.99314 10.625 8.5 10.625Z" fill="#BB88FF"/>
</svg>
