<svg width="18" height="17" viewBox="0 0 18 17" fill="none" xmlns="http://www.w3.org/2000/svg">
<path d="M6.1875 3.1875V1.0625C6.1875 0.921604 6.24677 0.786478 6.35225 0.68685C6.45774 0.587221 6.60082 0.53125 6.75 0.53125C6.89919 0.53125 7.04226 0.587221 7.14775 0.68685C7.25324 0.786478 7.3125 0.921604 7.3125 1.0625V3.1875C7.3125 3.3284 7.25324 3.46352 7.14775 3.56315C7.04226 3.66278 6.89919 3.71875 6.75 3.71875C6.60082 3.71875 6.45774 3.66278 6.35225 3.56315C6.24677 3.46352 6.1875 3.3284 6.1875 3.1875ZM9 3.71875C9.14919 3.71875 9.29226 3.66278 9.39775 3.56315C9.50324 3.46352 9.5625 3.3284 9.5625 3.1875V1.0625C9.5625 0.921604 9.50324 0.786478 9.39775 0.68685C9.29226 0.587221 9.14919 0.53125 9 0.53125C8.85082 0.53125 8.70774 0.587221 8.60225 0.68685C8.49677 0.786478 8.4375 0.921604 8.4375 1.0625V3.1875C8.4375 3.3284 8.49677 3.46352 8.60225 3.56315C8.70774 3.66278 8.85082 3.71875 9 3.71875ZM11.25 3.71875C11.3992 3.71875 11.5423 3.66278 11.6477 3.56315C11.7532 3.46352 11.8125 3.3284 11.8125 3.1875V1.0625C11.8125 0.921604 11.7532 0.786478 11.6477 0.68685C11.5423 0.587221 11.3992 0.53125 11.25 0.53125C11.1008 0.53125 10.9577 0.587221 10.8523 0.68685C10.7468 0.786478 10.6875 0.921604 10.6875 1.0625V3.1875C10.6875 3.3284 10.7468 3.46352 10.8523 3.56315C10.9577 3.66278 11.1008 3.71875 11.25 3.71875ZM17.775 6.8L15.75 8.23438V12.2188C15.75 12.7823 15.5129 13.3228 15.091 13.7214C14.669 14.1199 14.0967 14.3438 13.5 14.3438H4.5C3.90326 14.3438 3.33097 14.1199 2.90901 13.7214C2.48706 13.3228 2.25 12.7823 2.25 12.2188V8.23438L0.225002 6.8C0.105655 6.71546 0.0267535 6.58961 0.00565571 6.45013C-0.0154421 6.31065 0.0229917 6.16897 0.112502 6.05625C0.202013 5.94353 0.335268 5.86902 0.482953 5.84909C0.630638 5.82916 0.780655 5.86546 0.900002 5.95L2.25 6.90625V5.84375C2.25 5.56196 2.36853 5.29171 2.57951 5.09245C2.79049 4.89319 3.07663 4.78125 3.375 4.78125H14.625C14.9234 4.78125 15.2095 4.89319 15.4205 5.09245C15.6315 5.29171 15.75 5.56196 15.75 5.84375V6.90625L17.1 5.95C17.2193 5.86546 17.3694 5.82916 17.5171 5.84909C17.6647 5.86902 17.798 5.94353 17.8875 6.05625C17.977 6.16897 18.0154 6.31065 17.9943 6.45013C17.9733 6.58961 17.8944 6.71546 17.775 6.8ZM14.625 5.84375H3.375V12.2188C3.375 12.5005 3.49353 12.7708 3.70451 12.9701C3.91549 13.1693 4.20163 13.2812 4.5 13.2812H13.5C13.7984 13.2812 14.0845 13.1693 14.2955 12.9701C14.5065 12.7708 14.625 12.5005 14.625 12.2188V5.84375Z" fill="#19C595"/>
</svg>
