<svg width="18" height="17" viewBox="0 0 18 17" fill="none" xmlns="http://www.w3.org/2000/svg">
<path d="M9 1.59375C5.21508 1.59375 2.25 3.22734 2.25 5.3125V11.6875C2.25 13.7727 5.21508 15.4062 9 15.4062C12.7849 15.4062 15.75 13.7727 15.75 11.6875V5.3125C15.75 3.22734 12.7849 1.59375 9 1.59375ZM14.625 8.5C14.625 9.13883 14.0709 9.79027 13.1055 10.2877C12.0185 10.8475 10.5602 11.1562 9 11.1562C7.43977 11.1562 5.98148 10.8475 4.89445 10.2877C3.92906 9.79027 3.375 9.13883 3.375 8.5V7.395C4.57453 8.39109 6.62555 9.03125 9 9.03125C11.3745 9.03125 13.4255 8.38844 14.625 7.395V8.5ZM4.89445 3.52484C5.98148 2.96504 7.43977 2.65625 9 2.65625C10.5602 2.65625 12.0185 2.96504 13.1055 3.52484C14.0709 4.02223 14.625 4.67367 14.625 5.3125C14.625 5.95133 14.0709 6.60277 13.1055 7.10016C12.0185 7.65996 10.5602 7.96875 9 7.96875C7.43977 7.96875 5.98148 7.65996 4.89445 7.10016C3.92906 6.60277 3.375 5.95133 3.375 5.3125C3.375 4.67367 3.92906 4.02223 4.89445 3.52484ZM13.1055 13.4752C12.0185 14.035 10.5602 14.3437 9 14.3437C7.43977 14.3437 5.98148 14.035 4.89445 13.4752C3.92906 12.9778 3.375 12.3263 3.375 11.6875V10.5825C4.57453 11.5786 6.62555 12.2187 9 12.2187C11.3745 12.2187 13.4255 11.5759 14.625 10.5825V11.6875C14.625 12.3263 14.0709 12.9778 13.1055 13.4752Z" fill="#FFBF00"/>
</svg>
