<svg width="19" height="19" viewBox="0 0 19 19" fill="none" xmlns="http://www.w3.org/2000/svg">
<path d="M16.202 3.58767L11.6984 2.23689L13.9249 1.12361C14.0656 1.05274 14.1723 0.928914 14.2216 0.779357C14.271 0.629801 14.2589 0.466768 14.188 0.326126C14.1172 0.185484 13.9933 0.0787514 13.8438 0.0294096C13.6942 -0.0199323 13.5312 -0.00784207 13.3905 0.0630205L9.94531 1.7849C8.39695 1.82513 6.92546 2.46821 5.84418 3.57721C4.76291 4.68621 4.15727 6.17351 4.15625 7.7224V15.4374C4.15625 15.5949 4.21881 15.7459 4.33016 15.8573C4.44151 15.9686 4.59253 16.0312 4.75 16.0312C4.90747 16.0312 5.05849 15.9686 5.16984 15.8573C5.28119 15.7459 5.34375 15.5949 5.34375 15.4374V13.0624H6.53125V17.2187C6.53125 17.5336 6.65636 17.8357 6.87906 18.0584C7.10176 18.2811 7.40381 18.4062 7.71875 18.4062H12.4688C12.7837 18.4062 13.0857 18.2811 13.3084 18.0584C13.5311 17.8357 13.6562 17.5336 13.6562 17.2187V7.71869C13.6551 6.87719 13.3565 6.06319 12.8132 5.42053C12.27 4.77787 11.5171 4.34792 10.6875 4.20665V3.17279L15.8605 4.7247C15.9358 4.74921 16.0152 4.75843 16.094 4.75182C16.1729 4.74521 16.2496 4.72291 16.3197 4.68622C16.3898 4.64953 16.4519 4.5992 16.5023 4.53818C16.5527 4.47716 16.5903 4.40668 16.6131 4.33089C16.6359 4.2551 16.6432 4.17553 16.6348 4.09685C16.6264 4.01817 16.6023 3.94197 16.564 3.87273C16.5257 3.80349 16.4739 3.7426 16.4117 3.69365C16.3496 3.64469 16.2782 3.60866 16.202 3.58767ZM5.34375 11.8749V7.71869C5.34519 6.56228 5.76798 5.44603 6.53299 4.57883C7.298 3.71164 8.35281 3.15293 9.5 3.00728V4.20665C8.67044 4.34792 7.91752 4.77787 7.37428 5.42053C6.83103 6.06319 6.53244 6.87719 6.53125 7.71869V11.8749H5.34375ZM12.4688 17.2187H7.71875V13.0624H12.4688V17.2187ZM12.4688 7.71869V11.8749H7.71875V7.71869C7.71875 7.0888 7.96897 6.48471 8.41437 6.03931C8.85977 5.59391 9.46386 5.34369 10.0938 5.34369C10.7236 5.34369 11.3277 5.59391 11.7731 6.03931C12.2185 6.48471 12.4688 7.0888 12.4688 7.71869Z" fill="#BB88FF"/>
</svg>
