<svg width="23" height="23" viewBox="0 0 23 23" fill="none" xmlns="http://www.w3.org/2000/svg">
<path d="M11.5 0C9.22552 0 7.00211 0.674463 5.11095 1.9381C3.21978 3.20174 1.7458 4.99779 0.87539 7.09914C0.00498279 9.20049 -0.222756 11.5128 0.220974 13.7435C0.664704 15.9743 1.75997 18.0234 3.36828 19.6317C4.97658 21.24 7.02568 22.3353 9.25646 22.779C11.4872 23.2228 13.7995 22.995 15.9009 22.1246C18.0022 21.2542 19.7983 19.7802 21.0619 17.8891C22.3255 15.9979 23 13.7745 23 11.5C22.9968 8.451 21.7841 5.5278 19.6282 3.37183C17.4722 1.21586 14.549 0.0032198 11.5 0ZM11.5 21.2308C9.57544 21.2308 7.69409 20.6601 6.09388 19.5908C4.49366 18.5216 3.24644 17.0019 2.50995 15.2238C1.77345 13.4457 1.58075 11.4892 1.95621 9.60162C2.33167 7.71404 3.25844 5.98018 4.61931 4.61931C5.98018 3.25843 7.71404 2.33167 9.60162 1.9562C11.4892 1.58074 13.4457 1.77344 15.2238 2.50994C17.0019 3.24644 18.5216 4.49366 19.5908 6.09387C20.6601 7.69409 21.2308 9.57543 21.2308 11.5C21.2278 14.0799 20.2017 16.5532 18.3775 18.3775C16.5532 20.2017 14.0799 21.2278 11.5 21.2308Z" fill="#E3E3E3" fill-opacity="0.42"/>
<path d="M11.5 21.2308C9.57544 21.2308 7.69409 20.6601 6.09388 19.5908C4.49366 18.5216 3.24644 17.0019 2.50995 15.2238C1.77345 13.4457 1.58075 11.4892 1.95621 9.60162C2.33167 7.71404 3.25844 5.98018 4.61931 4.61931C5.98018 3.25843 7.71404 2.33167 9.60162 1.9562C11.4892 1.58074 13.4457 1.77344 15.2238 2.50994C17.0019 3.24644 18.5216 4.49366 19.5908 6.09387C20.6601 7.69409 21.2308 9.57543 21.2308 11.5C21.2278 14.0799 20.2017 16.5532 18.3775 18.3775C16.5532 20.2017 14.0799 21.2278 11.5 21.2308Z" fill="#E3E3E3" fill-opacity="0.42"/>
<path d="M7.5 17.75C7.5 17.8983 7.45052 18.0433 7.3578 18.1667C7.26509 18.29 7.13331 18.3861 6.97914 18.4429C6.82496 18.4997 6.65531 18.5145 6.49164 18.4856C6.32797 18.4567 6.17763 18.3852 6.05963 18.2803C5.94163 18.1754 5.86127 18.0418 5.82871 17.8963C5.79616 17.7508 5.81287 17.6 5.87673 17.463C5.94059 17.3259 6.04873 17.2088 6.18749 17.1264C6.32624 17.044 6.48937 17 6.65625 17C6.88003 17 7.09464 17.079 7.25287 17.2197C7.41111 17.3603 7.5 17.5511 7.5 17.75ZM8.90625 15C8.73937 15 8.57624 15.044 8.43749 15.1264C8.29873 15.2088 8.19059 15.3259 8.12673 15.463C8.06287 15.6 8.04616 15.7508 8.07871 15.8963C8.11127 16.0418 8.19163 16.1754 8.30963 16.2803C8.42763 16.3852 8.57797 16.4567 8.74164 16.4856C8.90531 16.5145 9.07496 16.4997 9.22914 16.4429C9.38331 16.3861 9.51509 16.29 9.6078 16.1667C9.70052 16.0433 9.75 15.8983 9.75 15.75C9.75 15.5511 9.66111 15.3603 9.50287 15.2197C9.34464 15.079 9.13003 15 8.90625 15ZM4.40625 15C4.23937 15 4.07624 15.044 3.93749 15.1264C3.79873 15.2088 3.69059 15.3259 3.62673 15.463C3.56287 15.6 3.54616 15.7508 3.57871 15.8963C3.61127 16.0418 3.69163 16.1754 3.80963 16.2803C3.92763 16.3852 4.07797 16.4567 4.24164 16.4856C4.40531 16.5145 4.57496 16.4997 4.72914 16.4429C4.88331 16.3861 5.01509 16.29 5.1078 16.1667C5.20052 16.0433 5.25 15.8983 5.25 15.75C5.25 15.5511 5.16111 15.3603 5.00287 15.2197C4.84464 15.079 4.63003 15 4.40625 15ZM6.65625 13C6.48937 13 6.32624 13.044 6.18749 13.1264C6.04873 13.2088 5.94059 13.3259 5.87673 13.463C5.81287 13.6 5.79616 13.7508 5.82871 13.8963C5.86127 14.0418 5.94163 14.1754 6.05963 14.2803C6.17763 14.3852 6.32797 14.4567 6.49164 14.4856C6.65531 14.5145 6.82496 14.4997 6.97914 14.4429C7.13331 14.3861 7.26509 14.29 7.3578 14.1667C7.45052 14.0433 7.5 13.8983 7.5 13.75C7.5 13.5511 7.41111 13.3603 7.25287 13.2197C7.09464 13.079 6.88003 13 6.65625 13ZM21 5.50001C21 5.63261 20.9407 5.75979 20.8352 5.85356C20.7298 5.94733 20.5867 6.00001 20.4375 6.00001H18.4202L16.462 7.74126L14.9391 15.6656C14.9048 15.8467 14.8151 16.0158 14.6798 16.1546C14.5446 16.2933 14.369 16.3963 14.1722 16.4522C13.9755 16.5081 13.7652 16.5148 13.5645 16.4715C13.3638 16.4282 13.1804 16.3367 13.0343 16.2069L6.14367 10.0819C5.99742 9.95194 5.8943 9.78868 5.84561 9.61004C5.79693 9.43141 5.80458 9.2443 5.86772 9.06927C5.93086 8.89424 6.04705 8.73807 6.20352 8.61791C6.36 8.49775 6.5507 8.41824 6.75469 8.38813L15.6661 7.03376L17.625 5.29313C17.7291 5.19987 17.853 5.12593 17.9895 5.0756C18.126 5.02528 18.2724 4.99959 18.4202 5.00001H20.4375C20.5867 5.00001 20.7298 5.05268 20.8352 5.14645C20.9407 5.24022 21 5.3674 21 5.50001ZM15.2491 8.11188L6.9375 9.37501L13.8281 15.5L15.2491 8.11188Z" fill="#19C595"/>
</svg>
