<svg width="23" height="23" viewBox="0 0 23 23" fill="none" xmlns="http://www.w3.org/2000/svg">
<path d="M11.5 0C9.22552 0 7.00211 0.674463 5.11095 1.9381C3.21978 3.20174 1.7458 4.99779 0.87539 7.09914C0.00498279 9.20049 -0.222756 11.5128 0.220974 13.7435C0.664704 15.9743 1.75997 18.0234 3.36828 19.6317C4.97658 21.24 7.02568 22.3353 9.25646 22.779C11.4872 23.2228 13.7995 22.995 15.9009 22.1246C18.0022 21.2542 19.7983 19.7802 21.0619 17.8891C22.3255 15.9979 23 13.7745 23 11.5C22.9968 8.451 21.7841 5.5278 19.6282 3.37183C17.4722 1.21586 14.549 0.0032198 11.5 0ZM11.5 21.2308C9.57544 21.2308 7.69409 20.6601 6.09388 19.5908C4.49366 18.5216 3.24644 17.0019 2.50995 15.2238C1.77345 13.4457 1.58075 11.4892 1.95621 9.60162C2.33167 7.71404 3.25844 5.98018 4.61931 4.61931C5.98018 3.25843 7.71404 2.33167 9.60162 1.9562C11.4892 1.58074 13.4457 1.77344 15.2238 2.50994C17.0019 3.24644 18.5216 4.49366 19.5908 6.09387C20.6601 7.69409 21.2308 9.57543 21.2308 11.5C21.2278 14.0799 20.2017 16.5532 18.3775 18.3775C16.5532 20.2017 14.0799 21.2278 11.5 21.2308Z" fill="#E3E3E3" fill-opacity="0.42"/>
<path d="M11.5 21.2308C9.57544 21.2308 7.69409 20.6601 6.09388 19.5908C4.49366 18.5216 3.24644 17.0019 2.50995 15.2238C1.77345 13.4457 1.58075 11.4892 1.95621 9.60162C2.33167 7.71404 3.25844 5.98018 4.61931 4.61931C5.98018 3.25843 7.71404 2.33167 9.60162 1.9562C11.4892 1.58074 13.4457 1.77344 15.2238 2.50994C17.0019 3.24644 18.5216 4.49366 19.5908 6.09387C20.6601 7.69409 21.2308 9.57543 21.2308 11.5C21.2278 14.0799 20.2017 16.5532 18.3775 18.3775C16.5532 20.2017 14.0799 21.2278 11.5 21.2308Z" fill="#E3E3E3" fill-opacity="0.42"/>
<path d="M18.7276 7.47417L17.5141 6.26188C17.4199 6.16769 17.2921 6.11477 17.1589 6.11477C17.0257 6.11477 16.898 6.16769 16.8038 6.26188C16.7096 6.35607 16.6567 6.48383 16.6567 6.61704C16.6567 6.75024 16.7096 6.878 16.8038 6.97219L18.0161 8.18573C18.1097 8.27949 18.1625 8.40648 18.1629 8.53901V13.6448C18.1629 13.7779 18.11 13.9056 18.0159 13.9998C17.9217 14.0939 17.7941 14.1468 17.6609 14.1468C17.5278 14.1468 17.4001 14.0939 17.306 13.9998C17.2118 13.9056 17.1589 13.7779 17.1589 13.6448V11.1349C17.1589 10.7355 17.0003 10.3524 16.7179 10.07C16.4354 9.7876 16.0524 9.62894 15.653 9.62894H14.649V6.61704C14.649 6.21763 14.4904 5.83459 14.2079 5.55217C13.9255 5.26975 13.5425 5.11108 13.1431 5.11108H8.12323C7.72383 5.11108 7.34078 5.26975 7.05836 5.55217C6.77594 5.83459 6.61728 6.21763 6.61728 6.61704V16.1547H5.61331C5.48018 16.1547 5.3525 16.2076 5.25836 16.3018C5.16422 16.3959 5.11133 16.5236 5.11133 16.6567C5.11133 16.7898 5.16422 16.9175 5.25836 17.0117C5.3525 17.1058 5.48018 17.1587 5.61331 17.1587H15.653C15.7861 17.1587 15.9138 17.1058 16.0079 17.0117C16.1021 16.9175 16.155 16.7898 16.155 16.6567C16.155 16.5236 16.1021 16.3959 16.0079 16.3018C15.9138 16.2076 15.7861 16.1547 15.653 16.1547H14.649V10.6329H15.653C15.7861 10.6329 15.9138 10.6858 16.0079 10.7799C16.1021 10.8741 16.155 11.0018 16.155 11.1349V13.6448C16.155 14.0442 16.3136 14.4273 16.5961 14.7097C16.8785 14.9921 17.2615 15.1508 17.6609 15.1508C18.0603 15.1508 18.4434 14.9921 18.7258 14.7097C19.0082 14.4273 19.1669 14.0442 19.1669 13.6448V8.53901C19.1676 8.3413 19.1292 8.14541 19.0538 7.96264C18.9784 7.77987 18.8676 7.61385 18.7276 7.47417ZM7.62125 16.1547V6.61704C7.62125 6.4839 7.67413 6.35622 7.76827 6.26208C7.86241 6.16794 7.9901 6.11505 8.12323 6.11505H13.1431C13.2762 6.11505 13.4039 6.16794 13.498 6.26208C13.5922 6.35622 13.6451 6.4839 13.6451 6.61704V16.1547H7.62125ZM12.6411 10.1309C12.6411 10.2641 12.5882 10.3917 12.4941 10.4859C12.3999 10.58 12.2722 10.6329 12.1391 10.6329H9.1272C8.99406 10.6329 8.86638 10.58 8.77224 10.4859C8.6781 10.3917 8.62521 10.2641 8.62521 10.1309C8.62521 9.99779 8.6781 9.87011 8.77224 9.77597C8.86638 9.68182 8.99406 9.62894 9.1272 9.62894H12.1391C12.2722 9.62894 12.3999 9.68182 12.4941 9.77597C12.5882 9.87011 12.6411 9.99779 12.6411 10.1309Z" fill="#19C595"/>
</svg>
