<svg width="23" height="23" viewBox="0 0 23 23" fill="none" xmlns="http://www.w3.org/2000/svg">
<path d="M11.5 0C9.22552 0 7.00211 0.674463 5.11095 1.9381C3.21978 3.20174 1.7458 4.99779 0.87539 7.09914C0.00498279 9.20049 -0.222756 11.5128 0.220974 13.7435C0.664704 15.9743 1.75997 18.0234 3.36828 19.6317C4.97658 21.24 7.02568 22.3353 9.25646 22.779C11.4872 23.2228 13.7995 22.995 15.9009 22.1246C18.0022 21.2542 19.7983 19.7802 21.0619 17.8891C22.3255 15.9979 23 13.7745 23 11.5C22.9968 8.451 21.7841 5.5278 19.6282 3.37183C17.4722 1.21586 14.549 0.0032198 11.5 0ZM11.5 21.2308C9.57544 21.2308 7.69409 20.6601 6.09388 19.5908C4.49366 18.5216 3.24644 17.0019 2.50995 15.2238C1.77345 13.4457 1.58075 11.4892 1.95621 9.60162C2.33167 7.71404 3.25844 5.98018 4.61931 4.61931C5.98018 3.25843 7.71404 2.33167 9.60162 1.9562C11.4892 1.58074 13.4457 1.77344 15.2238 2.50994C17.0019 3.24644 18.5216 4.49366 19.5908 6.09387C20.6601 7.69409 21.2308 9.57543 21.2308 11.5C21.2278 14.0799 20.2017 16.5532 18.3775 18.3775C16.5532 20.2017 14.0799 21.2278 11.5 21.2308Z" fill="#E3E3E3" fill-opacity="0.42"/>
<path d="M11.5 21.2308C9.57544 21.2308 7.69409 20.6601 6.09388 19.5908C4.49366 18.5216 3.24644 17.0019 2.50995 15.2238C1.77345 13.4457 1.58075 11.4892 1.95621 9.60162C2.33167 7.71404 3.25844 5.98018 4.61931 4.61931C5.98018 3.25843 7.71404 2.33167 9.60162 1.9562C11.4892 1.58074 13.4457 1.77344 15.2238 2.50994C17.0019 3.24644 18.5216 4.49366 19.5908 6.09387C20.6601 7.69409 21.2308 9.57543 21.2308 11.5C21.2278 14.0799 20.2017 16.5532 18.3775 18.3775C16.5532 20.2017 14.0799 21.2278 11.5 21.2308Z" fill="#E3E3E3" fill-opacity="0.42"/>
<path d="M19.1227 17.3364C19.0994 17.4095 19.062 17.4774 19.0125 17.536C18.9631 17.5947 18.9025 17.6431 18.8343 17.6783C18.7662 17.7136 18.6917 17.7351 18.6153 17.7416C18.5388 17.7481 18.4618 17.7395 18.3886 17.7162L12.1386 15.7273L5.8886 17.7162C5.81546 17.7394 5.73846 17.7481 5.66199 17.7416C5.58552 17.7351 5.51108 17.7136 5.44291 17.6783C5.37475 17.643 5.3142 17.5947 5.26472 17.536C5.21525 17.4773 5.17781 17.4095 5.15455 17.3364C5.13129 17.2632 5.12266 17.1862 5.12916 17.1098C5.13566 17.0333 5.15716 16.9588 5.19243 16.8907C5.22769 16.8225 5.27604 16.762 5.33471 16.7125C5.39338 16.663 5.46122 16.6256 5.53436 16.6023L10.2089 15.1145L5.53436 13.6259C5.4592 13.6044 5.38912 13.5681 5.32828 13.519C5.26743 13.4699 5.21706 13.4091 5.18013 13.3402C5.14321 13.2713 5.12048 13.1957 5.11331 13.1178C5.10613 13.04 5.11465 12.9615 5.13836 12.887C5.16206 12.8125 5.20048 12.7435 5.25132 12.6841C5.30217 12.6248 5.36442 12.5762 5.43437 12.5413C5.50433 12.5064 5.58058 12.4859 5.6586 12.481C5.73662 12.4761 5.81483 12.4869 5.8886 12.5128L12.1386 14.501L18.3886 12.5128C18.4624 12.4869 18.5406 12.4761 18.6186 12.481C18.6967 12.4859 18.7729 12.5064 18.8429 12.5413C18.9128 12.5762 18.9751 12.6248 19.0259 12.6841C19.0768 12.7435 19.1152 12.8125 19.1389 12.887C19.1626 12.9615 19.1711 13.04 19.1639 13.1178C19.1568 13.1957 19.134 13.2713 19.0971 13.3402C19.0602 13.4091 19.0098 13.4699 18.949 13.519C18.8881 13.5681 18.818 13.6044 18.7429 13.6259L14.0683 15.1145L18.7429 16.6023C18.816 16.6256 18.8839 16.663 18.9425 16.7125C19.0012 16.762 19.0496 16.8225 19.0848 16.8907C19.1201 16.9588 19.1416 17.0333 19.1481 17.1098C19.1546 17.1862 19.146 17.2632 19.1227 17.3364ZM7.75623 8.687C7.75623 7.21889 8.46983 5.70186 9.81887 4.3046C10.4242 3.67514 11.0999 3.11735 11.8326 2.64222C11.9246 2.58563 12.0306 2.55566 12.1386 2.55566C12.2467 2.55566 12.3526 2.58563 12.4447 2.64222C12.6112 2.74082 16.521 5.18693 16.521 8.687C16.521 9.84928 16.0593 10.964 15.2374 11.7858C14.4156 12.6077 13.3009 13.0694 12.1386 13.0694C10.9763 13.0694 9.86166 12.6077 9.0398 11.7858C8.21794 10.964 7.75623 9.84928 7.75623 8.687ZM12.1386 11.9007C12.4486 11.9007 12.7458 11.7776 12.965 11.5585C13.1841 11.3393 13.3073 11.0421 13.3073 10.7321C13.3073 9.74096 12.5769 8.94556 12.1386 8.55625C11.7004 8.94556 10.97 9.74096 10.97 10.7321C10.97 11.0421 11.0931 11.3393 11.3123 11.5585C11.5314 11.7776 11.8287 11.9007 12.1386 11.9007ZM8.92487 8.687C8.92461 9.50933 9.24081 10.3002 9.80792 10.8957C9.80792 10.8417 9.80134 10.7869 9.80134 10.7321C9.80134 8.68699 11.7325 7.37885 11.8143 7.32407C11.9103 7.26001 12.0232 7.22582 12.1386 7.22582C12.254 7.22582 12.3669 7.26001 12.4629 7.32407C12.5447 7.37885 14.4759 8.68699 14.4759 10.7321C14.4759 10.7869 14.4759 10.8417 14.4693 10.8957C15.0364 10.3002 15.3526 9.50933 15.3524 8.687C15.3524 6.34972 12.9961 4.45068 12.1386 3.84153C11.2819 4.45068 8.92487 6.34972 8.92487 8.687Z" fill="#BB88FF"/>
</svg>
