<svg width="49" height="23" viewBox="0 0 49 23" fill="none" xmlns="http://www.w3.org/2000/svg">
<path d="M37.5 0C35.2255 0 33.0021 0.674463 31.1109 1.9381C29.2198 3.20174 27.7458 4.99779 26.8754 7.09914C26.005 9.20049 25.7772 11.5128 26.221 13.7435C26.6647 15.9743 27.76 18.0234 29.3683 19.6317C30.9766 21.24 33.0257 22.3353 35.2565 22.779C37.4872 23.2228 39.7995 22.995 41.9009 22.1246C44.0022 21.2542 45.7983 19.7802 47.0619 17.8891C48.3255 15.9979 49 13.7745 49 11.5C48.9968 8.451 47.7841 5.5278 45.6282 3.37183C43.4722 1.21586 40.549 0.0032198 37.5 0ZM37.5 21.2308C35.5754 21.2308 33.6941 20.6601 32.0939 19.5908C30.4937 18.5216 29.2464 17.0019 28.5099 15.2238C27.7734 13.4457 27.5807 11.4892 27.9562 9.60162C28.3317 7.71404 29.2584 5.98018 30.6193 4.61931C31.9802 3.25843 33.714 2.33167 35.6016 1.9562C37.4892 1.58074 39.4457 1.77344 41.2238 2.50994C43.0019 3.24644 44.5216 4.49366 45.5908 6.09387C46.6601 7.69409 47.2308 9.57543 47.2308 11.5C47.2278 14.0799 46.2017 16.5532 44.3775 18.3775C42.5532 20.2017 40.0799 21.2278 37.5 21.2308Z" fill="#E3E3E3" fill-opacity="0.42"/>
<path d="M37.5 21.2308C35.5754 21.2308 33.6941 20.6601 32.0939 19.5908C30.4937 18.5216 29.2464 17.0019 28.5099 15.2238C27.7734 13.4457 27.5807 11.4892 27.9562 9.60162C28.3317 7.71404 29.2584 5.98018 30.6193 4.61931C31.9802 3.25843 33.714 2.33167 35.6016 1.9562C37.4892 1.58074 39.4457 1.77344 41.2238 2.50994C43.0019 3.24644 44.5216 4.49366 45.5908 6.09387C46.6601 7.69409 47.2308 9.57543 47.2308 11.5C47.2278 14.0799 46.2017 16.5532 44.3775 18.3775C42.5532 20.2017 40.0799 21.2278 37.5 21.2308Z" fill="#E3E3E3" fill-opacity="0.42"/>
<path d="M11.5 0C9.22552 0 7.00211 0.674463 5.11095 1.9381C3.21978 3.20174 1.7458 4.99779 0.87539 7.09914C0.00498279 9.20049 -0.222756 11.5128 0.220974 13.7435C0.664704 15.9743 1.75997 18.0234 3.36828 19.6317C4.97658 21.24 7.02568 22.3353 9.25646 22.779C11.4872 23.2228 13.7995 22.995 15.9009 22.1246C18.0022 21.2542 19.7983 19.7802 21.0619 17.8891C22.3255 15.9979 23 13.7745 23 11.5C22.9968 8.451 21.7841 5.5278 19.6282 3.37183C17.4722 1.21586 14.549 0.0032198 11.5 0ZM11.5 21.2308C9.57544 21.2308 7.69409 20.6601 6.09388 19.5908C4.49366 18.5216 3.24644 17.0019 2.50995 15.2238C1.77345 13.4457 1.58075 11.4892 1.95621 9.60162C2.33167 7.71404 3.25844 5.98018 4.61931 4.61931C5.98018 3.25843 7.71404 2.33167 9.60162 1.9562C11.4892 1.58074 13.4457 1.77344 15.2238 2.50994C17.0019 3.24644 18.5216 4.49366 19.5908 6.09387C20.6601 7.69409 21.2308 9.57543 21.2308 11.5C21.2278 14.0799 20.2017 16.5532 18.3775 18.3775C16.5532 20.2017 14.0799 21.2278 11.5 21.2308Z" fill="#E3E3E3" fill-opacity="0.42"/>
<path d="M11.5 21.2308C9.57544 21.2308 7.69409 20.6601 6.09388 19.5908C4.49366 18.5216 3.24644 17.0019 2.50995 15.2238C1.77345 13.4457 1.58075 11.4892 1.95621 9.60162C2.33167 7.71404 3.25844 5.98018 4.61931 4.61931C5.98018 3.25843 7.71404 2.33167 9.60162 1.9562C11.4892 1.58074 13.4457 1.77344 15.2238 2.50994C17.0019 3.24644 18.5216 4.49366 19.5908 6.09387C20.6601 7.69409 21.2308 9.57543 21.2308 11.5C21.2278 14.0799 20.2017 16.5532 18.3775 18.3775C16.5532 20.2017 14.0799 21.2278 11.5 21.2308Z" fill="#E3E3E3" fill-opacity="0.42"/>
<path d="M17.8595 12.3807C17.8762 12.4444 17.8793 12.5107 17.8688 12.5756C17.8583 12.6405 17.8342 12.7028 17.7981 12.759C17.762 12.8152 17.7144 12.8641 17.6582 12.903C17.602 12.9419 17.5381 12.97 17.4704 12.9857L15.8341 13.3607L16.2631 14.8675C16.2812 14.931 16.2858 14.9972 16.2767 15.0623C16.2676 15.1274 16.2449 15.1902 16.21 15.2471C16.1751 15.304 16.1286 15.3538 16.0732 15.3938C16.0179 15.4338 15.9547 15.4631 15.8872 15.48C15.8425 15.4922 15.7963 15.4989 15.7498 15.5C15.6329 15.4999 15.5193 15.4636 15.4267 15.3966C15.334 15.3296 15.2674 15.2357 15.2371 15.1294L14.7245 13.3294L12.031 11.8663V14.7932L13.4694 16.1463C13.5187 16.1927 13.5579 16.2479 13.5846 16.3086C13.6113 16.3693 13.6251 16.4343 13.6251 16.5C13.6251 16.5657 13.6113 16.6308 13.5846 16.6915C13.5579 16.7522 13.5187 16.8073 13.4694 16.8538C13.42 16.9002 13.3614 16.9371 13.2969 16.9622C13.2325 16.9874 13.1633 17.0003 13.0935 17.0003C13.0237 17.0003 12.9546 16.9874 12.8901 16.9622C12.8256 16.9371 12.767 16.9002 12.7177 16.8538L11.4998 15.7069L10.2819 16.8538C10.2325 16.9002 10.1739 16.9371 10.1094 16.9622C10.045 16.9874 9.97583 17.0003 9.90603 17.0003C9.83622 17.0003 9.7671 16.9874 9.70261 16.9622C9.63812 16.9371 9.57953 16.9002 9.53017 16.8538C9.48081 16.8073 9.44166 16.7522 9.41494 16.6915C9.38823 16.6308 9.37448 16.5657 9.37448 16.5C9.37448 16.4343 9.38823 16.3693 9.41494 16.3086C9.44166 16.2479 9.48081 16.1927 9.53017 16.1463L10.9685 14.7932V11.8663L8.27575 13.3294L7.7631 15.1294C7.73283 15.2358 7.66611 15.3297 7.57329 15.3967C7.48048 15.4638 7.36676 15.5001 7.24978 15.5C7.20316 15.5 7.15674 15.4943 7.11165 15.4832C7.04423 15.4662 6.98102 15.4369 6.92564 15.3969C6.87026 15.3569 6.82379 15.3071 6.78888 15.2502C6.75398 15.1933 6.73133 15.1305 6.72222 15.0654C6.71311 15.0003 6.71772 14.9341 6.73579 14.8707L7.16478 13.3638L5.52853 12.9888C5.39168 12.9571 5.2738 12.8756 5.20083 12.7621C5.12785 12.6487 5.10575 12.5126 5.13939 12.3838C5.17302 12.255 5.25965 12.144 5.3802 12.0754C5.50075 12.0067 5.64535 11.9859 5.7822 12.0175L7.73786 12.4694L10.4373 11L7.73853 9.53378L5.78286 9.98566C5.74137 9.99533 5.69877 10.0002 5.65603 10C5.52613 10.0001 5.4007 9.95541 5.30345 9.87435C5.20621 9.7933 5.14388 9.68152 5.12826 9.56015C5.11265 9.43878 5.14482 9.31623 5.21869 9.21567C5.29257 9.11511 5.40303 9.04351 5.52919 9.01441L7.16544 8.63941L6.73646 7.12941C6.7 7.00128 6.71912 6.86476 6.7896 6.74989C6.86009 6.63503 6.97617 6.55122 7.11232 6.51691C7.24846 6.4826 7.3935 6.50059 7.51555 6.56693C7.63759 6.63327 7.72664 6.74253 7.7631 6.87066L8.27575 8.67066L10.9685 10.1338V7.20691L9.53017 5.85378C9.43048 5.75996 9.37448 5.63272 9.37448 5.50003C9.37448 5.43434 9.38823 5.36928 9.41494 5.30859C9.44166 5.24789 9.48081 5.19274 9.53017 5.14628C9.57953 5.09983 9.63812 5.06298 9.70261 5.03784C9.7671 5.0127 9.83622 4.99976 9.90603 4.99976C10.047 4.99976 10.1822 5.05246 10.2819 5.14628L11.4998 6.29316L12.7177 5.14628C12.8174 5.05246 12.9526 4.99976 13.0935 4.99976C13.2345 4.99976 13.3697 5.05246 13.4694 5.14628C13.5691 5.2401 13.6251 5.36735 13.6251 5.50003C13.6251 5.63272 13.5691 5.75996 13.4694 5.85378L12.031 7.20691V10.1338L14.7238 8.67066L15.2365 6.87066C15.2729 6.74253 15.362 6.63327 15.484 6.56693C15.606 6.50059 15.7511 6.4826 15.8872 6.51691C16.0234 6.55122 16.1395 6.63503 16.2099 6.74989C16.2804 6.86476 16.2996 7.00128 16.2631 7.12941L15.8341 8.63628L17.4704 9.01128C17.6 9.03735 17.7147 9.10812 17.7917 9.20969C17.8688 9.31126 17.9027 9.43628 17.8868 9.56019C17.8709 9.6841 17.8064 9.79793 17.7058 9.87932C17.6053 9.96071 17.4761 10.0038 17.3435 10C17.3008 10.0002 17.2582 9.99533 17.2167 9.98566L15.261 9.53378L12.5623 11L15.261 12.4663L17.2167 12.0144C17.2845 11.9987 17.3548 11.9958 17.4238 12.0057C17.4928 12.0156 17.559 12.0382 17.6187 12.0722C17.6784 12.1062 17.7304 12.151 17.7717 12.2039C17.813 12.2568 17.8429 12.3169 17.8595 12.3807Z" fill="#50D1AD"/>
<path d="M43.25 7.0625H40.625V4.875C40.625 4.75897 40.5789 4.64769 40.4969 4.56564C40.4148 4.48359 40.3035 4.4375 40.1875 4.4375C40.0715 4.4375 39.9602 4.48359 39.8781 4.56564C39.7961 4.64769 39.75 4.75897 39.75 4.875V7.0625H36.25V4.875C36.25 4.75897 36.2039 4.64769 36.1219 4.56564C36.0398 4.48359 35.9285 4.4375 35.8125 4.4375C35.6965 4.4375 35.5852 4.48359 35.5031 4.56564C35.4211 4.64769 35.375 4.75897 35.375 4.875V7.0625H32.7801C32.4372 7.0625 32.3125 7.32391 32.3125 7.5C32.3125 7.61603 32.3586 7.72731 32.4406 7.80936C32.5227 7.89141 32.634 7.9375 32.75 7.9375H33.625V12.75C33.625 13.3302 33.8555 13.8866 34.2657 14.2968C34.6759 14.707 35.2323 14.9375 35.8125 14.9375H37.5625V17.125C37.5625 17.241 37.6086 17.3523 37.6906 17.4344C37.7727 17.5164 37.884 17.5625 38 17.5625C38.116 17.5625 38.2273 17.5164 38.3094 17.4344C38.3914 17.3523 38.4375 17.241 38.4375 17.125V14.9375H40.1875C40.7677 14.9375 41.3241 14.707 41.7343 14.2968C42.1445 13.8866 42.375 13.3302 42.375 12.75V7.9375H43.25C43.366 7.9375 43.4773 7.89141 43.5594 7.80936C43.6414 7.72731 43.6875 7.61603 43.6875 7.5C43.6875 7.38397 43.6414 7.27269 43.5594 7.19064C43.4773 7.10859 43.366 7.0625 43.25 7.0625ZM40.1875 14.0625H35.8125C35.4644 14.0625 35.1306 13.9242 34.8844 13.6781C34.6383 13.4319 34.5 13.0981 34.5 12.75V7.9375H41.5V12.75C41.5 13.0981 41.3617 13.4319 41.1156 13.6781C40.8694 13.9242 40.5356 14.0625 40.1875 14.0625ZM39.2348 10.7506C39.2751 10.8088 39.3007 10.8758 39.3093 10.946C39.318 11.0162 39.3095 11.0875 39.2846 11.1537L38.6284 12.9037C38.5876 13.0125 38.5053 13.1006 38.3996 13.1487C38.2938 13.1968 38.1733 13.2009 38.0645 13.1602C37.9558 13.1194 37.8676 13.0371 37.8195 12.9314C37.7714 12.8256 37.7673 12.7051 37.808 12.5963L38.2455 11.4375H37.125C37.0543 11.4375 36.9847 11.4204 36.922 11.3876C36.8594 11.3548 36.8057 11.3073 36.7654 11.2492C36.7251 11.1911 36.6996 11.1241 36.6908 11.0539C36.6821 10.9837 36.6906 10.9125 36.7154 10.8463L37.3716 9.09633C37.4124 8.98755 37.4947 8.89941 37.6004 8.85131C37.7062 8.80321 37.8267 8.79909 37.9355 8.83984C38.0442 8.8806 38.1324 8.9629 38.1805 9.06864C38.2286 9.17438 38.2327 9.29489 38.192 9.40367L37.7545 10.5625H38.875C38.9457 10.5624 39.0154 10.5795 39.0781 10.6123C39.1407 10.6451 39.1945 10.6925 39.2348 10.7506Z" fill="#BB88FF"/>
</svg>
