<svg width="23" height="23" viewBox="0 0 23 23" fill="none" xmlns="http://www.w3.org/2000/svg">
<path d="M11.5 0C9.22552 0 7.00211 0.674463 5.11095 1.9381C3.21978 3.20174 1.7458 4.99779 0.87539 7.09914C0.00498279 9.20049 -0.222756 11.5128 0.220974 13.7435C0.664704 15.9743 1.75997 18.0234 3.36828 19.6317C4.97658 21.24 7.02568 22.3353 9.25646 22.779C11.4872 23.2228 13.7995 22.995 15.9009 22.1246C18.0022 21.2542 19.7983 19.7802 21.0619 17.8891C22.3255 15.9979 23 13.7745 23 11.5C22.9968 8.451 21.7841 5.5278 19.6282 3.37183C17.4722 1.21586 14.549 0.0032198 11.5 0ZM11.5 21.2308C9.57544 21.2308 7.69409 20.6601 6.09388 19.5908C4.49366 18.5216 3.24644 17.0019 2.50995 15.2238C1.77345 13.4457 1.58075 11.4892 1.95621 9.60162C2.33167 7.71404 3.25844 5.98018 4.61931 4.61931C5.98018 3.25843 7.71404 2.33167 9.60162 1.9562C11.4892 1.58074 13.4457 1.77344 15.2238 2.50994C17.0019 3.24644 18.5216 4.49366 19.5908 6.09387C20.6601 7.69409 21.2308 9.57543 21.2308 11.5C21.2278 14.0799 20.2017 16.5532 18.3775 18.3775C16.5532 20.2017 14.0799 21.2278 11.5 21.2308Z" fill="#E3E3E3" fill-opacity="0.42"/>
<path d="M11.5 21.2308C9.57544 21.2308 7.69409 20.6601 6.09388 19.5908C4.49366 18.5216 3.24644 17.0019 2.50995 15.2238C1.77345 13.4457 1.58075 11.4892 1.95621 9.60162C2.33167 7.71404 3.25844 5.98018 4.61931 4.61931C5.98018 3.25843 7.71404 2.33167 9.60162 1.9562C11.4892 1.58074 13.4457 1.77344 15.2238 2.50994C17.0019 3.24644 18.5216 4.49366 19.5908 6.09387C20.6601 7.69409 21.2308 9.57543 21.2308 11.5C21.2278 14.0799 20.2017 16.5532 18.3775 18.3775C16.5532 20.2017 14.0799 21.2278 11.5 21.2308Z" fill="#E3E3E3" fill-opacity="0.42"/>
<path d="M7.94064 11.1349C7.94064 11.2974 7.89246 11.4562 7.8022 11.5913C7.71194 11.7263 7.58365 11.8316 7.43356 11.8938C7.28346 11.956 7.1183 11.9722 6.95896 11.9405C6.79962 11.9088 6.65325 11.8306 6.53837 11.7157C6.42349 11.6009 6.34526 11.4545 6.31357 11.2951C6.28187 11.1358 6.29814 10.9706 6.36031 10.8205C6.42248 10.6704 6.52777 10.5422 6.66285 10.4519C6.79793 10.3616 6.95675 10.3135 7.11921 10.3135C7.33707 10.3135 7.546 10.4 7.70005 10.5541C7.8541 10.7081 7.94064 10.917 7.94064 11.1349ZM19.1668 11.1349V17.1587C19.1668 17.4492 19.0514 17.7278 18.846 17.9332C18.6406 18.1385 18.3621 18.2539 18.0716 18.2539H10.4049C10.1144 18.2539 9.83587 18.1385 9.63047 17.9332C9.42508 17.7278 9.30969 17.4492 9.30969 17.1587V15.6767C8.71894 16.6364 7.95296 17.1587 7.11921 17.1587C6.16978 17.1587 5.30796 16.4817 4.69326 15.2523C4.13879 14.1468 3.8335 12.6812 3.8335 11.1349C3.8335 9.58855 4.13879 8.12641 4.69326 7.01748C5.30796 5.78808 6.16978 5.11108 7.11921 5.11108H15.8811C16.8305 5.11108 17.6924 5.78808 18.3071 7.01748C18.8615 8.12641 19.1668 9.58855 19.1668 11.1349ZM9.30969 11.1349C9.30969 8.23046 8.15558 6.20632 7.11921 6.20632C6.08284 6.20632 4.92873 8.23046 4.92873 11.1349C4.92873 14.0393 6.08284 16.0635 7.11921 16.0635C8.15558 16.0635 9.30969 14.0393 9.30969 11.1349ZM18.0716 17.1587V11.6825H16.9764C16.8311 11.6825 16.6918 11.6248 16.5891 11.5221C16.4864 11.4194 16.4287 11.2801 16.4287 11.1349C16.4287 10.9897 16.4864 10.8504 16.5891 10.7477C16.6918 10.645 16.8311 10.5873 16.9764 10.5873H18.0572C17.9237 7.97924 16.8504 6.20632 15.8811 6.20632H9.04409C9.23638 6.46026 9.40416 6.73186 9.54516 7.01748C10.0339 7.99498 10.3283 9.24629 10.3919 10.5873H11.5002C11.6454 10.5873 11.7847 10.645 11.8874 10.7477C11.9901 10.8504 12.0478 10.9897 12.0478 11.1349C12.0478 11.2801 11.9901 11.4194 11.8874 11.5221C11.7847 11.6248 11.6454 11.6825 11.5002 11.6825H10.4049V17.1587H18.0716ZM14.7859 10.5873H13.6906C13.5454 10.5873 13.4061 10.645 13.3034 10.7477C13.2007 10.8504 13.143 10.9897 13.143 11.1349C13.143 11.2801 13.2007 11.4194 13.3034 11.5221C13.4061 11.6248 13.5454 11.6825 13.6906 11.6825H14.7859C14.9311 11.6825 15.0704 11.6248 15.1731 11.5221C15.2758 11.4194 15.3335 11.2801 15.3335 11.1349C15.3335 10.9897 15.2758 10.8504 15.1731 10.7477C15.0704 10.645 14.9311 10.5873 14.7859 10.5873Z" fill="#19C595"/>
</svg>
