<svg width="23" height="23" viewBox="0 0 23 23" fill="none" xmlns="http://www.w3.org/2000/svg">
<path d="M11.5 0C9.22552 0 7.00211 0.674463 5.11095 1.9381C3.21978 3.20174 1.7458 4.99779 0.87539 7.09914C0.00498279 9.20049 -0.222756 11.5128 0.220974 13.7435C0.664704 15.9743 1.75997 18.0234 3.36828 19.6317C4.97658 21.24 7.02568 22.3353 9.25646 22.779C11.4872 23.2228 13.7995 22.995 15.9009 22.1246C18.0022 21.2542 19.7983 19.7802 21.0619 17.8891C22.3255 15.9979 23 13.7745 23 11.5C22.9968 8.451 21.7841 5.5278 19.6282 3.37183C17.4722 1.21586 14.549 0.0032198 11.5 0ZM11.5 21.2308C9.57544 21.2308 7.69409 20.6601 6.09388 19.5908C4.49366 18.5216 3.24644 17.0019 2.50995 15.2238C1.77345 13.4457 1.58075 11.4892 1.95621 9.60162C2.33167 7.71404 3.25844 5.98018 4.61931 4.61931C5.98018 3.25843 7.71404 2.33167 9.60162 1.9562C11.4892 1.58074 13.4457 1.77344 15.2238 2.50994C17.0019 3.24644 18.5216 4.49366 19.5908 6.09387C20.6601 7.69409 21.2308 9.57543 21.2308 11.5C21.2278 14.0799 20.2017 16.5532 18.3775 18.3775C16.5532 20.2017 14.0799 21.2278 11.5 21.2308Z" fill="#E3E3E3" fill-opacity="0.42"/>
<path d="M11.5 21.2308C9.57544 21.2308 7.69409 20.6601 6.09388 19.5908C4.49366 18.5216 3.24644 17.0019 2.50995 15.2238C1.77345 13.4457 1.58075 11.4892 1.95621 9.60162C2.33167 7.71404 3.25844 5.98018 4.61931 4.61931C5.98018 3.25843 7.71404 2.33167 9.60162 1.9562C11.4892 1.58074 13.4457 1.77344 15.2238 2.50994C17.0019 3.24644 18.5216 4.49366 19.5908 6.09387C20.6601 7.69409 21.2308 9.57543 21.2308 11.5C21.2278 14.0799 20.2017 16.5532 18.3775 18.3775C16.5532 20.2017 14.0799 21.2278 11.5 21.2308Z" fill="#E3E3E3" fill-opacity="0.42"/>
<path d="M19.9742 15.1018C19.9534 15.0434 19.9206 14.9894 19.8776 14.9429C19.8345 14.8964 19.7822 14.8583 19.7234 14.8307C19.6647 14.8032 19.6007 14.7868 19.5352 14.7824C19.4697 14.7781 19.404 14.7858 19.3417 14.8053L18.2529 15.1457L16.4467 11.759C16.4051 11.6812 16.3414 11.6158 16.2624 11.5701C16.1835 11.5243 16.0926 11.5001 15.9998 11.5H10.9998V10.0938H14.4998C14.6324 10.0938 14.7596 10.0444 14.8533 9.95649C14.9471 9.86858 14.9998 9.74935 14.9998 9.62503C14.9998 9.50071 14.9471 9.38148 14.8533 9.29357C14.7596 9.20567 14.6324 9.15628 14.4998 9.15628H10.9998V8.62894C11.4711 8.51485 11.8819 8.24352 12.1551 7.86581C12.4283 7.4881 12.5452 7.02994 12.4839 6.57722C12.4225 6.12449 12.1872 5.70828 11.8219 5.4066C11.4567 5.10492 10.9866 4.93848 10.4998 4.93848C10.013 4.93848 9.54293 5.10492 9.17768 5.4066C8.81243 5.70828 8.57707 6.12449 8.51574 6.57722C8.4544 7.02994 8.57129 7.4881 8.84449 7.86581C9.1177 8.24352 9.52847 8.51485 9.9998 8.62894V9.26234C8.92171 9.49334 7.9721 10.0884 7.33223 10.934C6.69235 11.7796 6.40701 12.8165 6.53067 13.8468C6.65433 14.877 7.17833 15.8285 8.00266 16.5197C8.82698 17.2108 9.89391 17.5932 10.9998 17.5938C13.0948 17.5938 14.9804 16.2631 15.4842 14.4297C15.5006 14.3701 15.5043 14.308 15.4951 14.247C15.486 14.186 15.4641 14.1273 15.4307 14.0743C15.3973 14.0212 15.3531 13.9749 15.3006 13.9378C15.2482 13.9008 15.1884 13.8738 15.1248 13.8584C15.0612 13.843 14.995 13.8395 14.9299 13.8482C14.8649 13.8568 14.8023 13.8773 14.7457 13.9086C14.6891 13.9399 14.6396 13.9813 14.6001 14.0305C14.5606 14.0797 14.5318 14.1357 14.5154 14.1953C14.1304 15.6016 12.6192 16.6563 10.9998 16.6563C10.1593 16.656 9.34696 16.3722 8.71127 15.8567C8.07558 15.3412 7.65899 14.6285 7.53764 13.8488C7.4163 13.0691 7.59829 12.2744 8.05037 11.6102C8.50245 10.9459 9.19441 10.4563 9.9998 10.2309V11.9688C9.9998 12.0931 10.0525 12.2123 10.1462 12.3002C10.24 12.3881 10.3672 12.4375 10.4998 12.4375H15.6904L17.5523 15.9285C17.6063 16.0294 17.6972 16.1086 17.8085 16.1517C17.9197 16.1947 18.0438 16.1987 18.1579 16.1629L19.6579 15.6942C19.7836 15.6549 19.8875 15.5704 19.9468 15.4593C20.0061 15.3483 20.0159 15.2197 19.9742 15.1018ZM9.4998 6.81253C9.4998 6.62711 9.55844 6.44586 9.66833 6.29168C9.77821 6.13751 9.93439 6.01735 10.1171 5.94639C10.2998 5.87544 10.5009 5.85687 10.6949 5.89305C10.8889 5.92922 11.067 6.01851 11.2069 6.14962C11.3468 6.28073 11.442 6.44778 11.4806 6.62963C11.5192 6.81149 11.4994 6.99999 11.4237 7.1713C11.348 7.3426 11.2198 7.48902 11.0554 7.59203C10.8909 7.69505 10.6976 7.75003 10.4998 7.75003C10.2346 7.75003 9.98023 7.65126 9.79269 7.47544C9.60515 7.29963 9.4998 7.06117 9.4998 6.81253Z" fill="#BB88FF"/>
</svg>
