<svg width="23" height="23" viewBox="0 0 23 23" fill="none" xmlns="http://www.w3.org/2000/svg">
<path d="M11.5 0C9.22552 0 7.00211 0.674463 5.11095 1.9381C3.21978 3.20174 1.7458 4.99779 0.87539 7.09914C0.00498279 9.20049 -0.222756 11.5128 0.220974 13.7435C0.664704 15.9743 1.75997 18.0234 3.36828 19.6317C4.97658 21.24 7.02568 22.3353 9.25646 22.779C11.4872 23.2228 13.7995 22.995 15.9009 22.1246C18.0022 21.2542 19.7983 19.7802 21.0619 17.8891C22.3255 15.9979 23 13.7745 23 11.5C22.9968 8.451 21.7841 5.5278 19.6282 3.37183C17.4722 1.21586 14.549 0.0032198 11.5 0ZM11.5 21.2308C9.57544 21.2308 7.69409 20.6601 6.09388 19.5908C4.49366 18.5216 3.24644 17.0019 2.50995 15.2238C1.77345 13.4457 1.58075 11.4892 1.95621 9.60162C2.33167 7.71404 3.25844 5.98018 4.61931 4.61931C5.98018 3.25843 7.71404 2.33167 9.60162 1.9562C11.4892 1.58074 13.4457 1.77344 15.2238 2.50994C17.0019 3.24644 18.5216 4.49366 19.5908 6.09387C20.6601 7.69409 21.2308 9.57543 21.2308 11.5C21.2278 14.0799 20.2017 16.5532 18.3775 18.3775C16.5532 20.2017 14.0799 21.2278 11.5 21.2308Z" fill="#E3E3E3" fill-opacity="0.42"/>
<path d="M11.5 21.2308C9.57544 21.2308 7.69409 20.6601 6.09388 19.5908C4.49366 18.5216 3.24644 17.0019 2.50995 15.2238C1.77345 13.4457 1.58075 11.4892 1.95621 9.60162C2.33167 7.71404 3.25844 5.98018 4.61931 4.61931C5.98018 3.25843 7.71404 2.33167 9.60162 1.9562C11.4892 1.58074 13.4457 1.77344 15.2238 2.50994C17.0019 3.24644 18.5216 4.49366 19.5908 6.09387C20.6601 7.69409 21.2308 9.57543 21.2308 11.5C21.2278 14.0799 20.2017 16.5532 18.3775 18.3775C16.5532 20.2017 14.0799 21.2278 11.5 21.2308Z" fill="#E3E3E3" fill-opacity="0.42"/>
<path d="M8 16.8281C8 16.9672 7.95601 17.1031 7.8736 17.2188C7.79119 17.3344 7.67406 17.4245 7.53701 17.4777C7.39997 17.5309 7.24917 17.5449 7.10368 17.5177C6.9582 17.4906 6.82456 17.4236 6.71967 17.3253C6.61478 17.227 6.54335 17.1017 6.51441 16.9653C6.48547 16.8289 6.50032 16.6875 6.55709 16.5591C6.61386 16.4306 6.70999 16.3208 6.83332 16.2435C6.95666 16.1662 7.10166 16.125 7.25 16.125C7.44891 16.125 7.63968 16.1991 7.78033 16.3309C7.92098 16.4628 8 16.6416 8 16.8281ZM9.25 14.25C9.10166 14.25 8.95666 14.2912 8.83332 14.3685C8.70999 14.4458 8.61386 14.5556 8.55709 14.6841C8.50033 14.8125 8.48547 14.9539 8.51441 15.0903C8.54335 15.2267 8.61478 15.352 8.71967 15.4503C8.82456 15.5486 8.9582 15.6156 9.10368 15.6427C9.24917 15.6699 9.39997 15.6559 9.53701 15.6027C9.67406 15.5495 9.79119 15.4594 9.8736 15.3438C9.95601 15.2281 10 15.0922 10 14.9531C10 14.7666 9.92098 14.5878 9.78033 14.4559C9.63968 14.3241 9.44891 14.25 9.25 14.25ZM5.25 14.25C5.10166 14.25 4.95666 14.2912 4.83332 14.3685C4.70999 14.4458 4.61386 14.5556 4.55709 14.6841C4.50032 14.8125 4.48547 14.9539 4.51441 15.0903C4.54335 15.2267 4.61478 15.352 4.71967 15.4503C4.82456 15.5486 4.9582 15.6156 5.10368 15.6427C5.24917 15.6699 5.39997 15.6559 5.53701 15.6027C5.67406 15.5495 5.79119 15.4594 5.8736 15.3438C5.95601 15.2281 6 15.0922 6 14.9531C6 14.7666 5.92098 14.5878 5.78033 14.4559C5.63968 14.3241 5.44891 14.25 5.25 14.25ZM7.25 12.375C7.10166 12.375 6.95666 12.4162 6.83332 12.4935C6.70999 12.5708 6.61386 12.6806 6.55709 12.8091C6.50032 12.9375 6.48547 13.0789 6.51441 13.2153C6.54335 13.3517 6.61478 13.477 6.71967 13.5753C6.82456 13.6736 6.9582 13.7406 7.10368 13.7677C7.24917 13.7949 7.39997 13.7809 7.53701 13.7277C7.67406 13.6745 7.79119 13.5844 7.8736 13.4688C7.95601 13.3531 8 13.2172 8 13.0781C8 12.8916 7.92098 12.7128 7.78033 12.5809C7.63968 12.4491 7.44891 12.375 7.25 12.375ZM20 5.34375C20 5.46807 19.9473 5.5873 19.8536 5.67521C19.7598 5.76312 19.6326 5.8125 19.5 5.8125H17.7069L15.9663 7.44493L14.6125 14.874C14.582 15.0438 14.5023 15.2023 14.3821 15.3324C14.2618 15.4625 14.1057 15.559 13.9309 15.6114C13.756 15.6638 13.5691 15.6701 13.3907 15.6295C13.2123 15.589 13.0492 15.5031 12.9194 15.3814L6.79438 9.63926C6.66438 9.51744 6.57271 9.36439 6.52944 9.19692C6.48616 9.02944 6.49296 8.85403 6.54909 8.68994C6.60521 8.52585 6.70849 8.37944 6.84758 8.26679C6.98666 8.15414 7.15618 8.0796 7.3375 8.05137L15.2587 6.78165L17 5.14981C17.0925 5.06238 17.2027 4.99306 17.324 4.94588C17.4454 4.8987 17.5755 4.87461 17.7069 4.875H19.5C19.6326 4.875 19.7598 4.92439 19.8536 5.0123C19.9473 5.10021 20 5.21943 20 5.34375ZM14.8881 7.79239L7.5 8.97657L13.625 14.7188L14.8881 7.79239Z" fill="#19C595"/>
</svg>
