<svg width="23" height="23" viewBox="0 0 23 23" fill="none" xmlns="http://www.w3.org/2000/svg">
<path d="M11.5 0C9.22552 0 7.00211 0.674463 5.11095 1.9381C3.21978 3.20174 1.7458 4.99779 0.87539 7.09914C0.00498279 9.20049 -0.222756 11.5128 0.220974 13.7435C0.664704 15.9743 1.75997 18.0234 3.36828 19.6317C4.97658 21.24 7.02568 22.3353 9.25646 22.779C11.4872 23.2228 13.7995 22.995 15.9009 22.1246C18.0022 21.2542 19.7983 19.7802 21.0619 17.8891C22.3255 15.9979 23 13.7745 23 11.5C22.9968 8.451 21.7841 5.5278 19.6282 3.37183C17.4722 1.21586 14.549 0.0032198 11.5 0ZM11.5 21.2308C9.57544 21.2308 7.69409 20.6601 6.09388 19.5908C4.49366 18.5216 3.24644 17.0019 2.50995 15.2238C1.77345 13.4457 1.58075 11.4892 1.95621 9.60162C2.33167 7.71404 3.25844 5.98018 4.61931 4.61931C5.98018 3.25843 7.71404 2.33167 9.60162 1.9562C11.4892 1.58074 13.4457 1.77344 15.2238 2.50994C17.0019 3.24644 18.5216 4.49366 19.5908 6.09387C20.6601 7.69409 21.2308 9.57543 21.2308 11.5C21.2278 14.0799 20.2017 16.5532 18.3775 18.3775C16.5532 20.2017 14.0799 21.2278 11.5 21.2308Z" fill="#E3E3E3" fill-opacity="0.42"/>
<path d="M11.5 21.2308C9.57544 21.2308 7.69409 20.6601 6.09388 19.5908C4.49366 18.5216 3.24644 17.0019 2.50995 15.2238C1.77345 13.4457 1.58075 11.4892 1.95621 9.60162C2.33167 7.71404 3.25844 5.98018 4.61931 4.61931C5.98018 3.25843 7.71404 2.33167 9.60162 1.9562C11.4892 1.58074 13.4457 1.77344 15.2238 2.50994C17.0019 3.24644 18.5216 4.49366 19.5908 6.09387C20.6601 7.69409 21.2308 9.57543 21.2308 11.5C21.2278 14.0799 20.2017 16.5532 18.3775 18.3775C16.5532 20.2017 14.0799 21.2278 11.5 21.2308Z" fill="#E3E3E3" fill-opacity="0.42"/>
<path d="M13.6092 8C13.9337 8 14.2509 7.89737 14.5207 7.70507C14.7905 7.51278 15.0008 7.23947 15.1249 6.9197C15.2491 6.59993 15.2816 6.24806 15.2183 5.90859C15.155 5.56913 14.9987 5.25731 14.7693 5.01256C14.5398 4.76782 14.2475 4.60115 13.9293 4.53363C13.611 4.4661 13.2811 4.50076 12.9813 4.63321C12.6816 4.76566 12.4253 4.98997 12.2451 5.27775C12.0648 5.56554 11.9686 5.90388 11.9686 6.25C11.9686 6.71413 12.1414 7.15925 12.4491 7.48744C12.7568 7.81563 13.1741 8 13.6092 8ZM13.6092 5.5C13.7483 5.5 13.8842 5.54399 13.9998 5.6264C14.1154 5.70881 14.2056 5.82594 14.2588 5.96299C14.312 6.10003 14.3259 6.25083 14.2988 6.39632C14.2717 6.5418 14.2047 6.67544 14.1064 6.78033C14.008 6.88522 13.8828 6.95665 13.7464 6.98559C13.61 7.01453 13.4686 6.99968 13.3401 6.94291C13.2116 6.88614 13.1018 6.79002 13.0246 6.66668C12.9473 6.54334 12.9061 6.39834 12.9061 6.25C12.9061 6.05109 12.9801 5.86032 13.112 5.71967C13.2439 5.57902 13.4227 5.5 13.6092 5.5ZM18.9342 15.245L15.7373 9.49C15.6549 9.34008 15.5369 9.2159 15.3953 9.1299C15.2537 9.04391 15.0934 8.99911 14.9305 9C14.7676 8.99909 14.6074 9.04389 14.4659 9.12989C14.3244 9.2159 14.2065 9.34009 14.1242 9.49L12.5914 12.25L9.96407 7.49375C9.88128 7.34366 9.76318 7.21924 9.62146 7.13279C9.47974 7.04635 9.31932 7.00087 9.15606 7.00087C8.99281 7.00087 8.83238 7.04635 8.69066 7.13279C8.54894 7.21924 8.43084 7.34366 8.34805 7.49375L4.06485 15.2463C4.02293 15.3222 4.00056 15.4086 4.00001 15.4967C3.99946 15.5848 4.02076 15.6715 4.06174 15.748C4.10272 15.8245 4.16193 15.8881 4.23337 15.9324C4.30481 15.9766 4.38595 16 4.46856 16H18.5311C18.6138 16 18.6951 15.9766 18.7666 15.9323C18.8381 15.8879 18.8974 15.8241 18.9383 15.7475C18.9792 15.6708 19.0004 15.5839 18.9997 15.4956C18.999 15.4074 18.9764 15.3209 18.9342 15.245ZM9.15606 8L10.5371 10.5H7.77501L9.15606 8ZM5.28887 15L7.22247 11.5H11.0897L12.1877 13.4875L13.0232 15H5.28887ZM14.1113 15L13.1352 13.2325L14.9305 10L17.7107 15H14.1113Z" fill="#BB88FF"/>
</svg>
