<svg width="13" height="13" viewBox="0 0 13 13" fill="none" xmlns="http://www.w3.org/2000/svg">
<path d="M10.1562 11.375H7.64461C8.06653 10.9983 8.46442 10.5955 8.83594 10.1689C10.2299 8.56578 10.9688 6.87578 10.9688 5.28125C10.9688 4.09606 10.4979 2.95942 9.65988 2.12137C8.82183 1.28331 7.68519 0.8125 6.5 0.8125C5.31481 0.8125 4.17817 1.28331 3.34012 2.12137C2.50206 2.95942 2.03125 4.09606 2.03125 5.28125C2.03125 6.87578 2.76809 8.56578 4.16406 10.1689C4.53558 10.5955 4.93347 10.9983 5.35539 11.375H2.84375C2.73601 11.375 2.63267 11.4178 2.55649 11.494C2.4803 11.5702 2.4375 11.6735 2.4375 11.7812C2.4375 11.889 2.4803 11.9923 2.55649 12.0685C2.63267 12.1447 2.73601 12.1875 2.84375 12.1875H10.1562C10.264 12.1875 10.3673 12.1447 10.4435 12.0685C10.5197 11.9923 10.5625 11.889 10.5625 11.7812C10.5625 11.6735 10.5197 11.5702 10.4435 11.494C10.3673 11.4178 10.264 11.375 10.1562 11.375ZM2.84375 5.28125C2.84375 4.31155 3.22896 3.38157 3.91464 2.69589C4.60032 2.01021 5.5303 1.625 6.5 1.625C7.4697 1.625 8.39968 2.01021 9.08536 2.69589C9.77104 3.38157 10.1562 4.31155 10.1562 5.28125C10.1562 8.18746 7.33941 10.6133 6.5 11.2734C5.66059 10.6133 2.84375 8.18746 2.84375 5.28125ZM8.53125 5.28125C8.53125 4.87951 8.41212 4.48679 8.18892 4.15275C7.96573 3.81871 7.64849 3.55836 7.27733 3.40462C6.90616 3.25088 6.49775 3.21065 6.10372 3.28903C5.7097 3.36741 5.34776 3.56086 5.06369 3.84494C4.77961 4.12901 4.58616 4.49095 4.50778 4.88497C4.4294 5.279 4.46963 5.68741 4.62337 6.05858C4.77711 6.42974 5.03746 6.74698 5.3715 6.97017C5.70554 7.19337 6.09826 7.3125 6.5 7.3125C7.03872 7.3125 7.55538 7.09849 7.93631 6.71756C8.31724 6.33663 8.53125 5.81997 8.53125 5.28125ZM5.28125 5.28125C5.28125 5.0402 5.35273 4.80457 5.48665 4.60415C5.62056 4.40373 5.81091 4.24752 6.0336 4.15527C6.2563 4.06303 6.50135 4.03889 6.73777 4.08592C6.97418 4.13294 7.19134 4.24902 7.36179 4.41946C7.53223 4.58991 7.64831 4.80707 7.69533 5.04348C7.74236 5.2799 7.71822 5.52495 7.62598 5.74765C7.53373 5.97034 7.37752 6.16069 7.1771 6.2946C6.97668 6.42852 6.74105 6.5 6.5 6.5C6.17677 6.5 5.86677 6.3716 5.63821 6.14304C5.40965 5.91448 5.28125 5.60448 5.28125 5.28125Z" fill="#19C595"/>
</svg>
