<svg width="37" height="37" viewBox="0 0 37 37" fill="none" xmlns="http://www.w3.org/2000/svg">
<path d="M32.1054 4.05075C31.8213 3.76678 31.4665 3.56369 31.0778 3.4624C30.689 3.36112 30.2803 3.3653 29.8937 3.47452H29.8725L2.76409 11.7C2.32282 11.8269 1.93067 12.0852 1.63987 12.4405C1.34907 12.7959 1.17342 13.2314 1.1363 13.689C1.09919 14.1467 1.20237 14.6048 1.43211 15.0023C1.66185 15.3999 2.00725 15.718 2.42231 15.9144L14.5147 21.6414L20.2418 33.7339C20.4226 34.1211 20.7104 34.4485 21.0713 34.6775C21.4321 34.9065 21.851 35.0275 22.2784 35.0261C22.3433 35.0261 22.4083 35.0233 22.4733 35.0177C22.9293 34.9807 23.3632 34.8052 23.7166 34.5147C24.07 34.2241 24.3261 33.8324 24.4505 33.3921L32.6703 6.28366C32.6703 6.2766 32.6703 6.26954 32.6703 6.26247C32.781 5.87686 32.787 5.46873 32.6877 5.08004C32.5884 4.69134 32.3874 4.33608 32.1054 4.05075ZM22.2911 32.7452L22.284 32.765L16.7251 21.0299L23.3969 14.3566C23.5999 14.143 23.7114 13.8585 23.7076 13.5639C23.7038 13.2693 23.5851 12.9878 23.3767 12.7794C23.1684 12.5711 22.8869 12.4524 22.5923 12.4486C22.2976 12.4448 22.0132 12.5563 21.7996 12.7592L15.1263 19.4311L3.38976 13.8722H3.40953L30.5066 5.64952L22.2911 32.7452Z" fill="#BB88FF"/>
</svg>
