<svg width="18" height="17" viewBox="0 0 18 17" fill="none" xmlns="http://www.w3.org/2000/svg">
<path d="M16.3125 12.7499H14.0625V11.1562H15.75C15.8355 11.1562 15.9198 11.1378 15.9966 11.1023C16.0734 11.0669 16.1407 11.0155 16.1933 10.9518C16.2459 10.8882 16.2824 10.8141 16.3002 10.7351C16.3179 10.6562 16.3164 10.5744 16.2956 10.4961L14.0456 1.99609C14.0151 1.88122 13.9449 1.77927 13.846 1.70641C13.7472 1.63356 13.6254 1.59399 13.5 1.59399C13.3746 1.59399 13.2528 1.63356 13.154 1.70641C13.0551 1.77927 12.9849 1.88122 12.9544 1.99609L10.7044 10.4961C10.6836 10.5744 10.6821 10.6562 10.6998 10.7351C10.7176 10.8141 10.7541 10.8882 10.8067 10.9518C10.8593 11.0155 10.9266 11.0669 11.0034 11.1023C11.0802 11.1378 11.1645 11.1562 11.25 11.1562H12.9375V12.7499H8.4375V11.6874H9C9.14918 11.6874 9.29226 11.6315 9.39775 11.5318C9.50324 11.4322 9.5625 11.2971 9.5625 11.1562C9.5625 11.0153 9.50324 10.8802 9.39775 10.7805C9.29226 10.6809 9.14918 10.6249 9 10.6249H8.4375V9.56242H9C9.14918 9.56242 9.29226 9.50645 9.39775 9.40682C9.50324 9.3072 9.5625 9.17207 9.5625 9.03117C9.5625 8.89028 9.50324 8.75515 9.39775 8.65552C9.29226 8.55589 9.14918 8.49992 9 8.49992H2.8125C2.66332 8.49992 2.52024 8.55589 2.41475 8.65552C2.30926 8.75515 2.25 8.89028 2.25 9.03117C2.25 9.17207 2.30926 9.3072 2.41475 9.40682C2.52024 9.50645 2.66332 9.56242 2.8125 9.56242H3.375V10.6249H2.8125C2.66332 10.6249 2.52024 10.6809 2.41475 10.7805C2.30926 10.8802 2.25 11.0153 2.25 11.1562C2.25 11.2971 2.30926 11.4322 2.41475 11.5318C2.52024 11.6315 2.66332 11.6874 2.8125 11.6874H3.375V12.7499H1.6875C1.53832 12.7499 1.39524 12.8059 1.28975 12.9055C1.18426 13.0052 1.125 13.1403 1.125 13.2812C1.125 13.4221 1.18426 13.5572 1.28975 13.6568C1.39524 13.7565 1.53832 13.8124 1.6875 13.8124H16.3125C16.4617 13.8124 16.6048 13.7565 16.7102 13.6568C16.8157 13.5572 16.875 13.4221 16.875 13.2812C16.875 13.1403 16.8157 13.0052 16.7102 12.9055C16.6048 12.8059 16.4617 12.7499 16.3125 12.7499ZM13.5 4.31633L15.0293 10.0937H11.9707L13.5 4.31633ZM4.5 9.56242H7.3125V10.6249H4.5V9.56242ZM4.5 11.6874H7.3125V12.7499H4.5V11.6874ZM8.15625 6.37492C8.54563 6.37492 8.92627 6.26587 9.25003 6.06156C9.57379 5.85725 9.82613 5.56686 9.97514 5.2271C10.1241 4.88734 10.1631 4.51349 10.0872 4.1528C10.0112 3.79212 9.8237 3.46081 9.54837 3.20077C9.27303 2.94073 8.92223 2.76364 8.54033 2.6919C8.15843 2.62016 7.76258 2.65698 7.40284 2.79771C7.0431 2.93844 6.73562 3.17676 6.51929 3.48253C6.30297 3.78831 6.1875 4.1478 6.1875 4.51555C6.1875 5.00868 6.39492 5.48162 6.76413 5.83032C7.13335 6.17903 7.63411 6.37492 8.15625 6.37492ZM8.15625 3.71867C8.32313 3.71867 8.48626 3.76541 8.62501 3.85297C8.76377 3.94053 8.87191 4.06499 8.93577 4.2106C8.99963 4.35621 9.01634 4.51643 8.98379 4.67101C8.95123 4.82559 8.87087 4.96758 8.75287 5.07902C8.63487 5.19047 8.48453 5.26636 8.32086 5.29711C8.15719 5.32786 7.98754 5.31208 7.83336 5.25176C7.67919 5.19145 7.54741 5.08931 7.4547 4.95827C7.36198 4.82722 7.3125 4.67315 7.3125 4.51555C7.3125 4.3042 7.40139 4.10152 7.55963 3.95207C7.71786 3.80263 7.93247 3.71867 8.15625 3.71867Z" fill="#BB88FF"/>
</svg>
