<svg width="33" height="7" viewBox="0 0 33 7" fill="none" xmlns="http://www.w3.org/2000/svg">
<path d="M3.5 0C2.80777 0 2.13108 0.205271 1.55551 0.589856C0.979933 0.974441 0.53133 1.52107 0.266423 2.16061C0.00151649 2.80015 -0.0677952 3.50388 0.0672531 4.18282C0.202301 4.86175 0.535644 5.48539 1.02513 5.97487C1.51461 6.46436 2.13825 6.7977 2.81718 6.93275C3.49612 7.0678 4.19985 6.99848 4.83939 6.73358C5.47893 6.46867 6.02556 6.02007 6.41014 5.44449C6.79473 4.86892 7 4.19223 7 3.5C6.99902 2.57204 6.62996 1.68237 5.97379 1.02621C5.31763 0.370043 4.42796 0.000979939 3.5 0ZM3.5 6.46154C2.91426 6.46154 2.34168 6.28785 1.85466 5.96243C1.36764 5.63701 0.988048 5.17448 0.763897 4.63333C0.539745 4.09218 0.481096 3.49671 0.595368 2.92223C0.70964 2.34775 0.991699 1.82005 1.40588 1.40588C1.82006 0.991697 2.34775 0.709638 2.92223 0.595367C3.49672 0.481095 4.09218 0.539743 4.63333 0.763895C5.17448 0.988047 5.63701 1.36763 5.96243 1.85466C6.28785 2.34168 6.46154 2.91426 6.46154 3.5C6.46065 4.28517 6.14834 5.03794 5.59314 5.59314C5.03794 6.14834 4.28518 6.46065 3.5 6.46154Z" fill="#BB88FF"/>
<path d="M3.5 6.46154C2.91426 6.46154 2.34168 6.28785 1.85466 5.96243C1.36764 5.63701 0.988048 5.17448 0.763897 4.63333C0.539745 4.09218 0.481096 3.49671 0.595368 2.92223C0.70964 2.34775 0.991699 1.82005 1.40588 1.40588C1.82006 0.991697 2.34775 0.709638 2.92223 0.595367C3.49672 0.481095 4.09218 0.539743 4.63333 0.763895C5.17448 0.988047 5.63701 1.36763 5.96243 1.85466C6.28785 2.34168 6.46154 2.91426 6.46154 3.5C6.46065 4.28517 6.14834 5.03794 5.59314 5.59314C5.03794 6.14834 4.28518 6.46065 3.5 6.46154Z" fill="#BB88FF"/>
<path d="M11.5 0C10.8078 0 10.1311 0.205271 9.55551 0.589856C8.97993 0.974441 8.53133 1.52107 8.26642 2.16061C8.00152 2.80015 7.9322 3.50388 8.06725 4.18282C8.2023 4.86175 8.53564 5.48539 9.02513 5.97487C9.51461 6.46436 10.1383 6.7977 10.8172 6.93275C11.4961 7.0678 12.1999 6.99848 12.8394 6.73358C13.4789 6.46867 14.0256 6.02007 14.4101 5.44449C14.7947 4.86892 15 4.19223 15 3.5C14.999 2.57204 14.63 1.68237 13.9738 1.02621C13.3176 0.370043 12.428 0.000979939 11.5 0ZM11.5 6.46154C10.9143 6.46154 10.3417 6.28785 9.85466 5.96243C9.36764 5.63701 8.98805 5.17448 8.7639 4.63333C8.53974 4.09218 8.4811 3.49671 8.59537 2.92223C8.70964 2.34775 8.9917 1.82005 9.40588 1.40588C9.82006 0.991697 10.3478 0.709638 10.9222 0.595367C11.4967 0.481095 12.0922 0.539743 12.6333 0.763895C13.1745 0.988047 13.637 1.36763 13.9624 1.85466C14.2878 2.34168 14.4615 2.91426 14.4615 3.5C14.4606 4.28517 14.1483 5.03794 13.5931 5.59314C13.0379 6.14834 12.2852 6.46065 11.5 6.46154Z" fill="white"/>
<path d="M11.5 6.46154C10.9143 6.46154 10.3417 6.28785 9.85466 5.96243C9.36764 5.63701 8.98805 5.17448 8.7639 4.63333C8.53974 4.09218 8.4811 3.49671 8.59537 2.92223C8.70964 2.34775 8.9917 1.82005 9.40588 1.40588C9.82006 0.991697 10.3478 0.709638 10.9222 0.595367C11.4967 0.481095 12.0922 0.539743 12.6333 0.763895C13.1745 0.988047 13.637 1.36763 13.9624 1.85466C14.2878 2.34168 14.4615 2.91426 14.4615 3.5C14.4606 4.28517 14.1483 5.03794 13.5931 5.59314C13.0379 6.14834 12.2852 6.46065 11.5 6.46154Z" fill="white"/>
<path d="M20.5 0C19.8078 0 19.1311 0.205271 18.5555 0.589856C17.9799 0.974441 17.5313 1.52107 17.2664 2.16061C17.0015 2.80015 16.9322 3.50388 17.0673 4.18282C17.2023 4.86175 17.5356 5.48539 18.0251 5.97487C18.5146 6.46436 19.1383 6.7977 19.8172 6.93275C20.4961 7.0678 21.1999 6.99848 21.8394 6.73358C22.4789 6.46867 23.0256 6.02007 23.4101 5.44449C23.7947 4.86892 24 4.19223 24 3.5C23.999 2.57204 23.63 1.68237 22.9738 1.02621C22.3176 0.370043 21.428 0.000979939 20.5 0ZM20.5 6.46154C19.9143 6.46154 19.3417 6.28785 18.8547 5.96243C18.3676 5.63701 17.988 5.17448 17.7639 4.63333C17.5397 4.09218 17.4811 3.49671 17.5954 2.92223C17.7096 2.34775 17.9917 1.82005 18.4059 1.40588C18.8201 0.991697 19.3478 0.709638 19.9222 0.595367C20.4967 0.481095 21.0922 0.539743 21.6333 0.763895C22.1745 0.988047 22.637 1.36763 22.9624 1.85466C23.2878 2.34168 23.4615 2.91426 23.4615 3.5C23.4606 4.28517 23.1483 5.03794 22.5931 5.59314C22.0379 6.14834 21.2852 6.46065 20.5 6.46154Z" fill="#FEFEFE"/>
<path d="M20.5 6.46154C19.9143 6.46154 19.3417 6.28785 18.8547 5.96243C18.3676 5.63701 17.988 5.17448 17.7639 4.63333C17.5397 4.09218 17.4811 3.49671 17.5954 2.92223C17.7096 2.34775 17.9917 1.82005 18.4059 1.40588C18.8201 0.991697 19.3478 0.709638 19.9222 0.595367C20.4967 0.481095 21.0922 0.539743 21.6333 0.763895C22.1745 0.988047 22.637 1.36763 22.9624 1.85466C23.2878 2.34168 23.4615 2.91426 23.4615 3.5C23.4606 4.28517 23.1483 5.03794 22.5931 5.59314C22.0379 6.14834 21.2852 6.46065 20.5 6.46154Z" fill="#FEFEFE"/>
<path d="M29.5 0C28.8078 0 28.1311 0.205271 27.5555 0.589856C26.9799 0.974441 26.5313 1.52107 26.2664 2.16061C26.0015 2.80015 25.9322 3.50388 26.0673 4.18282C26.2023 4.86175 26.5356 5.48539 27.0251 5.97487C27.5146 6.46436 28.1383 6.7977 28.8172 6.93275C29.4961 7.0678 30.1999 6.99848 30.8394 6.73358C31.4789 6.46867 32.0256 6.02007 32.4101 5.44449C32.7947 4.86892 33 4.19223 33 3.5C32.999 2.57204 32.63 1.68237 31.9738 1.02621C31.3176 0.370043 30.428 0.000979939 29.5 0ZM29.5 6.46154C28.9143 6.46154 28.3417 6.28785 27.8547 5.96243C27.3676 5.63701 26.988 5.17448 26.7639 4.63333C26.5397 4.09218 26.4811 3.49671 26.5954 2.92223C26.7096 2.34775 26.9917 1.82005 27.4059 1.40588C27.8201 0.991697 28.3478 0.709638 28.9222 0.595367C29.4967 0.481095 30.0922 0.539743 30.6333 0.763895C31.1745 0.988047 31.637 1.36763 31.9624 1.85466C32.2878 2.34168 32.4615 2.91426 32.4615 3.5C32.4606 4.28517 32.1483 5.03794 31.5931 5.59314C31.0379 6.14834 30.2852 6.46065 29.5 6.46154Z" fill="white"/>
<path d="M29.5 6.46154C28.9143 6.46154 28.3417 6.28785 27.8547 5.96243C27.3676 5.63701 26.988 5.17448 26.7639 4.63333C26.5397 4.09218 26.4811 3.49671 26.5954 2.92223C26.7096 2.34775 26.9917 1.82005 27.4059 1.40588C27.8201 0.991697 28.3478 0.709638 28.9222 0.595367C29.4967 0.481095 30.0922 0.539743 30.6333 0.763895C31.1745 0.988047 31.637 1.36763 31.9624 1.85466C32.2878 2.34168 32.4615 2.91426 32.4615 3.5C32.4606 4.28517 32.1483 5.03794 31.5931 5.59314C31.0379 6.14834 30.2852 6.46065 29.5 6.46154Z" fill="white"/>
</svg>
