<svg width="36" height="35" viewBox="0 0 36 35" fill="none" xmlns="http://www.w3.org/2000/svg">
<path d="M21.8686 3.39202C21.6794 3.30239 21.4682 3.26615 21.2589 3.28742C21.0495 3.30869 20.8506 3.38661 20.6845 3.51233L10.8633 10.9375H4.5C3.90326 10.9375 3.33097 11.168 2.90901 11.5782C2.48705 11.9885 2.25 12.5449 2.25 13.125V21.875C2.25 22.4552 2.48705 23.0116 2.90901 23.4218C3.33097 23.8321 3.90326 24.0625 4.5 24.0625H10.8633L20.6845 31.4877C20.8507 31.6133 21.0498 31.6911 21.2592 31.7121C21.4686 31.7332 21.6799 31.6967 21.869 31.6069C22.0581 31.517 22.2175 31.3773 22.3291 31.2038C22.4406 31.0302 22.4998 30.8297 22.5 30.625V4.37502C22.5 4.17012 22.4409 3.96933 22.3292 3.79553C22.2176 3.62173 22.058 3.48192 21.8686 3.39202ZM4.5 13.125H10.125V21.875H4.5V13.125ZM20.25 28.3883L12.375 22.4342V12.5658L20.25 6.61174V28.3883ZM27.8438 13.8852C28.7486 14.8839 29.2478 16.1691 29.2478 17.5C29.2478 18.8309 28.7486 20.1162 27.8438 21.1149C27.645 21.3272 27.3683 21.455 27.0735 21.4708C26.7786 21.4866 26.4892 21.389 26.2677 21.1991C26.0462 21.0092 25.9104 20.7423 25.8895 20.4559C25.8687 20.1696 25.9645 19.8867 26.1563 19.6684C26.6989 19.0692 26.9982 18.2983 26.9982 17.5C26.9982 16.7017 26.6989 15.9308 26.1563 15.3317C25.9645 15.1133 25.8687 14.8305 25.8895 14.5441C25.9104 14.2577 26.0462 13.9908 26.2677 13.8009C26.4892 13.6111 26.7786 13.5135 27.0735 13.5293C27.3683 13.545 27.645 13.6729 27.8438 13.8852ZM34.875 17.5C34.8766 20.1909 33.8566 22.7877 32.0105 24.7926C31.8101 25.0034 31.5324 25.1292 31.2375 25.1428C30.9426 25.1564 30.6539 25.0567 30.4339 24.8652C30.2139 24.6737 30.0802 24.4059 30.0615 24.1194C30.0429 23.8329 30.1408 23.5507 30.3342 23.3338C31.81 21.7296 32.6258 19.6529 32.6258 17.5007C32.6258 15.3485 31.81 13.2718 30.3342 11.6676C30.2329 11.561 30.1545 11.436 30.1034 11.2996C30.0523 11.1633 30.0296 11.0184 30.0367 10.8735C30.0437 10.7286 30.0804 10.5865 30.1445 10.4554C30.2086 10.3244 30.2989 10.2071 30.4101 10.1103C30.5213 10.0135 30.6512 9.93923 30.7922 9.89174C30.9332 9.84425 31.0826 9.82452 31.2315 9.83369C31.3804 9.84285 31.526 9.88074 31.6598 9.94514C31.7935 10.0095 31.9127 10.0992 32.0105 10.2088C33.8571 12.2129 34.8772 14.8094 34.875 17.5Z" fill="#BB88FF"/>
</svg>
