<svg width="21" height="20" viewBox="0 0 21 20" fill="none" xmlns="http://www.w3.org/2000/svg">
<path d="M6.90352 13.2641C7.68947 14.0197 8.3126 14.9184 8.73683 15.9084C9.16106 16.8983 9.37797 17.9597 9.375 19.0312C9.375 19.2716 9.27623 19.5021 9.10041 19.6721C8.9246 19.842 8.68614 19.9375 8.4375 19.9375C8.18886 19.9375 7.9504 19.842 7.77459 19.6721C7.59877 19.5021 7.5 19.2716 7.5 19.0312C7.5 17.3488 6.8086 15.7352 5.57789 14.5455C4.34718 13.3559 2.67798 12.6875 0.937501 12.6875C0.68886 12.6875 0.450404 12.592 0.274588 12.4221C0.098773 12.2521 7.57431e-07 12.0216 7.57431e-07 11.7813C7.57431e-07 11.5409 0.098773 11.3104 0.274588 11.1404C0.450404 10.9705 0.68886 10.875 0.937501 10.875C2.04596 10.8721 3.14399 11.0818 4.16806 11.4919C5.19212 11.902 6.12188 12.5043 6.90352 13.2641ZM0.937501 5.4375C0.68886 5.4375 0.450404 5.53298 0.274588 5.70293C0.098773 5.87289 7.57431e-07 6.1034 7.57431e-07 6.34375C7.57431e-07 6.5841 0.098773 6.81461 0.274588 6.98457C0.450404 7.15452 0.68886 7.25 0.937501 7.25C2.53799 7.25 4.1228 7.55473 5.60146 8.14679C7.08011 8.73886 8.42365 9.60666 9.55537 10.7006C10.6871 11.7946 11.5848 13.0934 12.1973 14.5228C12.8098 15.9521 13.125 17.4841 13.125 19.0312C13.125 19.2716 13.2238 19.5021 13.3996 19.6721C13.5754 19.842 13.8139 19.9375 14.0625 19.9375C14.3111 19.9375 14.5496 19.842 14.7254 19.6721C14.9012 19.5021 15 19.2716 15 19.0312C15 15.426 13.5184 11.9683 10.8812 9.41902C8.24396 6.86969 4.66711 5.4375 0.937501 5.4375ZM1.40625 17.2187C1.12812 17.2187 0.856237 17.2985 0.62498 17.4478C0.393723 17.5972 0.213481 17.8095 0.107045 18.0579C0.000609308 18.3063 -0.0272391 18.5796 0.0270213 18.8433C0.0812818 19.107 0.215214 19.3492 0.411882 19.5393C0.608549 19.7295 0.859119 19.8589 1.13191 19.9114C1.40469 19.9638 1.68744 19.9369 1.9444 19.834C2.20136 19.7311 2.42098 19.5569 2.5755 19.3334C2.73003 19.1098 2.8125 18.847 2.8125 18.5781C2.8125 18.2176 2.66434 17.8718 2.40062 17.6169C2.1369 17.362 1.77921 17.2187 1.40625 17.2187Z" fill="#19C595"/>
<path d="M14.8582 5.57464C13.0344 3.80185 10.865 2.39635 8.47548 1.43947C6.08599 0.482597 3.5239 -0.00664384 0.937501 6.81363e-05C0.68886 6.81363e-05 0.450404 0.0955479 0.274588 0.265503C0.098773 0.435458 7.58427e-07 0.665966 7.58427e-07 0.906318C7.58427e-07 1.14667 0.098773 1.37718 0.274588 1.54713C0.450404 1.71709 0.68886 1.81257 0.937501 1.81257C3.27762 1.80637 5.59577 2.24891 7.75776 3.1146C9.91975 3.98028 11.8826 5.2519 13.5328 6.85585C15.1921 8.45101 16.5075 10.3485 17.4031 12.4384C18.2986 14.5283 18.7564 16.7692 18.75 19.0313C18.75 19.2717 18.8488 19.5022 19.0246 19.6721C19.2004 19.8421 19.4389 19.9376 19.6875 19.9376C19.9361 19.9376 20.1746 19.8421 20.3504 19.6721C20.5262 19.5022 20.625 19.2717 20.625 19.0313C20.6319 16.5311 20.1258 14.0544 19.136 11.7446C18.1461 9.43476 16.6921 7.33765 14.8582 5.57464Z" fill="black" fill-opacity="0.29"/>
</svg>
