<svg width="18" height="18" viewBox="0 0 18 18" fill="none" xmlns="http://www.w3.org/2000/svg">
<path d="M16.1368 7.94543L11.6769 6.32824L10.0548 1.8634C9.97489 1.6481 9.831 1.46242 9.64246 1.33129C9.45392 1.20017 9.22977 1.12988 9.00012 1.12988C8.77047 1.12988 8.54631 1.20017 8.35778 1.33129C8.16924 1.46242 8.02535 1.6481 7.94543 1.8634L6.32824 6.32332L1.8634 7.94543C1.6481 8.02535 1.46242 8.16924 1.33129 8.35778C1.20017 8.54631 1.12988 8.77047 1.12988 9.00012C1.12988 9.22977 1.20017 9.45392 1.33129 9.64246C1.46242 9.831 1.6481 9.97489 1.8634 10.0548L6.32332 11.672L7.94543 16.1368C8.02535 16.3521 8.16924 16.5378 8.35778 16.6689C8.54631 16.8001 8.77047 16.8704 9.00012 16.8704C9.22977 16.8704 9.45392 16.8001 9.64246 16.6689C9.831 16.5378 9.97489 16.3521 10.0548 16.1368L11.6769 11.6762L16.1368 10.0548C16.3521 9.97489 16.5378 9.831 16.6689 9.64246C16.8001 9.45392 16.8704 9.22977 16.8704 9.00012C16.8704 8.77047 16.8001 8.54631 16.6689 8.35778C16.5378 8.16924 16.3521 8.02535 16.1368 7.94543ZM11.2902 10.6173C11.1363 10.6735 10.9965 10.7627 10.8806 10.8785C10.7648 10.9944 10.6756 11.1342 10.6194 11.2881L9.00012 15.7431L7.38293 11.2902C7.32675 11.1357 7.23739 10.9954 7.12114 10.8791C7.00488 10.7628 6.86456 10.6735 6.71004 10.6173L2.25715 9.00012L6.71004 7.38293C6.86456 7.32675 7.00488 7.23739 7.12114 7.12114C7.23739 7.00488 7.32675 6.86456 7.38293 6.71004L9.00012 2.25715L10.6173 6.71004C10.6735 6.86395 10.7627 7.00373 10.8785 7.11959C10.9944 7.23545 11.1342 7.32461 11.2881 7.38082L15.741 8.99801L11.2902 10.6173Z" fill="#FFBF00"/>
</svg>
