<svg width="18" height="17" viewBox="0 0 18 17" fill="none" xmlns="http://www.w3.org/2000/svg">
<path d="M9 10.0938C8.83313 10.0938 8.66999 10.047 8.53124 9.95945C8.39249 9.87189 8.28434 9.74744 8.22048 9.60183C8.15662 9.45622 8.13991 9.29599 8.17247 9.14141C8.20502 8.98683 8.28538 8.84484 8.40338 8.7334C8.52138 8.62195 8.67172 8.54606 8.8354 8.51531C8.99907 8.48456 9.16872 8.50035 9.32289 8.56066C9.47707 8.62097 9.60884 8.72311 9.70156 8.85416C9.79427 8.9852 9.84375 9.13927 9.84375 9.29688C9.84375 9.50822 9.75486 9.71091 9.59662 9.86035C9.43839 10.0098 9.22378 10.0938 9 10.0938ZM16.3125 8.5C16.3125 9.86593 15.8836 11.2012 15.0801 12.3369C14.2766 13.4726 13.1346 14.3578 11.7984 14.8805C10.4622 15.4033 8.99189 15.54 7.57341 15.2735C6.15492 15.0071 4.85196 14.3493 3.82928 13.3835C2.80661 12.4176 2.11017 11.187 1.82801 9.84734C1.54586 8.50766 1.69067 7.11904 2.24413 5.85709C2.7976 4.59514 3.73486 3.51653 4.9374 2.75766C6.13993 1.99879 7.55373 1.59375 9 1.59375C10.9388 1.59568 12.7975 2.32393 14.1685 3.61868C15.5394 4.91343 16.3105 6.66894 16.3125 8.5ZM2.8125 8.5V8.52191C4.54017 7.13593 6.73319 6.375 9 6.375C11.2668 6.375 13.4598 7.13593 15.1875 8.52191V8.5C15.1875 6.95014 14.5356 5.46376 13.3752 4.36784C12.2148 3.27193 10.641 2.65625 9 2.65625C7.35898 2.65625 5.78516 3.27193 4.62478 4.36784C3.4644 5.46376 2.8125 6.95014 2.8125 8.5ZM7.5586 14.183L6.35977 11.1562H3.48961C3.89733 11.9076 4.47193 12.5669 5.17416 13.0893C5.87639 13.6116 6.68972 13.9847 7.5586 14.183ZM9 14.3438C9.05836 14.3438 9.11672 14.3438 9.17508 14.3438L10.5863 10.7864C10.6672 10.5839 10.8115 10.4095 10.9999 10.2863C11.1882 10.1631 11.4118 10.0968 11.6409 10.0964H14.9541C14.9808 10.0094 15.0047 9.92109 15.0244 9.83078C14.2388 9.07381 13.3012 8.47247 12.2666 8.06194C11.2319 7.65142 10.1209 7.43996 8.9986 7.43996C7.87632 7.43996 6.76532 7.65142 5.73064 8.06194C4.69595 8.47247 3.75838 9.07381 2.97282 9.83078C2.99461 9.91977 3.01852 10.0081 3.04313 10.0964H6.35977C6.58897 10.097 6.81257 10.1634 7.00092 10.2867C7.18928 10.41 7.3335 10.5845 7.41446 10.787L8.82071 14.3438C8.88118 14.3438 8.94024 14.3438 9 14.3438ZM14.5104 11.1562H11.6402L10.4386 14.1837C11.3081 13.9857 12.122 13.6127 12.8248 13.0902C13.5275 12.5677 14.1025 11.908 14.5104 11.1562Z" fill="black"/>
</svg>
