<svg width="28" height="27" viewBox="0 0 28 27" fill="none" xmlns="http://www.w3.org/2000/svg">
<path d="M27.3696 9.9656C27.2508 9.59951 27.027 9.27645 26.7259 9.03665C26.4249 8.79686 26.0599 8.65093 25.6766 8.61704L18.3956 7.98935L15.5415 1.20242C15.3929 0.846301 15.1423 0.542105 14.8212 0.328138C14.5001 0.114171 14.1228 0 13.7369 0C13.351 0 12.9738 0.114171 12.6527 0.328138C12.3315 0.542105 12.0809 0.846301 11.9323 1.20242L9.08685 7.98935L1.79729 8.62072C1.41238 8.65306 1.04559 8.79833 0.742909 9.0383C0.44023 9.27827 0.21514 9.60227 0.0958631 9.96965C-0.0234135 10.337 -0.0315662 10.7315 0.0724276 11.1035C0.176421 11.4755 0.387932 11.8085 0.680436 12.0608L6.21075 16.8935L4.55325 24.0703C4.4656 24.4458 4.49061 24.8389 4.62515 25.2003C4.75968 25.5618 4.99778 25.8755 5.30966 26.1024C5.62154 26.3292 5.99338 26.4591 6.37867 26.4758C6.76397 26.4924 7.14563 26.3952 7.47594 26.1961L13.7283 22.3956L19.9942 26.1961C20.3245 26.3952 20.7062 26.4924 21.0915 26.4758C21.4768 26.4591 21.8486 26.3292 22.1605 26.1024C22.4724 25.8755 22.7105 25.5618 22.845 25.2003C22.9796 24.8389 23.0046 24.4458 22.9169 24.0703L21.2606 16.8862L26.7897 12.0608C27.0822 11.8076 27.2933 11.4737 27.3965 11.1009C27.4997 10.7281 27.4903 10.3331 27.3696 9.9656ZM25.5037 10.5786L19.9746 15.404C19.7055 15.638 19.5053 15.9411 19.3956 16.2804C19.2859 16.6198 19.2707 16.9826 19.3518 17.3299L21.013 24.519L14.752 20.7185C14.4466 20.5325 14.0958 20.4341 13.7382 20.4341C13.3805 20.4341 13.0297 20.5325 12.7243 20.7185L6.47188 24.519L8.12202 17.3349C8.20312 16.9875 8.18799 16.6247 8.07825 16.2853C7.96852 15.946 7.76833 15.6429 7.49923 15.4089L1.9677 10.5859C1.96725 10.5823 1.96725 10.5786 1.9677 10.5749L9.25481 9.94476C9.61059 9.9134 9.95105 9.78549 10.2395 9.57485C10.5279 9.3642 10.7533 9.07881 10.8915 8.74944L13.7369 1.9711L16.5812 8.74944C16.7193 9.07881 16.9447 9.3642 17.2332 9.57485C17.5216 9.78549 17.862 9.9134 18.2178 9.94476L25.5062 10.5749C25.5062 10.5749 25.5062 10.5823 25.5062 10.5835L25.5037 10.5786Z" fill="#FFBF00"/>
<path d="M25.5037 10.5786L19.9746 15.404C19.7055 15.638 19.5053 15.9411 19.3956 16.2804C19.2859 16.6198 19.2707 16.9826 19.3518 17.3299L21.013 24.519L14.752 20.7185C14.4466 20.5325 14.0958 20.4341 13.7382 20.4341C13.3805 20.4341 13.0297 20.5325 12.7243 20.7185L6.47188 24.519L8.12202 17.3349C8.20312 16.9875 8.18799 16.6247 8.07825 16.2853C7.96852 15.946 7.76833 15.6429 7.49923 15.4089L1.9677 10.5859C1.96725 10.5823 1.96725 10.5786 1.9677 10.5749L9.25481 9.94476C9.61059 9.9134 9.95105 9.78549 10.2395 9.57485C10.5279 9.3642 10.7533 9.07881 10.8915 8.74944L13.7369 1.9711L16.5812 8.74944C16.7193 9.07881 16.9447 9.3642 17.2332 9.57485C17.5216 9.78549 17.862 9.9134 18.2178 9.94476L25.5062 10.5749C25.5062 10.5749 25.5062 10.5823 25.5062 10.5835L25.5037 10.5786Z" fill="#FFBF00"/>
</svg>
