<svg width="22" height="21" viewBox="0 0 22 21" fill="none" xmlns="http://www.w3.org/2000/svg">
<path d="M21.6676 7.88943C21.5736 7.59961 21.3964 7.34385 21.158 7.15402C20.9197 6.96418 20.6308 6.84865 20.3273 6.82182L14.5632 6.3249L12.3037 0.951918C12.1861 0.669989 11.9877 0.429167 11.7334 0.259776C11.4792 0.0903857 11.1806 0 10.8751 0C10.5696 0 10.2709 0.0903857 10.0167 0.259776C9.76247 0.429167 9.56405 0.669989 9.44641 0.951918L7.19376 6.3249L1.42285 6.82473C1.11813 6.85034 0.827756 6.96534 0.588136 7.15532C0.348516 7.3453 0.170319 7.60179 0.0758916 7.89264C-0.0185357 8.18349 -0.0249899 8.49574 0.0573385 8.79025C0.139667 9.08475 0.307113 9.34839 0.538678 9.5481L4.91684 13.374L3.60465 19.0556C3.53527 19.353 3.55507 19.6641 3.66157 19.9503C3.76808 20.2364 3.95657 20.4848 4.20348 20.6644C4.45039 20.844 4.74476 20.9468 5.04978 20.96C5.35481 20.9732 5.65696 20.8962 5.91845 20.7386L10.8683 17.7299L15.8288 20.7386C16.0903 20.8962 16.3924 20.9732 16.6974 20.96C17.0025 20.9468 17.2968 20.844 17.5437 20.6644C17.7906 20.4848 17.9791 20.2364 18.0856 19.9503C18.1921 19.6641 18.2119 19.353 18.1426 19.0556L16.8313 13.3682L21.2085 9.5481C21.4401 9.3477 21.6072 9.08331 21.6889 8.78818C21.7706 8.49305 21.7632 8.18036 21.6676 7.88943ZM20.1904 8.37471L15.8132 12.1948C15.6002 12.3801 15.4417 12.62 15.3548 12.8887C15.268 13.1573 15.256 13.4446 15.3202 13.7195L16.6353 19.4109L11.6787 16.4021C11.4369 16.2549 11.1592 16.177 10.876 16.177C10.5929 16.177 10.3152 16.2549 10.0734 16.4021L5.12357 19.4109L6.42993 13.7234C6.49413 13.4485 6.48215 13.1612 6.39528 12.8925C6.30841 12.6239 6.14993 12.384 5.93689 12.1987L1.55776 8.38053C1.5574 8.37763 1.5574 8.3747 1.55776 8.37179L7.32672 7.87293C7.60838 7.8481 7.87791 7.74685 8.10625 7.58009C8.33458 7.41332 8.51305 7.18739 8.62241 6.92664L10.8751 1.56046L13.1267 6.92664C13.2361 7.18739 13.4146 7.41332 13.6429 7.58009C13.8712 7.74685 14.1408 7.8481 14.4224 7.87293L20.1924 8.37179C20.1924 8.37179 20.1924 8.37762 20.1924 8.37859L20.1904 8.37471Z" fill="#FFBF00"/>
<path d="M20.1904 8.37471L15.8132 12.1948C15.6002 12.3801 15.4417 12.62 15.3548 12.8887C15.268 13.1573 15.256 13.4446 15.3202 13.7195L16.6353 19.4109L11.6787 16.4021C11.4369 16.2549 11.1592 16.177 10.876 16.177C10.5929 16.177 10.3152 16.2549 10.0734 16.4021L5.12357 19.4109L6.42993 13.7234C6.49413 13.4485 6.48215 13.1612 6.39528 12.8925C6.30841 12.6239 6.14993 12.384 5.93689 12.1987L1.55776 8.38053C1.5574 8.37763 1.5574 8.3747 1.55776 8.37179L7.32672 7.87293C7.60838 7.8481 7.87791 7.74685 8.10625 7.58009C8.33458 7.41332 8.51305 7.18739 8.62241 6.92664L10.8751 1.56046L13.1267 6.92664C13.2361 7.18739 13.4146 7.41332 13.6429 7.58009C13.8712 7.74685 14.1408 7.8481 14.4224 7.87293L20.1924 8.37179C20.1924 8.37179 20.1924 8.37762 20.1924 8.37859L20.1904 8.37471Z" fill="#FFBF00"/>
</svg>
