<svg width="29" height="28" viewBox="0 0 29 28" fill="none" xmlns="http://www.w3.org/2000/svg">
<path d="M24.2329 23.0365C24.3146 23.1213 24.3781 23.2208 24.4197 23.3294C24.4612 23.4381 24.4801 23.5536 24.4751 23.6692C24.4701 23.7849 24.4413 23.8985 24.3905 24.0034C24.3397 24.1083 24.2678 24.2024 24.1791 24.2803C24.0903 24.3581 23.9865 24.4182 23.8735 24.4571C23.7605 24.4959 23.6407 24.5127 23.5209 24.5065C23.4012 24.5002 23.2839 24.4711 23.1759 24.4208C23.0679 24.3705 22.9713 24.3 22.8917 24.2134L17.001 17.9626C15.9358 17.5545 14.7809 17.4131 13.6439 17.5516C12.5069 17.69 11.4245 18.1038 10.4976 18.7545C10.4016 18.8245 10.292 18.8754 10.1754 18.9042C10.0588 18.9329 9.93747 18.939 9.81842 18.922C9.69937 18.9049 9.58502 18.8652 9.48206 18.8051C9.37909 18.7449 9.28956 18.6656 9.21869 18.5716C9.14782 18.4777 9.09704 18.3711 9.06931 18.258C9.04157 18.145 9.03744 18.0277 9.05716 17.9131C9.07687 17.7985 9.12003 17.6888 9.18412 17.5904C9.24822 17.4921 9.33196 17.407 9.43045 17.3403C10.9014 16.3018 12.6776 15.7446 14.4998 15.75C14.6448 15.75 14.7887 15.75 14.9325 15.7609L11.883 12.5223C10.0677 12.9068 8.36698 13.6856 6.90995 14.7995C6.81651 14.8713 6.70929 14.9246 6.59444 14.9563C6.4796 14.988 6.35939 14.9975 6.24075 14.9842C6.1221 14.9708 6.00735 14.935 5.9031 14.8787C5.79884 14.8224 5.70714 14.7468 5.63327 14.6562C5.4839 14.4748 5.41516 14.2436 5.44213 14.0133C5.4691 13.7831 5.58958 13.5725 5.77713 13.4279C7.18171 12.3552 8.78537 11.5512 10.5021 11.0589L7.85811 8.24683C6.20799 8.89391 4.66912 9.77899 3.29401 10.8718C3.20178 10.9448 3.09556 10.9995 2.98143 11.0328C2.8673 11.0662 2.74748 11.0775 2.62883 11.0661C2.51017 11.0547 2.395 11.0209 2.28988 10.9665C2.18477 10.9122 2.09177 10.8384 2.0162 10.7493C1.94062 10.6603 1.88396 10.5577 1.84944 10.4475C1.81491 10.3373 1.80321 10.2216 1.81499 10.1071C1.83878 9.87571 1.9568 9.66294 2.14307 9.51558C3.48974 8.44818 4.97871 7.56015 6.5701 6.87526L4.76666 4.96339C4.68495 4.87864 4.62147 4.77907 4.57991 4.67046C4.53834 4.56185 4.51952 4.44635 4.52452 4.33066C4.52953 4.21497 4.55827 4.10139 4.60907 3.99651C4.65987 3.89162 4.73173 3.79751 4.82048 3.71964C4.90924 3.64177 5.01311 3.58167 5.12609 3.54285C5.23908 3.50402 5.35891 3.48723 5.47867 3.49345C5.59842 3.49967 5.7157 3.52878 5.82371 3.57908C5.93173 3.62939 6.02833 3.6999 6.10791 3.78651L24.2329 23.0365ZM14.4998 21C14.2309 21 13.9681 21.0769 13.7446 21.2211C13.521 21.3654 13.3468 21.5704 13.2439 21.8102C13.141 22.05 13.1141 22.3139 13.1665 22.5685C13.219 22.8231 13.3485 23.057 13.5386 23.2405C13.7287 23.4241 13.9709 23.5491 14.2346 23.5997C14.4983 23.6504 14.7716 23.6244 15.02 23.525C15.2684 23.4257 15.4807 23.2575 15.6301 23.0416C15.7794 22.8258 15.8592 22.572 15.8592 22.3125C15.8592 21.9644 15.7159 21.6305 15.461 21.3844C15.2061 21.1382 14.8603 21 14.4998 21ZM26.8565 9.51558C24.8015 7.89062 22.4246 6.68775 19.8714 5.98061C17.3181 5.27348 14.6423 5.07695 12.0076 5.40308C11.8874 5.41492 11.7709 5.44985 11.6649 5.50581C11.5589 5.56176 11.4655 5.63762 11.3903 5.72892C11.3151 5.82021 11.2596 5.92511 11.227 6.03743C11.1944 6.14975 11.1854 6.26723 11.2005 6.38296C11.2156 6.49869 11.2545 6.61034 11.315 6.71134C11.3754 6.81234 11.4562 6.90064 11.5525 6.97107C11.6488 7.0415 11.7587 7.09262 11.8758 7.12144C11.9928 7.15025 12.1147 7.15617 12.2342 7.13886C12.9856 7.04641 13.7423 7.00001 14.4998 6.99995C18.5855 7.00211 22.5447 8.36894 25.7056 10.8685C25.8914 11.0159 26.1302 11.086 26.3696 11.0633C26.6089 11.0406 26.8291 10.9271 26.9817 10.7477C27.1343 10.5683 27.2069 10.3377 27.1834 10.1066C27.1599 9.87553 27.0423 9.66294 26.8565 9.51558ZM22.0896 14.7995C22.1829 14.8709 22.2898 14.9238 22.4043 14.9553C22.5188 14.9868 22.6385 14.9962 22.7568 14.983C22.875 14.9698 22.9894 14.9343 23.0934 14.8784C23.1974 14.8225 23.289 14.7474 23.3629 14.6573C23.4369 14.5672 23.4917 14.464 23.5243 14.3535C23.557 14.243 23.5667 14.1273 23.553 14.0132C23.5394 13.899 23.5025 13.7886 23.4446 13.6881C23.3867 13.5877 23.3089 13.4993 23.2156 13.4279C21.5017 12.1183 19.4953 11.212 17.3556 10.781C17.2378 10.7549 17.1159 10.7518 16.9968 10.7718C16.8778 10.7918 16.7641 10.8347 16.6624 10.8978C16.5608 10.9609 16.4732 11.0429 16.4049 11.1392C16.3366 11.2354 16.289 11.3439 16.2647 11.4582C16.2405 11.5725 16.2401 11.6903 16.2637 11.8047C16.2873 11.9192 16.3344 12.0279 16.4022 12.1245C16.4699 12.2211 16.557 12.3036 16.6583 12.3672C16.7596 12.4309 16.873 12.4743 16.992 12.495C18.8535 12.8706 20.5988 13.6596 22.0896 14.7995Z" fill="#BB88FF"/>
</svg>
