<svg width="34" height="34" viewBox="0 0 34 34" fill="none" xmlns="http://www.w3.org/2000/svg">
<path d="M28.6875 11.6875H22.3125V5.3125C22.3125 4.74891 22.0886 4.20841 21.6901 3.8099C21.2916 3.41138 20.7511 3.1875 20.1875 3.1875H13.8125C13.2489 3.1875 12.7084 3.41138 12.3099 3.8099C11.9114 4.20841 11.6875 4.74891 11.6875 5.3125V11.6875H5.3125C4.74891 11.6875 4.20841 11.9114 3.8099 12.3099C3.41138 12.7084 3.1875 13.2489 3.1875 13.8125V20.1875C3.1875 20.7511 3.41138 21.2916 3.8099 21.6901C4.20841 22.0886 4.74891 22.3125 5.3125 22.3125H11.6875V28.6875C11.6875 29.2511 11.9114 29.7916 12.3099 30.1901C12.7084 30.5886 13.2489 30.8125 13.8125 30.8125H20.1875C20.7511 30.8125 21.2916 30.5886 21.6901 30.1901C22.0886 29.7916 22.3125 29.2511 22.3125 28.6875V22.3125H28.6875C29.2511 22.3125 29.7916 22.0886 30.1901 21.6901C30.5886 21.2916 30.8125 20.7511 30.8125 20.1875V13.8125C30.8125 13.2489 30.5886 12.7084 30.1901 12.3099C29.7916 11.9114 29.2511 11.6875 28.6875 11.6875ZM28.6875 20.1875H21.25C20.9682 20.1875 20.698 20.2994 20.4987 20.4987C20.2994 20.698 20.1875 20.9682 20.1875 21.25V28.6875H13.8125V21.25C13.8125 20.9682 13.7006 20.698 13.5013 20.4987C13.302 20.2994 13.0318 20.1875 12.75 20.1875H5.3125V13.8125H12.75C13.0318 13.8125 13.302 13.7006 13.5013 13.5013C13.7006 13.302 13.8125 13.0318 13.8125 12.75V5.3125H20.1875V12.75C20.1875 13.0318 20.2994 13.302 20.4987 13.5013C20.698 13.7006 20.9682 13.8125 21.25 13.8125H28.6875V20.1875Z" fill="#19C595"/>
</svg>
