<svg width="390" height="109" viewBox="0 0 390 109" fill="none" xmlns="http://www.w3.org/2000/svg">
<g opacity="0.4" clip-path="url(#clip0_41_3188)">
<g clip-path="url(#clip1_41_3188)">
<path fill-rule="evenodd" clip-rule="evenodd" d="M250.024 60.9062L250.026 60.9053L253.076 60.0297C253.078 60.0292 253.081 60.0283 253.083 60.0279C253.087 60.027 253.091 60.0261 253.096 60.0248L269.127 55.4216C269.377 55.3499 269.574 55.1575 269.653 54.9103C269.733 54.6631 269.684 54.3918 269.522 54.187L260.274 42.4839L260.626 39.2896C260.673 38.8608 260.364 38.4758 259.936 38.4279C259.508 38.3805 259.124 38.6899 259.076 39.1176L258.898 40.7417L257.885 39.4597C257.618 39.1217 257.127 39.0636 256.789 39.3308C256.452 39.5983 256.396 40.0888 256.663 40.4269L258.132 42.2872L244.336 46.2482L244.595 43.8924C244.642 43.4638 244.333 43.0787 243.906 43.0307C243.478 42.9833 243.092 43.2925 243.046 43.7209L242.868 45.3445L241.854 44.0626C241.587 43.7245 241.097 43.6665 240.759 43.9336C240.423 44.201 240.365 44.6915 240.632 45.03L242.625 47.5514L240.995 62.3782C240.966 62.637 241.069 62.8927 241.267 63.0606L241.267 63.061C241.466 63.2281 241.735 63.2864 241.985 63.2147L245.054 62.3333L245.057 62.3324L250.024 60.9062ZM245.371 54.0627C245.067 54.15 244.846 54.4123 244.812 54.7268L244.124 60.9761L242.671 61.3935L244.001 49.2938L251.547 58.8445L250.094 59.2618L246.197 54.329C246.001 54.0805 245.675 53.9754 245.371 54.0627ZM245.744 60.5107L246.153 56.7881L248.475 59.7268L245.744 60.5107ZM253.167 58.3795L267.578 54.2417L259.178 43.6106L244.767 47.7483L253.167 58.3795Z" fill="#663FCD" fill-opacity="0.52"/>
<path fill-rule="evenodd" clip-rule="evenodd" d="M301.993 30.7558C301.381 30.9636 301.044 31.6196 301.233 32.2373L302.101 35.0815C302.397 36.0503 303.435 36.5824 304.395 36.2565L311.119 33.9724C312.078 33.6467 312.577 32.5922 312.222 31.6437L311.178 28.8593C310.951 28.2545 310.285 27.9391 309.673 28.1469L301.993 30.7558ZM302.377 31.8885L310.058 29.2795L311.102 32.0635C311.22 32.3795 311.054 32.7312 310.734 32.8398L304.01 35.1239C303.69 35.2325 303.343 35.055 303.245 34.7322L302.377 31.8885Z" fill="#663FCD"/>
<path fill-rule="evenodd" clip-rule="evenodd" d="M298.975 18.5601C298.596 17.4428 299.194 16.2297 300.311 15.8503L301.929 15.3006C303.046 14.9212 304.259 15.5191 304.639 16.6364C304.737 16.927 305.053 17.0821 305.343 16.9834L307.082 16.3927C308.959 15.7551 310.997 16.7598 311.635 18.6362L312.597 21.468C312.621 21.5394 312.641 21.6111 312.655 21.6833C313.48 21.8155 314.177 22.3683 314.493 23.1444L316.983 29.2686C317.6 30.7871 316.879 32.5032 315.399 33.14C315.221 34.6969 314.173 36.0935 312.585 36.6329L304.853 39.2592C303.265 39.7989 301.582 39.3299 300.493 38.2035C298.932 38.5993 297.314 37.6781 296.879 36.0976L295.124 29.7236C294.901 28.9161 295.118 28.0526 295.691 27.4457C295.659 27.3794 295.631 27.3106 295.607 27.2393L294.645 24.4075C294.007 22.531 295.012 20.4929 296.889 19.8553L298.628 19.2644C298.918 19.1658 299.074 18.8506 298.975 18.5601ZM303.506 17.0212C303.568 17.2047 303.658 17.3715 303.77 17.518L300.202 18.7301C300.2 18.5461 300.17 18.3589 300.108 18.1754C299.941 17.6839 300.204 17.1499 300.695 16.983L302.314 16.4333C302.805 16.2663 303.339 16.5297 303.506 17.0212ZM295.777 24.0229C295.352 22.7719 296.022 21.4131 297.273 20.9881L307.467 17.5253C308.718 17.1004 310.077 17.7702 310.502 19.0211L311.464 21.8529C311.57 22.1656 311.403 22.5055 311.09 22.6117L309.391 23.1889L309.006 22.0562C308.794 21.4304 308.114 21.0959 307.489 21.3083L306.923 21.5008C306.297 21.7132 305.962 22.3923 306.174 23.0182L306.559 24.1508L302.029 25.6898L301.644 24.5571C301.431 23.9313 300.752 23.5967 300.127 23.8092L299.56 24.0017C298.934 24.2141 298.599 24.8932 298.812 25.519L299.197 26.6517L297.498 27.2289C297.185 27.3351 296.845 27.1674 296.739 26.8546L295.777 24.0229ZM315.334 31.7966C315.935 31.3153 316.183 30.476 315.875 29.7189L315.012 27.5967L313.953 27.9563L315.162 31.2092C315.235 31.4036 315.291 31.5999 315.334 31.7966ZM313.384 23.5952L314.561 26.4866L313.535 26.8348L312.21 23.27C312.322 23.1495 312.417 23.0142 312.492 22.8689C312.893 22.9424 313.23 23.2155 313.384 23.5952ZM299.505 36.5279C299.566 36.7259 299.64 36.9163 299.727 37.0981C298.956 37.0829 298.249 36.5681 298.032 35.7798L297.424 33.571L298.483 33.2113L299.505 36.5279ZM298.13 32.0676L297.011 28.433C296.848 28.4054 296.691 28.3561 296.543 28.2865C296.27 28.5889 296.168 29.0112 296.277 29.4063L297.106 32.4157L298.13 32.0676ZM298.207 28.2518L300.648 36.176C301.144 37.7861 302.873 38.6687 304.468 38.1267L312.2 35.5004C313.795 34.9584 314.628 33.2058 314.041 31.6266L311.151 23.8548L309.776 24.3219L310.161 25.4545C310.373 26.08 310.038 26.7595 309.413 26.9719L308.846 27.1643C308.221 27.3768 307.541 27.0419 307.329 26.4164L306.944 25.2838L302.413 26.8229L302.798 27.9555C303.01 28.581 302.676 29.2603 302.05 29.4729L301.484 29.6652C300.858 29.8778 300.179 29.5428 299.966 28.9173L299.582 27.7847L298.207 28.2518ZM301.099 28.5326L299.945 25.1343L300.511 24.9418L301.666 28.3401L301.099 28.5326ZM307.307 22.6333L307.874 22.4408L309.028 25.8391L308.462 26.0316L307.307 22.6333Z" fill="#663FCD"/>
<path d="M328.163 87.5369C327.772 86.3975 326.956 85.4898 325.887 84.979C324.819 84.4676 323.578 84.4044 322.471 84.7879C321.527 85.1353 320.712 85.7602 320.183 86.5944C315.253 84.3567 315.071 76.8322 315.089 76.7601C315.078 76.5583 314.969 76.3779 314.771 76.2519C314.579 76.1583 314.378 76.1695 314.197 76.2777L298.013 86.198C297.807 86.3459 297.696 86.6096 297.754 86.8688C297.79 87.0313 299.032 91.2176 301.627 95.2044C305.114 100.593 309.435 103.001 314.087 102.166C314.321 102.147 314.516 102.104 314.743 102.053C315.62 101.857 316.43 101.37 317.029 100.69L317.053 100.651L327.846 91.1513C327.903 91.1045 327.954 91.0248 327.979 90.9851C328.483 89.8846 328.554 88.6762 328.163 87.5369H328.163ZM313.995 100.994L313.93 101.008C304.698 102.697 299.874 89.4966 299.034 86.9583L313.957 77.7965C314.048 78.6619 314.248 80.0146 314.704 81.4461C315.624 84.3416 317.21 86.4065 319.329 87.5008L311.135 94.4432C310.929 94.5915 310.731 94.7719 310.572 94.9777C309.809 95.8297 309.449 96.9664 309.501 98.1137C309.534 98.413 309.754 98.6366 310.068 98.6682L313.874 98.772C314.18 98.772 314.469 98.5368 314.461 98.1979C314.461 97.8915 314.226 97.6028 313.887 97.6104L310.662 97.5133C310.719 96.8528 310.992 96.2466 311.425 95.7411C311.997 95.1019 312.765 94.726 313.606 94.6744C315.352 94.5572 316.843 95.8938 316.96 97.6394C317.004 98.4473 316.767 99.2156 316.259 99.8405L315.491 100.523C315.009 100.802 314.504 100.983 313.995 100.994ZM326.987 90.3558L318.075 98.2081C318.097 97.9988 318.086 97.797 318.075 97.5948C317.991 96.455 317.477 95.3772 316.625 94.6133C315.866 93.9653 314.964 93.5876 313.965 93.5382L320.75 87.7622C320.808 87.7155 320.858 87.6358 320.909 87.5565C321.308 86.7516 321.96 86.1628 322.815 85.8697C323.637 85.5838 324.564 85.615 325.337 86.0221C326.134 86.3891 326.73 87.0737 327.023 87.9284C327.335 88.71 327.321 89.5652 326.987 90.3558Z" fill="#663FCD"/>
<path d="M308.81 93.8037C308.882 93.822 308.947 93.8073 309.012 93.7926C309.239 93.7418 309.437 93.5614 309.452 93.3196L309.709 91.7286L311.315 92.0515C311.387 92.0693 311.492 92.08 311.557 92.0658C311.784 92.015 311.949 91.8417 312.003 91.6248C312.068 91.3037 311.866 91.0084 311.545 90.9438L309.899 90.5955L310.032 89.8165C310.096 89.4954 309.861 89.2068 309.54 89.1426C309.219 89.0781 308.93 89.3128 308.866 89.6339L308.751 90.3412L306.425 89.8388L306.833 87.7031L311.682 88.6638L311.715 88.6567L311.747 88.6496L315.745 89.4602C315.817 89.478 315.921 89.4887 315.986 89.4745C316.214 89.4237 316.379 89.2504 316.433 89.0335C316.498 88.7124 316.296 88.4166 315.974 88.3525L312.547 87.6532L313.695 82.4216C313.759 82.1005 313.557 81.8047 313.268 81.733C312.947 81.6684 312.651 81.8706 312.58 82.1593L312.142 84.1653L310.021 83.8215C309.7 83.7573 309.411 83.9921 309.347 84.3132C309.282 84.6343 309.517 84.9225 309.838 84.9871L311.895 85.3452L311.414 87.463L302.776 85.7131C302.455 85.6485 302.16 85.8507 302.095 86.1718C302.03 86.493 302.233 86.7883 302.554 86.8528L305.693 87.4804L305.173 90.1862L304.693 92.6109C304.628 92.9321 304.83 93.2274 305.151 93.2919C305.223 93.3098 305.321 93.2879 305.386 93.2737C305.613 93.2229 305.779 93.0497 305.833 92.8327L306.202 90.9781L308.594 91.4663L308.318 93.1294C308.286 93.4438 308.489 93.7396 308.81 93.8042V93.8037Z" fill="#663FCD"/>
<path fill-rule="evenodd" clip-rule="evenodd" d="M275.862 15.1727L273.533 14.8103L275.261 11.3734L275.862 15.1727ZM273.318 16.1977L273.919 19.9962L275.646 16.5595L273.317 16.1967L273.318 16.1977ZM274.985 8.79811L271.848 15.0406C271.781 15.1718 271.758 15.3205 271.781 15.4657L272.875 22.3681C272.906 22.5647 273.019 22.739 273.186 22.8473C273.353 22.9556 273.559 22.9876 273.751 22.9355C273.943 22.8835 274.104 22.752 274.193 22.5742L277.332 16.3292C277.398 16.1982 277.422 16.0494 277.399 15.9043L276.305 9.00179C276.274 8.80488 276.16 8.63033 275.993 8.5221C275.825 8.4136 275.62 8.38175 275.427 8.43413C275.235 8.48678 275.074 8.61862 274.985 8.79695L274.985 8.79811ZM284.374 16.4959C284.552 14.3824 284.04 12.2681 282.913 10.4713L282.269 10.9423C282.067 11.0901 281.801 11.1188 281.572 11.0174C281.342 10.9161 281.185 10.7004 281.158 10.4512C281.131 10.202 281.239 9.95743 281.441 9.80965L282.086 9.33869C280.716 7.71936 278.857 6.58885 276.789 6.11731L276.76 6.29734L276.76 6.29739C276.731 6.48129 276.631 6.64631 276.48 6.75619C276.33 6.86527 276.143 6.91021 275.959 6.8813C275.776 6.85231 275.611 6.75182 275.502 6.6019C275.392 6.45194 275.347 6.26456 275.375 6.08115L275.402 5.90245L275.402 5.90232C273.289 5.72287 271.174 6.23525 269.377 7.36242L269.847 8.00566C269.995 8.208 270.024 8.47395 269.922 8.7032C269.821 8.93253 269.605 9.09025 269.356 9.11715C269.107 9.14418 268.862 9.03595 268.714 8.83361L268.244 8.19037C266.624 9.56018 265.494 11.4191 265.023 13.4871L265.201 13.5154L265.201 13.5155C265.449 13.5537 265.657 13.7211 265.748 13.9545C265.838 14.1882 265.797 14.452 265.641 14.6473C265.484 14.8425 265.235 14.9392 264.987 14.901L264.807 14.8741L264.807 14.8739C264.628 16.9874 265.14 19.1019 266.267 20.8988L266.912 20.4279C267.114 20.2801 267.38 20.2514 267.609 20.3527C267.838 20.454 267.996 20.6698 268.023 20.9189C268.05 21.1682 267.941 21.4127 267.739 21.5605L267.095 22.0315C268.465 23.6508 270.323 24.7813 272.391 25.2525L272.421 25.0726L272.42 25.0727C272.459 24.8253 272.627 24.6174 272.861 24.5271C273.094 24.4369 273.358 24.4782 273.553 24.6354C273.748 24.7927 273.844 25.0419 273.806 25.2893L273.778 25.4679C275.892 25.647 278.006 25.1345 279.803 24.0076L279.333 23.3644C279.185 23.162 279.157 22.8961 279.258 22.6669C279.359 22.4375 279.575 22.2798 279.824 22.2529C280.074 22.2259 280.318 22.3341 280.466 22.5365L280.936 23.1797C282.556 21.8098 283.686 19.9507 284.158 17.8827L283.979 17.8546C283.732 17.8163 283.523 17.6489 283.433 17.4155C283.342 17.1819 283.383 16.918 283.54 16.7227C283.697 16.5275 283.946 16.4309 284.193 16.469L284.374 16.4958V16.4959ZM267.968 6.62275C265.564 8.37913 263.957 11.0185 263.5 13.9598C263.042 16.9012 263.772 19.904 265.528 22.3072C267.284 24.7104 269.924 26.3178 272.865 26.7751C275.806 27.2326 278.809 26.5029 281.213 24.7466C283.616 22.9904 285.223 20.3509 285.68 17.4096C286.138 14.4682 285.408 11.4654 283.652 9.06219C281.894 6.66163 279.255 5.05678 276.314 4.59904C273.374 4.14184 270.372 4.86967 267.967 6.6227L267.968 6.62275Z" fill="#663FCD"/>
<path d="M275.397 80.8906C277.075 78.4098 276.423 75.0274 273.942 73.3487C271.667 71.809 263.018 71.2652 262.039 71.2077C261.603 71.1819 261.256 71.6954 261.442 72.0901C261.859 72.9777 265.579 80.8042 267.855 82.344C270.336 84.0231 273.718 83.3711 275.397 80.8906ZM263.023 72.5172C266.089 72.7501 271.755 73.3661 273.248 74.3758C275.163 75.6719 275.665 78.2815 274.37 80.1954C273.074 82.1097 270.465 82.6143 268.55 81.3182C267.057 80.3081 264.38 75.2778 263.024 72.5172H263.023Z" fill="#663FCD"/>
<path d="M272.782 79.1175C273.519 78.0285 273.232 76.5427 272.141 75.8047C271.261 75.2087 268.422 74.9994 267.574 74.95C267.354 74.9361 267.146 75.0399 267.024 75.2208C266.901 75.4011 266.883 75.6323 266.975 75.8318C267.336 76.6015 268.585 79.1625 269.465 79.7585C270.556 80.4969 272.043 80.2092 272.782 79.1175ZM268.575 76.2728C269.863 76.4002 271.125 76.6135 271.447 76.8309C271.971 77.1854 272.109 77.8994 271.755 78.4227C271.399 78.9483 270.684 79.0868 270.16 78.7323C269.839 78.5149 269.172 77.4215 268.575 76.2728Z" fill="#663FCD"/>
<path d="M273.236 92.8184C273.34 93.2144 273.696 93.6985 274.636 94.192C275.757 94.7826 277.655 95.3171 278.291 94.3778C278.317 94.3399 278.379 94.2219 278.396 94.1796C279.011 92.6051 280.404 88.9715 281.827 85.2507C284.753 82.544 287.608 79.9015 288.841 78.7461C288.874 78.714 288.959 78.6143 288.985 78.5755C289.696 77.5253 288.122 75.8207 287.453 75.252C286.645 74.5634 286.063 74.4133 285.657 74.4636C285.493 73.9772 285.039 73.5033 284.263 73.094C283.179 72.5235 281.324 72.0322 280.662 73.0103C280.636 73.049 280.564 73.1862 280.549 73.2303C279.926 74.8159 278.552 78.4058 277.143 82.0808C274.255 84.7545 271.435 87.3663 270.194 88.5315C270.158 88.5627 270.057 88.6811 270.031 88.7208C269.369 89.6989 270.515 91.2364 271.447 92.0319C272.111 92.6015 272.723 92.846 273.235 92.8189M274.456 92.5409C274.465 92.5191 274.476 92.4911 274.485 92.4674C274.693 92.4323 275.229 92.4741 275.967 92.7623C276.736 93.0634 277.175 93.417 277.28 93.5765C277.277 93.5947 277.28 93.6121 277.279 93.6313C277.277 93.6339 277.275 93.6375 277.275 93.6415C277.08 93.6834 276.525 93.6437 275.767 93.3476C275.008 93.0514 274.571 92.704 274.456 92.5409ZM277.773 92.3579C277.133 91.8644 276.165 91.4462 275.308 91.2871C276.478 90.2013 278.067 88.7292 279.773 87.1521C279 89.1639 278.292 91.0106 277.773 92.3579ZM286.913 78.8477C285.855 79.8311 284.407 81.1722 282.829 82.6358C282.158 83.2544 281.467 83.8967 280.773 84.5376C280.711 84.5946 280.649 84.6507 280.587 84.7086C278.86 86.3049 277.147 87.8923 275.748 89.1933C274.92 89.9621 274.2 90.6337 273.672 91.1344C273.483 91.3143 273.312 91.4747 273.174 91.6092C273.025 91.627 272.468 91.3704 271.842 90.697C271.243 90.0521 271.046 89.5229 271.041 89.437C272.012 88.523 273.958 86.7183 276.142 84.6966C276.815 84.0748 277.502 83.4379 278.199 82.7943C278.526 82.4906 278.856 82.1877 279.182 81.8853C280.629 80.5477 282.036 79.2441 283.221 78.1471C283.83 77.5854 284.373 77.079 284.833 76.651C285.266 77.4714 286.121 78.3795 286.913 78.8472L286.913 78.8477ZM287.085 76.6104C287.643 77.2064 287.89 77.7092 287.924 77.9061C287.919 77.9088 287.916 77.9132 287.912 77.9146C287.897 77.9239 287.88 77.927 287.865 77.9368C287.678 77.8976 287.184 77.6219 286.62 77.0171C286.079 76.4412 285.841 75.961 285.796 75.7535C285.814 75.7366 285.837 75.7152 285.854 75.6991C286.048 75.745 286.531 76.0198 287.085 76.6104ZM284.235 75.5161C283.056 76.6113 281.208 78.3221 279.199 80.1803C280.26 77.4059 281.205 74.9393 281.665 73.7327C281.785 73.6548 282.353 73.6419 283.18 73.9612C284.032 74.2917 284.475 74.7135 284.521 74.7834C284.439 74.9896 284.342 75.2373 284.235 75.5161Z" fill="#663FCD"/>
<path d="M301.151 52.9892C301.106 50.7007 299.943 48.5798 298.038 47.3126C296.133 46.0459 293.728 45.7943 291.602 46.6396C289.475 47.485 287.899 49.3196 287.382 51.5497C285.572 52.1265 284.076 53.4163 283.238 55.1217C282.4 56.8272 282.293 58.8003 282.942 60.5859C283.591 62.3715 284.939 63.8154 286.676 64.5838C288.412 65.3525 290.387 65.3792 292.144 64.6586L291.485 70.9609C291.454 71.258 291.583 71.5484 291.824 71.7235C292.066 71.8989 292.382 71.9319 292.655 71.8103C292.927 71.6887 293.113 71.4313 293.145 71.1346L293.804 64.8318C295.374 65.9346 297.328 66.3413 299.208 65.9565C301.087 65.5716 302.726 64.4296 303.737 62.799C304.749 61.168 305.045 59.1922 304.556 57.3363C304.067 55.4803 302.835 53.908 301.151 52.9892ZM297.249 64.3967C296.091 64.2773 295.006 63.7767 294.163 62.9732C294.111 62.9255 294.056 62.8814 293.998 62.8405L294.456 58.46L298.737 56.8437C299.016 56.7381 299.218 56.4918 299.266 56.1974C299.314 55.903 299.201 55.605 298.971 55.4166C298.74 55.2277 298.426 55.1765 298.147 55.2821L294.654 56.6009L295.122 52.1224C295.153 51.8258 295.024 51.5354 294.782 51.3599C294.541 51.1849 294.225 51.1515 293.953 51.2731C293.68 51.3947 293.493 51.6521 293.463 51.9487L292.646 59.757L290.147 58.2489C289.891 58.0939 289.573 58.0872 289.311 58.2311C289.049 58.3749 288.883 58.6475 288.877 58.9464C288.87 59.2457 289.024 59.5249 289.279 59.6799L292.464 61.6067L292.352 62.6766C292.287 62.7046 292.224 62.7367 292.163 62.7723C291.172 63.3843 290.007 63.6498 288.85 63.5268C287.21 63.3562 285.743 62.4334 284.879 61.0286C284.016 59.6238 283.853 57.8975 284.439 56.3559C285.026 54.8144 286.295 53.6332 287.873 53.1589C288.156 53.0738 288.41 52.9157 288.612 52.7006C288.813 52.485 288.953 52.2204 289.019 51.9332C289.414 50.2375 290.613 48.843 292.23 48.2007C293.847 47.558 295.676 47.7495 297.125 48.7125C298.574 49.6754 299.459 51.2882 299.494 53.0284C299.501 53.3215 299.585 53.6074 299.738 53.8577C299.89 54.108 300.106 54.3134 300.363 54.4541C301.813 55.2442 302.813 56.665 303.068 58.2979C303.323 59.9307 302.803 61.5889 301.663 62.7844C300.523 63.9798 298.891 64.5762 297.249 64.3971L297.249 64.3967Z" fill="#663FCD" fill-opacity="0.52"/>
<path fill-rule="evenodd" clip-rule="evenodd" d="M326.899 60.9062L326.902 60.9053L329.951 60.0297C329.954 60.0292 329.956 60.0283 329.958 60.0279C329.962 60.027 329.967 60.0261 329.971 60.0248L346.002 55.4216C346.252 55.3499 346.449 55.1575 346.529 54.9103C346.607 54.6631 346.559 54.3918 346.397 54.187L337.149 42.4839L337.501 39.2896C337.548 38.8608 337.239 38.4758 336.811 38.4279C336.383 38.3805 335.999 38.6899 335.951 39.1176L335.773 40.7417L334.759 39.4597C334.493 39.1217 334.002 39.0636 333.665 39.3308C333.327 39.5983 333.271 40.0888 333.538 40.4269L335.007 42.2872L321.211 46.2482L321.471 43.8924C321.517 43.4638 321.208 43.0787 320.781 43.0307C320.353 42.9833 319.967 43.2925 319.921 43.7209L319.743 45.3445L318.73 44.0626C318.462 43.7245 317.972 43.6665 317.634 43.9336C317.298 44.201 317.24 44.6915 317.507 45.03L319.5 47.5514L317.87 62.3782C317.841 62.637 317.944 62.8927 318.142 63.0606L318.143 63.061C318.341 63.2281 318.61 63.2864 318.86 63.2147L321.929 62.3333L321.932 62.3324L326.899 60.9062ZM322.246 54.0627C321.942 54.15 321.721 54.4123 321.687 54.7268L320.999 60.9761L319.546 61.3935L320.876 49.2938L328.422 58.8445L326.969 59.2618L323.072 54.329C322.876 54.0805 322.55 53.9754 322.246 54.0627ZM322.619 60.5107L323.029 56.7881L325.35 59.7268L322.619 60.5107ZM330.042 58.3795L344.453 54.2417L336.053 43.6106L321.642 47.7483L330.042 58.3795Z" fill="#663FCD" fill-opacity="0.52"/>
<path fill-rule="evenodd" clip-rule="evenodd" d="M378.869 30.7558C378.257 30.9636 377.92 31.6196 378.109 32.2373L378.977 35.0815C379.273 36.0503 380.311 36.5824 381.271 36.2565L387.995 33.9724C388.954 33.6467 389.453 32.5922 389.098 31.6437L388.054 28.8593C387.827 28.2545 387.16 27.9391 386.549 28.1469L378.869 30.7558ZM379.253 31.8885L386.934 29.2795L387.978 32.0635C388.096 32.3795 387.93 32.7312 387.61 32.8398L380.886 35.1239C380.566 35.2325 380.219 35.055 380.121 34.7322L379.253 31.8885Z" fill="#663FCD"/>
<path fill-rule="evenodd" clip-rule="evenodd" d="M375.85 18.5601C375.471 17.4428 376.069 16.2297 377.186 15.8503L378.804 15.3006C379.921 14.9212 381.134 15.5191 381.514 16.6364C381.612 16.927 381.928 17.0821 382.218 16.9834L383.957 16.3927C385.834 15.7551 387.872 16.7598 388.51 18.6362L389.472 21.468C389.496 21.5394 389.516 21.6111 389.53 21.6833C390.355 21.8155 391.052 22.3683 391.368 23.1444L393.858 29.2686C394.476 30.7871 393.754 32.5032 392.274 33.14C392.096 34.6969 391.048 36.0935 389.46 36.6329L381.728 39.2592C380.14 39.7989 378.457 39.3299 377.368 38.2035C375.807 38.5993 374.189 37.6781 373.754 36.0976L371.999 29.7236C371.776 28.9161 371.993 28.0526 372.566 27.4457C372.534 27.3794 372.506 27.3106 372.482 27.2393L371.52 24.4075C370.882 22.531 371.887 20.4929 373.764 19.8553L375.503 19.2644C375.793 19.1658 375.949 18.8506 375.85 18.5601ZM380.381 17.0212C380.443 17.2047 380.533 17.3715 380.645 17.518L377.077 18.7301C377.075 18.5461 377.045 18.3589 376.983 18.1754C376.816 17.6839 377.079 17.1499 377.57 16.983L379.189 16.4333C379.68 16.2663 380.214 16.5297 380.381 17.0212ZM372.652 24.0229C372.227 22.7719 372.897 21.4131 374.148 20.9881L384.342 17.5253C385.593 17.1004 386.952 17.7702 387.377 19.0211L388.339 21.8529C388.445 22.1656 388.278 22.5055 387.965 22.6117L386.266 23.1889L385.881 22.0562C385.669 21.4304 384.989 21.0959 384.364 21.3083L383.798 21.5008C383.172 21.7132 382.837 22.3923 383.049 23.0182L383.434 24.1508L378.904 25.6898L378.519 24.5571C378.306 23.9313 377.627 23.5967 377.002 23.8092L376.435 24.0017C375.809 24.2141 375.474 24.8932 375.687 25.519L376.072 26.6517L374.373 27.2289C374.06 27.3351 373.72 27.1674 373.614 26.8546L372.652 24.0229ZM392.209 31.7966C392.81 31.3153 393.058 30.476 392.75 29.7189L391.887 27.5967L390.828 27.9563L392.037 31.2092C392.11 31.4036 392.166 31.5999 392.209 31.7966ZM390.259 23.5952L391.436 26.4866L390.41 26.8348L389.085 23.27C389.197 23.1495 389.292 23.0142 389.367 22.8689C389.768 22.9424 390.105 23.2155 390.259 23.5952ZM376.38 36.5279C376.441 36.7259 376.515 36.9163 376.602 37.0981C375.831 37.0829 375.124 36.5681 374.907 35.7798L374.299 33.571L375.358 33.2113L376.38 36.5279ZM375.005 32.0676L373.886 28.433C373.723 28.4054 373.566 28.3561 373.418 28.2865C373.145 28.5889 373.043 29.0112 373.152 29.4063L373.981 32.4157L375.005 32.0676ZM375.082 28.2518L377.523 36.176C378.019 37.7861 379.748 38.6687 381.343 38.1267L389.075 35.5004C390.67 34.9584 391.503 33.2058 390.916 31.6266L388.026 23.8548L386.651 24.3219L387.036 25.4545C387.248 26.08 386.913 26.7595 386.288 26.9719L385.721 27.1643C385.096 27.3768 384.416 27.0419 384.204 26.4164L383.819 25.2838L379.288 26.8229L379.673 27.9555C379.885 28.581 379.551 29.2603 378.925 29.4729L378.359 29.6652C377.733 29.8778 377.054 29.5428 376.841 28.9173L376.457 27.7847L375.082 28.2518ZM377.974 28.5326L376.82 25.1343L377.386 24.9418L378.541 28.3401L377.974 28.5326ZM384.182 22.6333L384.749 22.4408L385.903 25.8391L385.337 26.0316L384.182 22.6333Z" fill="#663FCD"/>
<path d="M405.038 87.5369C404.647 86.3975 403.831 85.4898 402.762 84.979C401.694 84.4676 400.453 84.4044 399.346 84.7879C398.402 85.1353 397.587 85.7602 397.058 86.5944C392.128 84.3567 391.946 76.8322 391.964 76.7601C391.953 76.5583 391.844 76.3779 391.646 76.2519C391.454 76.1583 391.253 76.1695 391.072 76.2777L374.888 86.198C374.682 86.3459 374.571 86.6096 374.629 86.8688C374.665 87.0313 375.907 91.2176 378.502 95.2044C381.989 100.593 386.31 103.001 390.962 102.166C391.196 102.147 391.391 102.104 391.618 102.053C392.495 101.857 393.305 101.37 393.904 100.69L393.928 100.651L404.721 91.1513C404.778 91.1045 404.829 91.0248 404.854 90.9851C405.358 89.8846 405.429 88.6762 405.038 87.5369H405.038ZM390.87 100.994L390.805 101.008C381.573 102.697 376.749 89.4966 375.909 86.9583L390.832 77.7965C390.923 78.6619 391.123 80.0146 391.579 81.4461C392.499 84.3416 394.085 86.4065 396.204 87.5008L388.01 94.4432C387.804 94.5915 387.606 94.7719 387.447 94.9777C386.684 95.8297 386.324 96.9664 386.376 98.1137C386.409 98.413 386.629 98.6366 386.943 98.6682L390.749 98.772C391.055 98.772 391.344 98.5368 391.336 98.1979C391.336 97.8915 391.101 97.6028 390.762 97.6104L387.537 97.5133C387.594 96.8528 387.867 96.2466 388.3 95.7411C388.872 95.1019 389.64 94.726 390.481 94.6744C392.227 94.5572 393.718 95.8938 393.835 97.6394C393.879 98.4473 393.642 99.2156 393.134 99.8405L392.366 100.523C391.884 100.802 391.379 100.983 390.87 100.994ZM403.862 90.3558L394.95 98.2081C394.972 97.9988 394.961 97.797 394.95 97.5948C394.866 96.455 394.352 95.3772 393.5 94.6133C392.741 93.9653 391.839 93.5876 390.84 93.5382L397.625 87.7622C397.683 87.7155 397.733 87.6358 397.784 87.5565C398.183 86.7516 398.835 86.1628 399.69 85.8697C400.512 85.5838 401.439 85.615 402.212 86.0221C403.009 86.3891 403.605 87.0737 403.898 87.9284C404.21 88.71 404.196 89.5652 403.862 90.3558Z" fill="#663FCD"/>
<path d="M385.686 93.8037C385.758 93.822 385.823 93.8073 385.888 93.7926C386.115 93.7418 386.313 93.5614 386.328 93.3196L386.585 91.7286L388.191 92.0515C388.263 92.0693 388.367 92.08 388.433 92.0658C388.66 92.015 388.825 91.8417 388.879 91.6248C388.944 91.3037 388.742 91.0084 388.421 90.9438L386.775 90.5955L386.907 89.8165C386.972 89.4954 386.737 89.2068 386.416 89.1426C386.095 89.0781 385.806 89.3128 385.742 89.6339L385.627 90.3412L383.301 89.8388L383.709 87.7031L388.558 88.6638L388.591 88.6567L388.623 88.6496L392.621 89.4602C392.693 89.478 392.797 89.4887 392.862 89.4745C393.09 89.4237 393.255 89.2504 393.309 89.0335C393.374 88.7124 393.172 88.4166 392.85 88.3525L389.423 87.6532L390.571 82.4216C390.635 82.1005 390.433 81.8047 390.144 81.733C389.823 81.6684 389.527 81.8706 389.456 82.1593L389.018 84.1653L386.897 83.8215C386.576 83.7573 386.287 83.9921 386.223 84.3132C386.158 84.6343 386.393 84.9225 386.714 84.9871L388.771 85.3452L388.29 87.463L379.652 85.7131C379.331 85.6485 379.036 85.8507 378.971 86.1718C378.906 86.493 379.109 86.7883 379.43 86.8528L382.569 87.4804L382.049 90.1862L381.569 92.6109C381.504 92.9321 381.706 93.2274 382.027 93.2919C382.099 93.3098 382.197 93.2879 382.262 93.2737C382.489 93.2229 382.655 93.0497 382.709 92.8327L383.078 90.9781L385.47 91.4663L385.194 93.1294C385.162 93.4438 385.365 93.7396 385.686 93.8042V93.8037Z" fill="#663FCD"/>
<path fill-rule="evenodd" clip-rule="evenodd" d="M352.737 15.1727L350.408 14.8103L352.135 11.3734L352.737 15.1727ZM350.193 16.1977L350.794 19.9962L352.521 16.5595L350.192 16.1967L350.193 16.1977ZM351.86 8.79811L348.723 15.0406C348.656 15.1718 348.633 15.3205 348.656 15.4657L349.75 22.3681C349.781 22.5647 349.894 22.739 350.061 22.8473C350.229 22.9556 350.433 22.9876 350.626 22.9355C350.818 22.8835 350.979 22.752 351.068 22.5742L354.207 16.3292C354.273 16.1982 354.296 16.0494 354.274 15.9043L353.179 9.00179C353.149 8.80488 353.035 8.63033 352.868 8.5221C352.7 8.4136 352.494 8.38175 352.302 8.43413C352.11 8.48678 351.949 8.61862 351.86 8.79695L351.86 8.79811ZM361.249 16.4959C361.427 14.3824 360.915 12.2681 359.788 10.4713L359.144 10.9423C358.941 11.0901 358.675 11.1188 358.447 11.0174C358.217 10.9161 358.06 10.7004 358.033 10.4512C358.006 10.202 358.114 9.95743 358.316 9.80965L358.961 9.33869C357.591 7.71936 355.732 6.58885 353.664 6.11731L353.635 6.29734L353.635 6.29739C353.606 6.48129 353.506 6.64631 353.355 6.75619C353.205 6.86527 353.018 6.91021 352.834 6.8813C352.651 6.85231 352.486 6.75182 352.377 6.6019C352.267 6.45194 352.222 6.26456 352.25 6.08115L352.277 5.90245V5.90232C350.164 5.72287 348.049 6.23525 346.252 7.36242L346.722 8.00566C346.87 8.208 346.899 8.47395 346.797 8.7032C346.696 8.93253 346.48 9.09025 346.231 9.11715C345.982 9.14418 345.737 9.03595 345.589 8.83361L345.119 8.19037C343.499 9.56018 342.369 11.4191 341.897 13.4871L342.076 13.5154V13.5155C342.324 13.5537 342.532 13.7211 342.623 13.9545C342.713 14.1882 342.672 14.452 342.515 14.6473C342.358 14.8425 342.109 14.9392 341.862 14.901L341.681 14.8741V14.8739C341.503 16.9874 342.015 19.1019 343.142 20.8988L343.786 20.4279C343.989 20.2801 344.254 20.2514 344.484 20.3527C344.713 20.454 344.871 20.6698 344.898 20.9189C344.924 21.1682 344.817 21.4127 344.614 21.5605L343.97 22.0315C345.339 23.6508 347.199 24.7813 349.266 25.2525L349.295 25.0726V25.0727C349.334 24.8253 349.502 24.6174 349.735 24.5271C349.969 24.4369 350.233 24.4782 350.428 24.6354C350.623 24.7927 350.719 25.0419 350.681 25.2893L350.653 25.4679C352.767 25.647 354.881 25.1345 356.678 24.0076L356.208 23.3644C356.06 23.162 356.032 22.8961 356.133 22.6669C356.234 22.4375 356.45 22.2798 356.699 22.2529C356.949 22.2259 357.193 22.3341 357.341 22.5365L357.811 23.1797C359.431 21.8098 360.561 19.9507 361.033 17.8827L360.854 17.8546C360.607 17.8163 360.398 17.6489 360.307 17.4155C360.217 17.1819 360.258 16.918 360.415 16.7227C360.572 16.5275 360.821 16.4309 361.068 16.469L361.249 16.4958V16.4959ZM344.842 6.62275C342.439 8.37913 340.832 11.0185 340.375 13.9598C339.917 16.9012 340.647 19.904 342.403 22.3072C344.159 24.7104 346.799 26.3178 349.74 26.7751C352.681 27.2326 355.684 26.5029 358.088 24.7466C360.49 22.9904 362.098 20.3509 362.555 17.4096C363.013 14.4682 362.283 11.4654 360.527 9.06219C358.769 6.66163 356.13 5.05678 353.189 4.59904C350.249 4.14184 347.247 4.86967 344.842 6.6227V6.62275Z" fill="#663FCD"/>
<path d="M352.272 80.8906C353.95 78.4098 353.298 75.0274 350.818 73.3487C348.542 71.809 339.893 71.2652 338.914 71.2077C338.478 71.1819 338.131 71.6954 338.317 72.0901C338.734 72.9777 342.454 80.8042 344.73 82.344C347.211 84.0231 350.593 83.3711 352.272 80.8906ZM339.899 72.5172C342.964 72.7501 348.631 73.3661 350.123 74.3758C352.038 75.6719 352.54 78.2815 351.245 80.1954C349.949 82.1097 347.34 82.6143 345.425 81.3182C343.932 80.3081 341.254 75.2778 339.899 72.5172Z" fill="#663FCD"/>
<path d="M349.657 79.1175C350.393 78.0285 350.107 76.5427 349.016 75.8047C348.136 75.2087 345.297 74.9994 344.449 74.95C344.23 74.9361 344.021 75.0399 343.899 75.2208C343.777 75.4011 343.758 75.6323 343.85 75.8318C344.211 76.6015 345.46 79.1625 346.34 79.7585C347.431 80.4969 348.918 80.2092 349.657 79.1175ZM345.45 76.2728C346.738 76.4002 348 76.6135 348.321 76.8309C348.846 77.1854 348.984 77.8994 348.63 78.4227C348.274 78.9483 347.559 79.0868 347.035 78.7323C346.714 78.5149 346.047 77.4215 345.45 76.2728Z" fill="#663FCD"/>
<path d="M350.111 92.8184C350.215 93.2144 350.571 93.6985 351.511 94.192C352.632 94.7826 354.531 95.3171 355.166 94.3778C355.192 94.3399 355.254 94.2219 355.271 94.1796C355.886 92.6051 357.279 88.9715 358.702 85.2507C361.628 82.544 364.483 79.9015 365.716 78.7461C365.749 78.714 365.834 78.6143 365.86 78.5755C366.571 77.5253 364.997 75.8207 364.329 75.252C363.52 74.5634 362.938 74.4133 362.532 74.4636C362.368 73.9772 361.914 73.5033 361.138 73.094C360.054 72.5235 358.199 72.0322 357.538 73.0103C357.511 73.049 357.439 73.1862 357.424 73.2303C356.801 74.8159 355.427 78.4058 354.018 82.0808C351.131 84.7545 348.31 87.3663 347.069 88.5315C347.033 88.5627 346.932 88.6811 346.905 88.7208C346.244 89.6989 347.39 91.2364 348.322 92.0319C348.986 92.6015 349.598 92.846 350.111 92.8189M351.331 92.5409C351.34 92.5191 351.351 92.4911 351.36 92.4674C351.569 92.4323 352.104 92.4741 352.842 92.7623C353.611 93.0634 354.05 93.417 354.155 93.5765C354.152 93.5947 354.155 93.6121 354.154 93.6313C354.153 93.6339 354.15 93.6375 354.15 93.6415C353.955 93.6834 353.4 93.6437 352.643 93.3476C351.883 93.0514 351.446 92.704 351.331 92.5409ZM354.648 92.3579C354.008 91.8644 353.04 91.4462 352.183 91.2871C353.353 90.2013 354.942 88.7292 356.648 87.1521C355.875 89.1639 355.167 91.0106 354.648 92.3579ZM363.788 78.8477C362.73 79.8311 361.282 81.1722 359.704 82.6358C359.033 83.2544 358.342 83.8967 357.648 84.5376C357.586 84.5946 357.524 84.6507 357.462 84.7086C355.735 86.3049 354.022 87.8923 352.623 89.1933C351.795 89.9621 351.075 90.6337 350.547 91.1344C350.358 91.3143 350.188 91.4747 350.05 91.6092C349.9 91.627 349.343 91.3704 348.717 90.697C348.118 90.0521 347.921 89.5229 347.916 89.437C348.887 88.523 350.833 86.7183 353.017 84.6966C353.691 84.0748 354.377 83.4379 355.074 82.7943C355.401 82.4906 355.731 82.1877 356.057 81.8853C357.504 80.5477 358.912 79.2441 360.096 78.1471C360.705 77.5854 361.248 77.079 361.708 76.651C362.141 77.4714 362.996 78.3795 363.788 78.8472L363.788 78.8477ZM363.96 76.6104C364.518 77.2064 364.765 77.7092 364.799 77.9061C364.794 77.9088 364.791 77.9132 364.787 77.9146C364.772 77.9239 364.755 77.927 364.74 77.9368C364.553 77.8976 364.059 77.6219 363.495 77.0171C362.954 76.4412 362.716 75.961 362.671 75.7535C362.689 75.7366 362.712 75.7152 362.729 75.6991C362.923 75.745 363.406 76.0198 363.96 76.6104ZM361.11 75.5161C359.931 76.6113 358.083 78.3221 356.074 80.1803C357.135 77.4059 358.08 74.9393 358.54 73.7327C358.66 73.6548 359.228 73.6419 360.055 73.9612C360.907 74.2917 361.35 74.7135 361.396 74.7834C361.315 74.9896 361.217 75.2373 361.11 75.5161Z" fill="#663FCD"/>
<path d="M378.026 52.9892C377.981 50.7007 376.818 48.5798 374.913 47.3126C373.008 46.0459 370.603 45.7943 368.477 46.6396C366.35 47.485 364.774 49.3196 364.257 51.5497C362.447 52.1265 360.951 53.4163 360.113 55.1217C359.275 56.8272 359.168 58.8003 359.817 60.5859C360.466 62.3715 361.814 63.8154 363.551 64.5838C365.287 65.3525 367.262 65.3792 369.019 64.6586L368.36 70.9609C368.329 71.258 368.458 71.5484 368.699 71.7235C368.941 71.8989 369.257 71.9319 369.53 71.8103C369.802 71.6887 369.988 71.4313 370.02 71.1346L370.679 64.8318C372.249 65.9346 374.203 66.3413 376.083 65.9565C377.962 65.5716 379.601 64.4296 380.612 62.799C381.624 61.168 381.92 59.1922 381.431 57.3363C380.942 55.4803 379.71 53.908 378.026 52.9892ZM374.124 64.3967C372.966 64.2773 371.881 63.7767 371.038 62.9732C370.986 62.9255 370.931 62.8814 370.873 62.8405L371.331 58.46L375.612 56.8437C375.891 56.7381 376.093 56.4918 376.141 56.1974C376.189 55.903 376.076 55.605 375.846 55.4166C375.615 55.2277 375.301 55.1765 375.022 55.2821L371.529 56.6009L371.997 52.1224C372.028 51.8258 371.899 51.5354 371.657 51.3599C371.416 51.1849 371.1 51.1515 370.828 51.2731C370.555 51.3947 370.368 51.6521 370.338 51.9487L369.521 59.757L367.022 58.2489C366.766 58.0939 366.448 58.0872 366.186 58.2311C365.924 58.3749 365.758 58.6475 365.752 58.9464C365.745 59.2457 365.899 59.5249 366.154 59.6799L369.339 61.6067L369.227 62.6766C369.162 62.7046 369.099 62.7367 369.038 62.7723C368.047 63.3843 366.882 63.6498 365.725 63.5268C364.085 63.3562 362.618 62.4334 361.754 61.0286C360.891 59.6238 360.728 57.8975 361.314 56.3559C361.901 54.8144 363.17 53.6332 364.748 53.1589C365.031 53.0738 365.285 52.9157 365.487 52.7006C365.688 52.485 365.828 52.2204 365.894 51.9332C366.289 50.2375 367.488 48.843 369.105 48.2007C370.722 47.558 372.551 47.7495 374 48.7125C375.449 49.6754 376.334 51.2882 376.369 53.0284C376.376 53.3215 376.46 53.6074 376.613 53.8577C376.765 54.108 376.981 54.3134 377.238 54.4541C378.688 55.2442 379.688 56.665 379.943 58.2979C380.198 59.9307 379.678 61.5889 378.538 62.7844C377.398 63.9798 375.766 64.5762 374.124 64.3971L374.124 64.3967Z" fill="#663FCD"/>
</g>
</g>
<g opacity="0.4" clip-path="url(#clip2_41_3188)">
<g clip-path="url(#clip3_41_3188)">
<path fill-rule="evenodd" clip-rule="evenodd" d="M14.0244 64.9062L14.0265 64.9053L17.0762 64.0297C17.0783 64.0292 17.0809 64.0283 17.083 64.0279C17.0873 64.027 17.0915 64.0261 17.0961 64.0248L33.1269 59.4216C33.3768 59.3499 33.5741 59.1575 33.6534 58.9103C33.7325 58.6631 33.6839 58.3918 33.5222 58.187L24.2743 46.4839L24.6255 43.2896C24.6728 42.8608 24.3637 42.4758 23.936 42.4279C23.5084 42.3805 23.1237 42.6899 23.076 43.1176L22.8977 44.7417L21.8845 43.4597C21.6176 43.1217 21.1273 43.0636 20.7895 43.3308C20.4523 43.5983 20.3963 44.0888 20.6627 44.4269L22.1322 46.2872L8.3364 50.2482L8.5953 47.8924C8.64212 47.4638 8.33297 47.0787 7.90579 47.0307C7.4782 46.9833 7.09222 47.2925 7.04595 47.7209L6.86752 49.3445L5.85429 48.0626C5.58736 47.7245 5.09707 47.6665 4.75924 47.9336C4.42257 48.201 4.36483 48.6915 4.6319 49.03L6.62491 51.5514L4.99467 66.3782C4.96608 66.637 5.06874 66.8927 5.26712 67.0606L5.26726 67.061C5.46599 67.2281 5.73466 67.2864 5.98461 67.2147L9.05411 66.3333L9.05669 66.3324L14.0244 64.9062ZM9.37083 58.0627C9.06685 58.15 8.84624 58.4123 8.81177 58.7268L8.12439 64.9761L6.67097 65.3935L8.00097 53.2938L15.5474 62.8445L14.0945 63.2618L10.1971 58.329C10.0009 58.0805 9.67481 57.9754 9.37083 58.0627ZM9.74412 64.5107L10.1533 60.7881L12.4753 63.7268L9.74412 64.5107ZM17.1671 62.3795L31.5782 58.2417L23.1776 47.6106L8.76656 51.7483L17.1671 62.3795Z" fill="#663FCD"/>
<path fill-rule="evenodd" clip-rule="evenodd" d="M65.9926 34.7558C65.3806 34.9636 65.0443 35.6196 65.2332 36.2373L66.1008 39.0815C66.397 40.0503 67.4352 40.5824 68.3946 40.2565L75.1187 37.9724C76.0777 37.6467 76.577 36.5922 76.2215 35.6437L75.1775 32.8593C74.9508 32.2545 74.2845 31.9391 73.673 32.1469L65.9926 34.7558ZM66.3774 35.8885L74.0578 33.2795L75.1018 36.0635C75.2198 36.3795 75.0537 36.7312 74.7339 36.8398L68.0098 39.1239C67.69 39.2325 67.3434 39.055 67.2455 38.7322L66.3774 35.8885Z" fill="#663FCD"/>
<path fill-rule="evenodd" clip-rule="evenodd" d="M62.9753 22.5601C62.5959 21.4428 63.1936 20.2297 64.3106 19.8503L65.9292 19.3006C67.0458 18.9212 68.2591 19.5191 68.6386 20.6364C68.7374 20.927 69.0528 21.0821 69.3432 20.9834L71.0825 20.3927C72.9594 19.7551 74.9975 20.7598 75.6349 22.6362L76.5969 25.468C76.621 25.5394 76.6406 25.6111 76.6553 25.6833C77.4797 25.8155 78.1772 26.3683 78.4925 27.1444L80.9832 33.2686C81.6005 34.7871 80.8785 36.5032 79.3993 37.14C79.2212 38.6969 78.1727 40.0935 76.5849 40.6329L68.8532 43.2592C67.2645 43.7989 65.5823 43.3299 64.4933 42.2035C62.9321 42.5993 61.314 41.6781 60.8789 40.0976L59.124 33.7236C58.9013 32.9161 59.1182 32.0526 59.6914 31.4457C59.6594 31.3794 59.6313 31.3106 59.6068 31.2393L58.6448 28.4075C58.0074 26.531 59.0118 24.4929 60.8887 23.8553L62.6284 23.2644C62.9183 23.1658 63.0742 22.8506 62.9753 22.5601ZM67.5059 21.0212C67.5683 21.2047 67.6582 21.3715 67.7696 21.518L64.2015 22.7301C64.2002 22.5461 64.1703 22.3589 64.108 22.1754C63.941 21.6839 64.2037 21.1499 64.6955 20.983L66.3136 20.4333C66.8053 20.2663 67.3389 20.5297 67.5059 21.0212ZM59.7774 28.0229C59.3525 26.7719 60.0219 25.4131 61.273 24.9881L71.4673 21.5253C72.718 21.1004 74.0769 21.7702 74.5018 23.0211L75.4638 25.8529C75.5703 26.1656 75.4028 26.5055 75.0901 26.6117L73.3909 27.1889L73.0061 26.0562C72.7937 25.4304 72.1144 25.0959 71.4887 25.3083L70.9226 25.5008C70.2968 25.7132 69.9618 26.3923 70.1743 27.0182L70.5591 28.1508L66.0285 29.6898L65.6437 28.5571C65.4313 27.9313 64.752 27.5967 64.1267 27.8092L63.5602 28.0017C62.9344 28.2141 62.5994 28.8932 62.8123 29.519L63.1967 30.6517L61.4975 31.2289C61.1848 31.3351 60.8455 31.1674 60.739 30.8546L59.7774 28.0229ZM79.3339 35.7966C79.9352 35.3153 80.1828 34.476 79.8746 33.7189L79.0119 31.5967L77.9531 31.9563L79.1624 35.2092C79.2345 35.4036 79.2911 35.5999 79.3339 35.7966ZM77.3844 27.5952L78.5607 30.4866L77.5354 30.8348L76.2099 27.27C76.3221 27.1495 76.417 27.0142 76.4918 26.8689C76.8927 26.9424 77.2303 27.2155 77.3844 27.5952ZM63.5049 40.5279C63.5659 40.7259 63.6403 40.9163 63.7267 41.0981C62.9562 41.0829 62.2493 40.5681 62.032 39.7798L61.424 37.571L62.4832 37.2113L63.5049 40.5279ZM62.1304 36.0676L61.0111 32.433C60.8481 32.4054 60.6909 32.3561 60.543 32.2865C60.2696 32.5889 60.168 33.0112 60.2771 33.4063L61.1056 36.4157L62.1304 36.0676ZM62.2066 32.2518L64.6483 40.176C65.1444 41.7861 66.8726 42.6687 68.468 42.1267L76.1996 39.5004C77.7955 38.9584 78.6284 37.2058 78.0409 35.6266L75.1512 27.8548L73.7758 28.3219L74.1606 29.4545C74.373 30.08 74.0381 30.7595 73.4128 30.9719L72.8462 31.1643C72.2209 31.3768 71.5412 31.0419 71.3288 30.4164L70.9439 29.2838L66.4134 30.8229L66.7977 31.9555C67.0102 32.581 66.6757 33.2603 66.0499 33.4729L65.4838 33.6652C64.858 33.8778 64.1788 33.5428 63.9664 32.9173L63.5815 31.7847L62.2066 32.2518ZM65.099 32.5326L63.945 29.1343L64.5111 28.9418L65.6655 32.3401L65.099 32.5326ZM71.3074 26.6333L71.8739 26.4408L73.0284 29.8391L72.4618 30.0316L71.3074 26.6333Z" fill="#663FCD"/>
<path d="M92.163 91.5369C91.7719 90.3975 90.9555 89.4898 89.8875 88.979C88.819 88.4676 87.5781 88.4044 86.4713 88.7879C85.5266 89.1353 84.712 89.7602 84.1828 90.5944C79.2527 88.3567 79.071 80.8322 79.0888 80.7601C79.0777 80.5583 78.9695 80.3779 78.7708 80.2519C78.5793 80.1583 78.3775 80.1695 78.1971 80.2777L62.0128 90.198C61.807 90.3459 61.6956 90.6096 61.7535 90.8688C61.7901 91.0313 63.0323 95.2176 65.6267 99.2044C69.1142 104.593 73.4345 107.001 78.0867 106.166C78.3214 106.147 78.516 106.104 78.7432 106.053C79.6197 105.857 80.4304 105.37 81.0285 104.69L81.0535 104.651L91.8459 95.1513C91.9033 95.1045 91.9537 95.0248 91.979 94.9851C92.4828 93.8846 92.5536 92.6762 92.1625 91.5369H92.163ZM77.9954 104.994L77.9303 105.008C68.6982 106.697 63.8741 93.4966 63.0345 90.9583L77.9571 81.7965C78.0484 82.6619 78.2484 84.0146 78.7044 85.4461C79.6242 88.3416 81.2102 90.4065 83.329 91.5008L75.1346 98.4432C74.9288 98.5915 74.7311 98.7719 74.5725 98.9777C73.8086 99.8297 73.4492 100.966 73.5013 102.114C73.5338 102.413 73.7543 102.637 74.0683 102.668L77.8738 102.772C78.1802 102.772 78.4688 102.537 78.4613 102.198C78.4608 101.891 78.2261 101.603 77.8867 101.61L74.662 101.513C74.7186 100.853 74.9921 100.247 75.4245 99.7411C75.9973 99.1019 76.7652 98.726 77.6056 98.6744C79.3516 98.5572 80.8428 99.8938 80.9599 101.639C81.0045 102.447 80.7671 103.216 80.2593 103.841L79.4915 104.523C79.0086 104.802 78.504 104.983 77.9954 104.994ZM90.9867 94.3558L82.0752 102.208C82.097 101.999 82.0859 101.797 82.0748 101.595C81.9906 100.455 81.477 99.3772 80.6245 98.6133C79.8665 97.9653 78.9641 97.5876 77.9646 97.5382L84.7503 91.7622C84.8082 91.7155 84.858 91.6358 84.9088 91.5565C85.3079 90.7516 85.9604 90.1628 86.8151 89.8697C87.6369 89.5838 88.5642 89.615 89.3365 90.0221C90.1342 90.3891 90.7302 91.0737 91.0232 91.9284C91.335 92.71 91.3212 93.5652 90.9867 94.3558Z" fill="#663FCD"/>
<path d="M72.8098 97.8037C72.8819 97.822 72.947 97.8073 73.012 97.7926C73.2392 97.7418 73.4374 97.5614 73.4516 97.3196L73.7091 95.7286L75.3147 96.0515C75.3869 96.0693 75.4915 96.08 75.5566 96.0658C75.7837 96.015 75.9494 95.8417 76.0033 95.6248C76.0679 95.3037 75.8657 95.0084 75.5445 94.9438L73.8992 94.5955L74.0315 93.8165C74.0961 93.4954 73.8614 93.2068 73.5402 93.1426C73.2191 93.0781 72.9305 93.3128 72.8664 93.6339L72.7514 94.3412L70.4247 93.8388L70.8331 91.7031L75.6822 92.6638L75.7147 92.6567L75.7472 92.6496L79.7446 93.4602C79.8168 93.478 79.9214 93.4887 79.9865 93.4745C80.2136 93.4237 80.3793 93.2504 80.4332 93.0335C80.4978 92.7124 80.2956 92.4166 79.9744 92.3525L76.5467 91.6532L77.6949 86.4216C77.759 86.1005 77.5568 85.8047 77.2682 85.733C76.9471 85.6684 76.6513 85.8706 76.5796 86.1593L76.1423 88.1653L74.0208 87.8215C73.6997 87.7573 73.4111 87.9921 73.3469 88.3132C73.2824 88.6343 73.5171 88.9225 73.8382 88.9871L75.8946 89.3452L75.414 91.463L66.776 89.7131C66.4553 89.6485 66.1596 89.8507 66.095 90.1718C66.0304 90.493 66.2331 90.7883 66.5538 90.8528L69.6929 91.4804L69.1731 94.1862L68.6925 96.6109C68.628 96.9321 68.8302 97.2274 69.1513 97.2919C69.2235 97.3098 69.321 97.2879 69.386 97.2737C69.6132 97.2229 69.7789 97.0497 69.8328 96.8327L70.202 94.9781L72.5942 95.4663L72.3181 97.1294C72.2865 97.4438 72.4887 97.7396 72.8098 97.8042V97.8037Z" fill="#663FCD"/>
<path fill-rule="evenodd" clip-rule="evenodd" d="M39.8622 19.1727L37.5335 18.8103L39.2605 15.3734L39.8622 19.1727ZM37.3182 20.1977L37.9193 23.9962L39.6461 20.5595L37.3174 20.1967L37.3182 20.1977ZM38.9849 12.7981L35.8477 19.0406C35.7814 19.1718 35.7581 19.3205 35.7807 19.4657L36.8751 26.3681C36.9061 26.5647 37.0192 26.739 37.1863 26.8473C37.3535 26.9556 37.5587 26.9876 37.7509 26.9355C37.9431 26.8835 38.104 26.752 38.1934 26.5742L41.3319 20.3292C41.3983 20.1982 41.4216 20.0494 41.3989 19.9043L40.3046 13.0018C40.2736 12.8049 40.1602 12.6303 39.9927 12.5221C39.8253 12.4136 39.6196 12.3818 39.4273 12.4341C39.2348 12.4868 39.0739 12.6186 38.9845 12.797L38.9849 12.7981ZM48.3737 20.4959C48.5523 18.3824 48.0401 16.2681 46.9132 14.4713L46.2687 14.9423C46.0665 15.0901 45.8006 15.1188 45.5717 15.0174C45.3423 14.9161 45.1846 14.7004 45.1579 14.4512C45.1307 14.202 45.239 13.9574 45.4412 13.8097L46.0857 13.3387C44.7156 11.7194 42.8569 10.5889 40.7889 10.1173L40.7597 10.2973L40.7599 10.2974C40.7312 10.4813 40.6308 10.6463 40.4804 10.7562C40.33 10.8653 40.1427 10.9102 39.9592 10.8813C39.7757 10.8523 39.6113 10.7518 39.5019 10.6019C39.3923 10.4519 39.3468 10.2646 39.3751 10.0811L39.4024 9.90245L39.4023 9.90232C37.2887 9.72287 35.1739 10.2353 33.377 11.3624L33.8471 12.0057C33.995 12.208 34.0238 12.474 33.9224 12.7032C33.821 12.9325 33.6053 13.0902 33.3559 13.1171C33.1067 13.1442 32.8621 13.036 32.7142 12.8336L32.2441 12.1904C30.6245 13.5602 29.4939 15.4191 29.0227 17.4871L29.2013 17.5154L29.2013 17.5155C29.4487 17.5537 29.657 17.7211 29.7477 17.9545C29.8382 18.1882 29.7974 18.452 29.6405 18.6473C29.4836 18.8425 29.2345 18.9392 28.987 18.901L28.8066 18.8741L28.8066 18.8739C28.6277 20.9874 29.1402 23.1019 30.2671 24.8988L30.9115 24.4279C31.1137 24.2801 31.3796 24.2514 31.6089 24.3527C31.838 24.454 31.9958 24.6698 32.0227 24.9189C32.0496 25.1682 31.9415 25.4127 31.7393 25.5605L31.0948 26.0315C32.4645 27.6508 34.3235 28.7813 36.3913 29.2525L36.4206 29.0726L36.4204 29.0727C36.4593 28.8253 36.627 28.6174 36.8607 28.5271C37.0943 28.4369 37.3582 28.4782 37.5532 28.6354C37.7481 28.7927 37.8443 29.0419 37.8057 29.2893L37.7782 29.4679C39.8918 29.647 42.0063 29.1345 43.8034 28.0076L43.3333 27.3644C43.1854 27.162 43.1566 26.8961 43.258 26.6669C43.3593 26.4375 43.5751 26.2798 43.8245 26.2529C44.0737 26.2259 44.3183 26.3341 44.4662 26.5365L44.9361 27.1797C46.556 25.8098 47.6864 23.9507 48.1577 21.8827L47.979 21.8546C47.7319 21.8163 47.5234 21.6489 47.4325 21.4155C47.3421 21.1819 47.3831 20.918 47.5399 20.7227C47.6967 20.5275 47.9456 20.4309 48.1933 20.469L48.3737 20.4958V20.4959ZM31.9676 10.6227C29.5643 12.3791 27.9569 15.0185 27.4996 17.9598C27.0421 20.9012 27.7718 23.904 29.528 26.3072C31.2843 28.7104 33.9238 30.3178 36.865 30.7751C39.8064 31.2326 42.8093 30.5029 45.2127 28.7466C47.6156 26.9904 49.223 24.3509 49.6805 21.4096C50.1379 18.4682 49.4083 15.4654 47.6521 13.0622C45.8937 10.6616 43.2548 9.05678 40.3142 8.59904C37.3738 8.14184 34.3718 8.86967 31.9673 10.6227L31.9676 10.6227Z" fill="#663FCD"/>
<path d="M39.3966 84.8906C41.0754 82.4098 40.4229 79.0274 37.9423 77.3487C35.6669 75.809 27.0176 75.2652 26.0389 75.2077C25.6034 75.1819 25.2559 75.6954 25.4419 76.0901C25.8587 76.9777 29.5794 84.8042 31.8549 86.344C34.3359 88.0231 37.718 87.3711 39.3966 84.8906ZM27.0234 76.5172C30.089 76.7501 35.7554 77.3661 37.2477 78.3758C39.1629 79.6719 39.6648 82.2815 38.3696 84.1954C37.0742 86.1097 34.4651 86.6143 32.5499 85.3182C31.0572 84.3081 28.3795 79.2778 27.0236 76.5172H27.0234Z" fill="#663FCD"/>
<path d="M36.7816 83.1175C37.5186 82.0285 37.2318 80.5427 36.141 79.8047C35.2606 79.2087 32.4218 78.9994 31.5736 78.95C31.3544 78.9361 31.1462 79.0399 31.0237 79.2208C30.9015 79.4011 30.883 79.6323 30.9748 79.8318C31.3358 80.6015 32.5849 83.1625 33.4654 83.7585C34.5556 84.4969 36.043 84.2092 36.7816 83.1175ZM32.5751 80.2728C33.8629 80.4002 35.1253 80.6135 35.4466 80.8309C35.9706 81.1854 36.1088 81.8994 35.7545 82.4227C35.399 82.9483 34.6841 83.0868 34.1598 82.7323C33.8385 82.5149 33.1721 81.4215 32.5751 80.2728Z" fill="#663FCD"/>
<path d="M37.2355 96.8184C37.3395 97.2144 37.6955 97.6985 38.6359 98.192C39.7572 98.7826 41.6553 99.3171 42.2912 98.3778C42.3169 98.3399 42.3789 98.2219 42.3961 98.1796C43.011 96.6051 44.4037 92.9715 45.8272 89.2507C48.753 86.544 51.608 83.9015 52.8408 82.7461C52.8738 82.714 52.9588 82.6143 52.9851 82.5755C53.696 81.5253 52.1219 79.8207 51.4534 79.252C50.645 78.5634 50.0629 78.4133 49.6571 78.4636C49.4928 77.9772 49.0394 77.5033 48.2626 77.094C47.1789 76.5235 45.3243 76.0322 44.6624 77.0103C44.6362 77.049 44.564 77.1862 44.5489 77.2303C43.9258 78.8159 42.5518 82.4058 41.1433 86.0808C38.2553 88.7545 35.4349 91.3663 34.1939 92.5315C34.158 92.5627 34.0572 92.6811 34.0306 92.7208C33.3686 93.6989 34.5148 95.2364 35.4465 96.0319C36.111 96.6015 36.7234 96.846 37.2352 96.8189M38.4559 96.5409C38.4652 96.5191 38.4755 96.4911 38.4849 96.4674C38.6935 96.4323 39.2289 96.4741 39.967 96.7623C40.7362 97.0634 41.1751 97.417 41.2801 97.5765C41.2768 97.5947 41.28 97.6121 41.2793 97.6313C41.2774 97.6339 41.2751 97.6375 41.2754 97.6415C41.0799 97.6834 40.5252 97.6437 39.7675 97.3476C39.0077 97.0514 38.5708 96.704 38.4559 96.5409ZM41.7727 96.3579C41.1328 95.8644 40.1646 95.4462 39.3078 95.2871C40.4777 94.2013 42.0667 92.7292 43.7726 91.1521C43.0002 93.1639 42.292 95.0106 41.7727 96.3579ZM50.9127 82.8477C49.8549 83.8311 48.4069 85.1722 46.8293 86.6358C46.1581 87.2544 45.4668 87.8967 44.7729 88.5376C44.7105 88.5946 44.6486 88.6507 44.5872 88.7086C42.8599 90.3049 41.1466 91.8923 39.7476 93.1933C38.9205 93.9621 38.1999 94.6337 37.6718 95.1344C37.4833 95.3143 37.3124 95.4747 37.1745 95.6092C37.0252 95.627 36.4679 95.3704 35.8416 94.697C35.2429 94.0521 35.0457 93.5229 35.0406 93.437C36.0118 92.523 37.9581 90.7183 40.1422 88.6966C40.8154 88.0748 41.5024 87.4379 42.1989 86.7943C42.5264 86.4906 42.856 86.1877 43.1823 85.8853C44.6286 84.5477 46.0365 83.2441 47.2212 82.1471C47.8297 81.5854 48.3726 81.079 48.8331 80.651C49.2661 81.4714 50.1212 82.3795 50.9131 82.8472L50.9127 82.8477ZM51.0851 80.6104C51.6431 81.2064 51.8903 81.7092 51.9242 81.9061C51.9193 81.9088 51.9162 81.9132 51.9122 81.9146C51.8966 81.9239 51.8797 81.927 51.8645 81.9368C51.6779 81.8976 51.1839 81.6219 50.6196 81.0171C50.0794 80.4412 49.8406 79.961 49.7961 79.7535C49.8139 79.7366 49.8371 79.7152 49.8535 79.6991C50.0477 79.745 50.531 80.0198 51.0851 80.6104ZM48.235 79.5161C47.0556 80.6113 45.2076 82.3221 43.1986 84.1803C44.26 81.4059 45.2049 78.9393 45.665 77.7327C45.7848 77.6548 46.3527 77.6419 47.1798 77.9612C48.0319 78.2917 48.4746 78.7135 48.5209 78.7834C48.4394 78.9896 48.3423 79.2373 48.235 79.5161Z" fill="#663FCD"/>
<path d="M65.151 56.9892C65.1065 54.7007 63.9431 52.5798 62.0382 51.3126C60.1328 50.0459 57.7281 49.7943 55.6017 50.6396C53.4754 51.485 51.8987 53.3196 51.3816 55.5497C49.572 56.1265 48.0759 57.4163 47.2381 59.1217C46.4003 60.8272 46.2934 62.8003 46.9423 64.5859C47.5913 66.3715 48.939 67.8154 50.6761 68.5838C52.4122 69.3525 54.3871 69.3792 56.1438 68.6586L55.485 74.9609C55.4539 75.258 55.5835 75.5484 55.8244 75.7235C56.0658 75.8989 56.3821 75.9319 56.6546 75.8103C56.9268 75.6887 57.1134 75.4313 57.1446 75.1346L57.8038 68.8318C59.3738 69.9346 61.3282 70.3413 63.2078 69.9565C65.0873 69.5716 66.7255 68.4296 67.7375 66.799C68.7489 65.168 69.0451 63.1922 68.5556 61.3363C68.0666 59.4803 66.8351 57.908 65.151 56.9892ZM61.2489 68.3967C60.0913 68.2773 59.0059 67.7767 58.1632 66.9732C58.1111 66.9255 58.0559 66.8814 57.9984 66.8405L58.4563 62.46L62.7374 60.8437C63.0163 60.7381 63.2176 60.4918 63.2657 60.1974C63.3138 59.903 63.2011 59.605 62.9708 59.4166C62.7397 59.2277 62.4261 59.1765 62.1473 59.2821L58.6536 60.6009L59.1221 56.1224C59.1533 55.8258 59.0237 55.5354 58.7823 55.3599C58.5414 55.1849 58.2247 55.1515 57.9525 55.2731C57.6804 55.3947 57.4933 55.6521 57.4626 55.9487L56.6457 63.757L54.1466 62.2489C53.8914 62.0939 53.5725 62.0872 53.3106 62.2311C53.0487 62.3749 52.883 62.6475 52.8768 62.9464C52.8701 63.2457 53.0238 63.5249 53.279 63.6799L56.4636 65.6067L56.3518 66.6766C56.2867 66.7046 56.2235 66.7367 56.1629 66.7723C55.1724 67.3843 54.0068 67.6498 52.8496 67.5268C51.2101 67.3562 49.743 66.4334 48.8794 65.0286C48.0157 63.6238 47.8527 61.8975 48.4393 60.3559C49.0259 58.8144 50.2948 57.6332 51.8733 57.1589C52.1557 57.0738 52.4105 56.9157 52.6118 56.7006C52.8131 56.485 52.9534 56.2204 53.0193 55.9332C53.4139 54.2375 54.6134 52.843 56.2302 52.2007C57.8474 51.558 59.6758 51.7495 61.1251 52.7125C62.574 53.6754 63.4594 55.2882 63.4942 57.0284C63.5013 57.3215 63.585 57.6074 63.7378 57.8577C63.8901 58.108 64.1057 58.3134 64.3631 58.4541C65.8133 59.2442 66.8133 60.665 67.068 62.2979C67.3228 63.9307 66.8035 65.5889 65.6628 66.7844C64.5226 67.9798 62.8911 68.5762 61.2494 68.3971L61.2489 68.3967Z" fill="#663FCD"/>
<path fill-rule="evenodd" clip-rule="evenodd" d="M90.8995 64.9062L90.9017 64.9053L93.9513 64.0297C93.9536 64.0292 93.9558 64.0283 93.958 64.0279C93.9625 64.027 93.9665 64.0261 93.9714 64.0248L110.002 59.4216C110.252 59.3499 110.449 59.1575 110.529 58.9103C110.607 58.6631 110.559 58.3918 110.397 58.187L101.149 46.4839L101.501 43.2896C101.548 42.8608 101.239 42.4758 100.811 42.4279C100.383 42.3805 99.999 42.6899 99.9513 43.1176L99.7727 44.7417L98.7594 43.4597C98.4926 43.1217 98.0022 43.0636 97.6646 43.3308C97.3275 43.5983 97.2713 44.0888 97.5377 44.4269L99.0075 46.2872L85.2113 50.2482L85.4706 47.8924C85.5173 47.4638 85.2082 47.0787 84.7811 47.0307C84.3535 46.9833 83.9673 47.2925 83.921 47.7209L83.7429 49.3445L82.7296 48.0626C82.4623 47.7245 81.972 47.6665 81.6344 47.9336C81.2976 48.201 81.2397 48.6915 81.507 49.03L83.5001 51.5514L81.87 66.3782C81.841 66.637 81.9439 66.8927 82.1421 67.0606L82.1426 67.061C82.3412 67.2281 82.6098 67.2864 82.8596 67.2147L85.9293 66.3333L85.932 66.3324L90.8995 64.9062ZM86.246 58.0627C85.9418 58.15 85.7213 58.4123 85.687 58.7268L84.9993 64.9761L83.546 65.3935L84.8759 53.2938L92.4223 62.8445L90.9694 63.2618L87.0722 58.329C86.8758 58.0805 86.5498 57.9754 86.246 58.0627ZM86.6192 64.5107L87.0285 60.7881L89.3504 63.7268L86.6192 64.5107ZM94.0422 62.3795L108.453 58.2417L100.053 47.6106L85.6416 51.7483L94.0422 62.3795Z" fill="#663FCD" fill-opacity="0.52"/>
<path fill-rule="evenodd" clip-rule="evenodd" d="M142.869 34.7558C142.257 34.9636 141.92 35.6196 142.109 36.2373L142.977 39.0815C143.273 40.0503 144.311 40.5824 145.271 40.2565L151.995 37.9724C152.954 37.6467 153.453 36.5922 153.098 35.6437L152.054 32.8593C151.827 32.2545 151.16 31.9391 150.549 32.1469L142.869 34.7558ZM143.253 35.8885L150.934 33.2795L151.978 36.0635C152.096 36.3795 151.93 36.7312 151.61 36.8398L144.886 39.1239C144.566 39.2325 144.219 39.055 144.121 38.7322L143.253 35.8885Z" fill="#663FCD"/>
<path fill-rule="evenodd" clip-rule="evenodd" d="M139.85 22.5601C139.471 21.4428 140.069 20.2297 141.186 19.8503L142.804 19.3006C143.921 18.9212 145.134 19.5191 145.514 20.6364C145.612 20.927 145.928 21.0821 146.218 20.9834L147.957 20.3927C149.834 19.7551 151.872 20.7598 152.51 22.6362L153.472 25.468C153.496 25.5394 153.516 25.6111 153.53 25.6833C154.355 25.8155 155.052 26.3683 155.368 27.1444L157.858 33.2686C158.476 34.7871 157.754 36.5032 156.274 37.14C156.096 38.6969 155.048 40.0935 153.46 40.6329L145.728 43.2592C144.14 43.7989 142.457 43.3299 141.368 42.2035C139.807 42.5993 138.189 41.6781 137.754 40.0976L135.999 33.7236C135.776 32.9161 135.993 32.0526 136.566 31.4457C136.534 31.3794 136.506 31.3106 136.482 31.2393L135.52 28.4075C134.882 26.531 135.887 24.4929 137.764 23.8553L139.503 23.2644C139.793 23.1658 139.949 22.8506 139.85 22.5601ZM144.381 21.0212C144.443 21.2047 144.533 21.3715 144.645 21.518L141.077 22.7301C141.075 22.5461 141.045 22.3589 140.983 22.1754C140.816 21.6839 141.079 21.1499 141.57 20.983L143.189 20.4333C143.68 20.2663 144.214 20.5297 144.381 21.0212ZM136.652 28.0229C136.227 26.7719 136.897 25.4131 138.148 24.9881L148.342 21.5253C149.593 21.1004 150.952 21.7702 151.377 23.0211L152.339 25.8529C152.445 26.1656 152.278 26.5055 151.965 26.6117L150.266 27.1889L149.881 26.0562C149.669 25.4304 148.989 25.0959 148.364 25.3083L147.798 25.5008C147.172 25.7132 146.837 26.3923 147.049 27.0182L147.434 28.1508L142.904 29.6898L142.519 28.5571C142.306 27.9313 141.627 27.5967 141.002 27.8092L140.435 28.0017C139.809 28.2141 139.474 28.8932 139.687 29.519L140.072 30.6517L138.373 31.2289C138.06 31.3351 137.72 31.1674 137.614 30.8546L136.652 28.0229ZM156.209 35.7966C156.81 35.3153 157.058 34.476 156.75 33.7189L155.887 31.5967L154.828 31.9563L156.037 35.2092C156.11 35.4036 156.166 35.5999 156.209 35.7966ZM154.259 27.5952L155.436 30.4866L154.41 30.8348L153.085 27.27C153.197 27.1495 153.292 27.0142 153.367 26.8689C153.768 26.9424 154.105 27.2155 154.259 27.5952ZM140.38 40.5279C140.441 40.7259 140.515 40.9163 140.602 41.0981C139.831 41.0829 139.124 40.5681 138.907 39.7798L138.299 37.571L139.358 37.2113L140.38 40.5279ZM139.005 36.0676L137.886 32.433C137.723 32.4054 137.566 32.3561 137.418 32.2865C137.145 32.5889 137.043 33.0112 137.152 33.4063L137.981 36.4157L139.005 36.0676ZM139.082 32.2518L141.523 40.176C142.019 41.7861 143.748 42.6687 145.343 42.1267L153.075 39.5004C154.67 38.9584 155.503 37.2058 154.916 35.6266L152.026 27.8548L150.651 28.3219L151.036 29.4545C151.248 30.08 150.913 30.7595 150.288 30.9719L149.721 31.1643C149.096 31.3768 148.416 31.0419 148.204 30.4164L147.819 29.2838L143.288 30.8229L143.673 31.9555C143.885 32.581 143.551 33.2603 142.925 33.4729L142.359 33.6652C141.733 33.8778 141.054 33.5428 140.841 32.9173L140.457 31.7847L139.082 32.2518ZM141.974 32.5326L140.82 29.1343L141.386 28.9418L142.541 32.3401L141.974 32.5326ZM148.182 26.6333L148.749 26.4408L149.903 29.8391L149.337 30.0316L148.182 26.6333Z" fill="#663FCD"/>
<path d="M169.038 91.5369C168.647 90.3975 167.831 89.4898 166.762 88.979C165.694 88.4676 164.453 88.4044 163.346 88.7879C162.402 89.1353 161.587 89.7602 161.058 90.5944C156.128 88.3567 155.946 80.8322 155.964 80.7601C155.953 80.5583 155.844 80.3779 155.646 80.2519C155.454 80.1583 155.253 80.1695 155.072 80.2777L138.888 90.198C138.682 90.3459 138.571 90.6096 138.629 90.8688C138.665 91.0313 139.907 95.2176 142.502 99.2044C145.989 104.593 150.31 107.001 154.962 106.166C155.196 106.147 155.391 106.104 155.618 106.053C156.495 105.857 157.305 105.37 157.904 104.69L157.928 104.651L168.721 95.1513C168.778 95.1045 168.829 95.0248 168.854 94.9851C169.358 93.8846 169.429 92.6762 169.038 91.5369H169.038ZM154.87 104.994L154.805 105.008C145.573 106.697 140.749 93.4966 139.909 90.9583L154.832 81.7965C154.923 82.6619 155.123 84.0146 155.579 85.4461C156.499 88.3416 158.085 90.4065 160.204 91.5008L152.01 98.4432C151.804 98.5915 151.606 98.7719 151.447 98.9777C150.684 99.8297 150.324 100.966 150.376 102.114C150.409 102.413 150.629 102.637 150.943 102.668L154.749 102.772C155.055 102.772 155.344 102.537 155.336 102.198C155.336 101.891 155.101 101.603 154.762 101.61L151.537 101.513C151.594 100.853 151.867 100.247 152.3 99.7411C152.872 99.1019 153.64 98.726 154.481 98.6744C156.227 98.5572 157.718 99.8938 157.835 101.639C157.879 102.447 157.642 103.216 157.134 103.841L156.366 104.523C155.884 104.802 155.379 104.983 154.87 104.994ZM167.862 94.3558L158.95 102.208C158.972 101.999 158.961 101.797 158.95 101.595C158.866 100.455 158.352 99.3772 157.5 98.6133C156.741 97.9653 155.839 97.5876 154.84 97.5382L161.625 91.7622C161.683 91.7155 161.733 91.6358 161.784 91.5565C162.183 90.7516 162.835 90.1628 163.69 89.8697C164.512 89.5838 165.439 89.615 166.212 90.0221C167.009 90.3891 167.605 91.0737 167.898 91.9284C168.21 92.71 168.196 93.5652 167.862 94.3558Z" fill="#663FCD"/>
<path d="M149.686 97.8037C149.758 97.822 149.823 97.8073 149.888 97.7926C150.115 97.7418 150.313 97.5614 150.328 97.3196L150.585 95.7286L152.191 96.0515C152.263 96.0693 152.367 96.08 152.433 96.0658C152.66 96.015 152.825 95.8417 152.879 95.6248C152.944 95.3037 152.742 95.0084 152.421 94.9438L150.775 94.5955L150.907 93.8165C150.972 93.4954 150.737 93.2068 150.416 93.1426C150.095 93.0781 149.806 93.3128 149.742 93.6339L149.627 94.3412L147.301 93.8388L147.709 91.7031L152.558 92.6638L152.591 92.6567L152.623 92.6496L156.621 93.4602C156.693 93.478 156.797 93.4887 156.862 93.4745C157.09 93.4237 157.255 93.2504 157.309 93.0335C157.374 92.7124 157.172 92.4166 156.85 92.3525L153.423 91.6532L154.571 86.4216C154.635 86.1005 154.433 85.8047 154.144 85.733C153.823 85.6684 153.527 85.8706 153.456 86.1593L153.018 88.1653L150.897 87.8215C150.576 87.7573 150.287 87.9921 150.223 88.3132C150.158 88.6343 150.393 88.9225 150.714 88.9871L152.771 89.3452L152.29 91.463L143.652 89.7131C143.331 89.6485 143.036 89.8507 142.971 90.1718C142.906 90.493 143.109 90.7883 143.43 90.8528L146.569 91.4804L146.049 94.1862L145.569 96.6109C145.504 96.9321 145.706 97.2274 146.027 97.2919C146.099 97.3098 146.197 97.2879 146.262 97.2737C146.489 97.2229 146.655 97.0497 146.709 96.8327L147.078 94.9781L149.47 95.4663L149.194 97.1294C149.162 97.4438 149.365 97.7396 149.686 97.8042V97.8037Z" fill="#663FCD"/>
<path fill-rule="evenodd" clip-rule="evenodd" d="M116.737 19.1727L114.408 18.8103L116.135 15.3734L116.737 19.1727ZM114.193 20.1977L114.794 23.9962L116.521 20.5595L114.192 20.1967L114.193 20.1977ZM115.86 12.7981L112.723 19.0406C112.656 19.1718 112.633 19.3205 112.656 19.4657L113.75 26.3681C113.781 26.5647 113.894 26.739 114.061 26.8473C114.229 26.9556 114.433 26.9876 114.626 26.9355C114.818 26.8835 114.979 26.752 115.068 26.5742L118.207 20.3292C118.273 20.1982 118.296 20.0494 118.274 19.9043L117.179 13.0018C117.149 12.8049 117.035 12.6303 116.868 12.5221C116.7 12.4136 116.494 12.3818 116.302 12.4341C116.11 12.4868 115.949 12.6186 115.86 12.797L115.86 12.7981ZM125.249 20.4959C125.427 18.3824 124.915 16.2681 123.788 14.4713L123.144 14.9423C122.941 15.0901 122.675 15.1188 122.447 15.0174C122.217 14.9161 122.06 14.7004 122.033 14.4512C122.006 14.202 122.114 13.9574 122.316 13.8097L122.961 13.3387C121.591 11.7194 119.732 10.5889 117.664 10.1173L117.635 10.2973L117.635 10.2974C117.606 10.4813 117.506 10.6463 117.355 10.7562C117.205 10.8653 117.018 10.9102 116.834 10.8813C116.651 10.8523 116.486 10.7518 116.377 10.6019C116.267 10.4519 116.222 10.2646 116.25 10.0811L116.277 9.90245V9.90232C114.164 9.72287 112.049 10.2353 110.252 11.3624L110.722 12.0057C110.87 12.208 110.899 12.474 110.797 12.7032C110.696 12.9325 110.48 13.0902 110.231 13.1171C109.982 13.1442 109.737 13.036 109.589 12.8336L109.119 12.1904C107.499 13.5602 106.369 15.4191 105.897 17.4871L106.076 17.5154V17.5155C106.324 17.5537 106.532 17.7211 106.623 17.9545C106.713 18.1882 106.672 18.452 106.515 18.6473C106.358 18.8425 106.109 18.9392 105.862 18.901L105.681 18.8741V18.8739C105.503 20.9874 106.015 23.1019 107.142 24.8988L107.786 24.4279C107.989 24.2801 108.254 24.2514 108.484 24.3527C108.713 24.454 108.871 24.6698 108.898 24.9189C108.924 25.1682 108.817 25.4127 108.614 25.5605L107.97 26.0315C109.339 27.6508 111.199 28.7813 113.266 29.2525L113.295 29.0726V29.0727C113.334 28.8253 113.502 28.6174 113.735 28.5271C113.969 28.4369 114.233 28.4782 114.428 28.6354C114.623 28.7927 114.719 29.0419 114.681 29.2893L114.653 29.4679C116.767 29.647 118.881 29.1345 120.678 28.0076L120.208 27.3644C120.06 27.162 120.032 26.8961 120.133 26.6669C120.234 26.4375 120.45 26.2798 120.699 26.2529C120.949 26.2259 121.193 26.3341 121.341 26.5365L121.811 27.1797C123.431 25.8098 124.561 23.9507 125.033 21.8827L124.854 21.8546C124.607 21.8163 124.398 21.6489 124.307 21.4155C124.217 21.1819 124.258 20.918 124.415 20.7227C124.572 20.5275 124.821 20.4309 125.068 20.469L125.249 20.4958V20.4959ZM108.842 10.6227C106.439 12.3791 104.832 15.0185 104.375 17.9598C103.917 20.9012 104.647 23.904 106.403 26.3072C108.159 28.7104 110.799 30.3178 113.74 30.7751C116.681 31.2326 119.684 30.5029 122.088 28.7466C124.49 26.9904 126.098 24.3509 126.555 21.4096C127.013 18.4682 126.283 15.4654 124.527 13.0622C122.769 10.6616 120.13 9.05678 117.189 8.59904C114.249 8.14184 111.247 8.86967 108.842 10.6227V10.6227Z" fill="#663FCD"/>
<path d="M116.272 84.8906C117.95 82.4098 117.298 79.0274 114.818 77.3487C112.542 75.809 103.893 75.2652 102.914 75.2077C102.478 75.1819 102.131 75.6954 102.317 76.0901C102.734 76.9777 106.454 84.8042 108.73 86.344C111.211 88.0231 114.593 87.3711 116.272 84.8906ZM103.899 76.5172C106.964 76.7501 112.631 77.3661 114.123 78.3758C116.038 79.6719 116.54 82.2815 115.245 84.1954C113.949 86.1097 111.34 86.6143 109.425 85.3182C107.932 84.3081 105.254 79.2778 103.899 76.5172Z" fill="#663FCD"/>
<path d="M113.657 83.1175C114.393 82.0285 114.107 80.5427 113.016 79.8047C112.136 79.2087 109.297 78.9994 108.449 78.95C108.23 78.9361 108.021 79.0399 107.899 79.2208C107.777 79.4011 107.758 79.6323 107.85 79.8318C108.211 80.6015 109.46 83.1625 110.34 83.7585C111.431 84.4969 112.918 84.2092 113.657 83.1175ZM109.45 80.2728C110.738 80.4002 112 80.6135 112.321 80.8309C112.846 81.1854 112.984 81.8994 112.63 82.4227C112.274 82.9483 111.559 83.0868 111.035 82.7323C110.714 82.5149 110.047 81.4215 109.45 80.2728Z" fill="#663FCD"/>
<path d="M114.111 96.8184C114.215 97.2144 114.571 97.6985 115.511 98.192C116.632 98.7826 118.531 99.3171 119.166 98.3778C119.192 98.3399 119.254 98.2219 119.271 98.1796C119.886 96.6051 121.279 92.9715 122.702 89.2507C125.628 86.544 128.483 83.9015 129.716 82.7461C129.749 82.714 129.834 82.6143 129.86 82.5755C130.571 81.5253 128.997 79.8207 128.329 79.252C127.52 78.5634 126.938 78.4133 126.532 78.4636C126.368 77.9772 125.914 77.5033 125.138 77.094C124.054 76.5235 122.199 76.0322 121.538 77.0103C121.511 77.049 121.439 77.1862 121.424 77.2303C120.801 78.8159 119.427 82.4058 118.018 86.0808C115.131 88.7545 112.31 91.3663 111.069 92.5315C111.033 92.5627 110.932 92.6811 110.905 92.7208C110.244 93.6989 111.39 95.2364 112.322 96.0319C112.986 96.6015 113.598 96.846 114.111 96.8189M115.331 96.5409C115.34 96.5191 115.351 96.4911 115.36 96.4674C115.569 96.4323 116.104 96.4741 116.842 96.7623C117.611 97.0634 118.05 97.417 118.155 97.5765C118.152 97.5947 118.155 97.6121 118.154 97.6313C118.153 97.6339 118.15 97.6375 118.15 97.6415C117.955 97.6834 117.4 97.6437 116.643 97.3476C115.883 97.0514 115.446 96.704 115.331 96.5409ZM118.648 96.3579C118.008 95.8644 117.04 95.4462 116.183 95.2871C117.353 94.2013 118.942 92.7292 120.648 91.1521C119.875 93.1639 119.167 95.0106 118.648 96.3579ZM127.788 82.8477C126.73 83.8311 125.282 85.1722 123.704 86.6358C123.033 87.2544 122.342 87.8967 121.648 88.5376C121.586 88.5946 121.524 88.6507 121.462 88.7086C119.735 90.3049 118.022 91.8923 116.623 93.1933C115.795 93.9621 115.075 94.6337 114.547 95.1344C114.358 95.3143 114.188 95.4747 114.05 95.6092C113.9 95.627 113.343 95.3704 112.717 94.697C112.118 94.0521 111.921 93.5229 111.916 93.437C112.887 92.523 114.833 90.7183 117.017 88.6966C117.691 88.0748 118.377 87.4379 119.074 86.7943C119.401 86.4906 119.731 86.1877 120.057 85.8853C121.504 84.5477 122.912 83.2441 124.096 82.1471C124.705 81.5854 125.248 81.079 125.708 80.651C126.141 81.4714 126.996 82.3795 127.788 82.8472L127.788 82.8477ZM127.96 80.6104C128.518 81.2064 128.765 81.7092 128.799 81.9061C128.794 81.9088 128.791 81.9132 128.787 81.9146C128.772 81.9239 128.755 81.927 128.74 81.9368C128.553 81.8976 128.059 81.6219 127.495 81.0171C126.954 80.4412 126.716 79.961 126.671 79.7535C126.689 79.7366 126.712 79.7152 126.729 79.6991C126.923 79.745 127.406 80.0198 127.96 80.6104ZM125.11 79.5161C123.931 80.6113 122.083 82.3221 120.074 84.1803C121.135 81.4059 122.08 78.9393 122.54 77.7327C122.66 77.6548 123.228 77.6419 124.055 77.9612C124.907 78.2917 125.35 78.7135 125.396 78.7834C125.315 78.9896 125.217 79.2373 125.11 79.5161Z" fill="#663FCD"/>
<path d="M142.026 56.9892C141.981 54.7007 140.818 52.5798 138.913 51.3126C137.008 50.0459 134.603 49.7943 132.477 50.6396C130.35 51.485 128.774 53.3196 128.257 55.5497C126.447 56.1265 124.951 57.4163 124.113 59.1217C123.275 60.8272 123.168 62.8003 123.817 64.5859C124.466 66.3715 125.814 67.8154 127.551 68.5838C129.287 69.3525 131.262 69.3792 133.019 68.6586L132.36 74.9609C132.329 75.258 132.458 75.5484 132.699 75.7235C132.941 75.8989 133.257 75.9319 133.53 75.8103C133.802 75.6887 133.988 75.4313 134.02 75.1346L134.679 68.8318C136.249 69.9346 138.203 70.3413 140.083 69.9565C141.962 69.5716 143.601 68.4296 144.612 66.799C145.624 65.168 145.92 63.1922 145.431 61.3363C144.942 59.4803 143.71 57.908 142.026 56.9892ZM138.124 68.3967C136.966 68.2773 135.881 67.7767 135.038 66.9732C134.986 66.9255 134.931 66.8814 134.873 66.8405L135.331 62.46L139.612 60.8437C139.891 60.7381 140.093 60.4918 140.141 60.1974C140.189 59.903 140.076 59.605 139.846 59.4166C139.615 59.2277 139.301 59.1765 139.022 59.2821L135.529 60.6009L135.997 56.1224C136.028 55.8258 135.899 55.5354 135.657 55.3599C135.416 55.1849 135.1 55.1515 134.828 55.2731C134.555 55.3947 134.368 55.6521 134.338 55.9487L133.521 63.757L131.022 62.2489C130.766 62.0939 130.448 62.0872 130.186 62.2311C129.924 62.3749 129.758 62.6475 129.752 62.9464C129.745 63.2457 129.899 63.5249 130.154 63.6799L133.339 65.6067L133.227 66.6766C133.162 66.7046 133.099 66.7367 133.038 66.7723C132.047 67.3843 130.882 67.6498 129.725 67.5268C128.085 67.3562 126.618 66.4334 125.754 65.0286C124.891 63.6238 124.728 61.8975 125.314 60.3559C125.901 58.8144 127.17 57.6332 128.748 57.1589C129.031 57.0738 129.285 56.9157 129.487 56.7006C129.688 56.485 129.828 56.2204 129.894 55.9332C130.289 54.2375 131.488 52.843 133.105 52.2007C134.722 51.558 136.551 51.7495 138 52.7125C139.449 53.6754 140.334 55.2882 140.369 57.0284C140.376 57.3215 140.46 57.6074 140.613 57.8577C140.765 58.108 140.981 58.3134 141.238 58.4541C142.688 59.2442 143.688 60.665 143.943 62.2979C144.198 63.9307 143.678 65.5889 142.538 66.7844C141.398 67.9798 139.766 68.5762 138.124 68.3971L138.124 68.3967Z" fill="#663FCD" fill-opacity="0.52"/>
<path fill-rule="evenodd" clip-rule="evenodd" d="M168.355 64.9062L168.357 64.9053L171.406 64.0297C171.409 64.0292 171.411 64.0283 171.413 64.0279C171.418 64.027 171.422 64.0261 171.426 64.0248L187.457 59.4216C187.707 59.3499 187.904 59.1575 187.984 58.9103C188.062 58.6631 188.014 58.3918 187.852 58.187L178.604 46.4839L178.956 43.2896C179.003 42.8608 178.694 42.4758 178.266 42.4279C177.838 42.3805 177.454 42.6899 177.406 43.1176L177.228 44.7417L176.214 43.4597C175.948 43.1217 175.457 43.0636 175.12 43.3308C174.783 43.5983 174.726 44.0888 174.993 44.4269L176.463 46.2872L162.666 50.2482L162.926 47.8924C162.972 47.4638 162.663 47.0787 162.236 47.0307C161.809 46.9833 161.422 47.2925 161.376 47.7209L161.198 49.3445L160.185 48.0626C159.917 47.7245 159.427 47.6665 159.089 47.9336C158.753 48.201 158.695 48.6915 158.962 49.03L160.955 51.5514L159.325 66.3782C159.296 66.637 159.399 66.8927 159.597 67.0606L159.598 67.061C159.796 67.2281 160.065 67.2864 160.315 67.2147L163.384 66.3333L163.387 66.3324L168.355 64.9062ZM163.701 58.0627C163.397 58.15 163.176 58.4123 163.142 58.7268L162.454 64.9761L161.001 65.3935L162.331 53.2938L169.877 62.8445L168.424 63.2618L164.527 58.329C164.331 58.0805 164.005 57.9754 163.701 58.0627ZM164.074 64.5107L164.484 60.7881L166.805 63.7268L164.074 64.5107ZM171.497 62.3795L185.909 58.2417L177.508 47.6106L163.097 51.7483L171.497 62.3795Z" fill="#663FCD" fill-opacity="0.52"/>
<path fill-rule="evenodd" clip-rule="evenodd" d="M220.323 34.7558C219.711 34.9636 219.374 35.6196 219.563 36.2373L220.431 39.0815C220.727 40.0503 221.765 40.5824 222.725 40.2565L229.449 37.9724C230.408 37.6467 230.907 36.5922 230.552 35.6437L229.508 32.8593C229.281 32.2545 228.615 31.9391 228.003 32.1469L220.323 34.7558ZM220.707 35.8885L228.388 33.2795L229.432 36.0635C229.55 36.3795 229.384 36.7312 229.064 36.8398L222.34 39.1239C222.02 39.2325 221.674 39.055 221.576 38.7322L220.707 35.8885Z" fill="#663FCD"/>
<path fill-rule="evenodd" clip-rule="evenodd" d="M217.305 22.5601C216.926 21.4428 217.524 20.2297 218.641 19.8503L220.259 19.3006C221.376 18.9212 222.589 19.5191 222.969 20.6364C223.068 20.927 223.383 21.0821 223.673 20.9834L225.413 20.3927C227.289 19.7551 229.328 20.7598 229.965 22.6362L230.927 25.468C230.951 25.5394 230.971 25.6111 230.985 25.6833C231.81 25.8155 232.507 26.3683 232.823 27.1444L235.313 33.2686C235.931 34.7871 235.209 36.5032 233.729 37.14C233.551 38.6969 232.503 40.0935 230.915 40.6329L223.183 43.2592C221.595 43.7989 219.912 43.3299 218.823 42.2035C217.262 42.5993 215.644 41.6781 215.209 40.0976L213.454 33.7236C213.231 32.9161 213.448 32.0526 214.022 31.4457C213.989 31.3794 213.961 31.3106 213.937 31.2393L212.975 28.4075C212.337 26.531 213.342 24.4929 215.219 23.8553L216.958 23.2644C217.248 23.1658 217.404 22.8506 217.305 22.5601ZM221.836 21.0212C221.898 21.2047 221.988 21.3715 222.1 21.518L218.532 22.7301C218.53 22.5461 218.5 22.3589 218.438 22.1754C218.271 21.6839 218.534 21.1499 219.026 20.983L220.644 20.4333C221.135 20.2663 221.669 20.5297 221.836 21.0212ZM214.107 28.0229C213.683 26.7719 214.352 25.4131 215.603 24.9881L225.797 21.5253C227.048 21.1004 228.407 21.7702 228.832 23.0211L229.794 25.8529C229.9 26.1656 229.733 26.5055 229.42 26.6117L227.721 27.1889L227.336 26.0562C227.124 25.4304 226.445 25.0959 225.819 25.3083L225.253 25.5008C224.627 25.7132 224.292 26.3923 224.504 27.0182L224.889 28.1508L220.359 29.6898L219.974 28.5571C219.761 27.9313 219.082 27.5967 218.457 27.8092L217.89 28.0017C217.264 28.2141 216.93 28.8932 217.142 29.519L217.527 30.6517L215.828 31.2289C215.515 31.3351 215.176 31.1674 215.069 30.8546L214.107 28.0229ZM233.664 35.7966C234.265 35.3153 234.513 34.476 234.205 33.7189L233.342 31.5967L232.283 31.9563L233.492 35.2092C233.565 35.4036 233.621 35.5999 233.664 35.7966ZM231.714 27.5952L232.891 30.4866L231.865 30.8348L230.54 27.27C230.652 27.1495 230.747 27.0142 230.822 26.8689C231.223 26.9424 231.56 27.2155 231.714 27.5952ZM217.835 40.5279C217.896 40.7259 217.97 40.9163 218.057 41.0981C217.286 41.0829 216.579 40.5681 216.362 39.7798L215.754 37.571L216.813 37.2113L217.835 40.5279ZM216.461 36.0676L215.341 32.433C215.178 32.4054 215.021 32.3561 214.873 32.2865C214.6 32.5889 214.498 33.0112 214.607 33.4063L215.436 36.4157L216.461 36.0676ZM216.537 32.2518L218.978 40.176C219.475 41.7861 221.203 42.6687 222.798 42.1267L230.53 39.5004C232.126 38.9584 232.958 37.2058 232.371 35.6266L229.481 27.8548L228.106 28.3219L228.491 29.4545C228.703 30.08 228.368 30.7595 227.743 30.9719L227.176 31.1643C226.551 31.3768 225.871 31.0419 225.659 30.4164L225.274 29.2838L220.743 30.8229L221.128 31.9555C221.34 32.581 221.006 33.2603 220.38 33.4729L219.814 33.6652C219.188 33.8778 218.509 33.5428 218.296 32.9173L217.912 31.7847L216.537 32.2518ZM219.429 32.5326L218.275 29.1343L218.841 28.9418L219.996 32.3401L219.429 32.5326ZM225.637 26.6333L226.204 26.4408L227.358 29.8391L226.792 30.0316L225.637 26.6333Z" fill="#663FCD"/>
<path d="M246.492 91.5369C246.101 90.3975 245.285 89.4898 244.217 88.979C243.148 88.4676 241.907 88.4044 240.8 88.7879C239.856 89.1353 239.041 89.7602 238.512 90.5944C233.582 88.3567 233.4 80.8322 233.418 80.7601C233.407 80.5583 233.299 80.3779 233.1 80.2519C232.908 80.1583 232.707 80.1695 232.526 80.2777L216.342 90.198C216.136 90.3459 216.025 90.6096 216.083 90.8688C216.119 91.0313 217.361 95.2176 219.956 99.2044C223.443 104.593 227.764 107.001 232.416 106.166C232.651 106.147 232.845 106.104 233.072 106.053C233.949 105.857 234.759 105.37 235.358 104.69L235.383 104.651L246.175 95.1513C246.232 95.1045 246.283 95.0248 246.308 94.9851C246.812 93.8846 246.883 92.6762 246.492 91.5369H246.492ZM232.324 104.994L232.259 105.008C223.027 106.697 218.203 93.4966 217.364 90.9583L232.286 81.7965C232.377 82.6619 232.577 84.0146 233.034 85.4461C233.953 88.3416 235.539 90.4065 237.658 91.5008L229.464 98.4432C229.258 98.5915 229.06 98.7719 228.902 98.9777C228.138 99.8297 227.778 100.966 227.83 102.114C227.863 102.413 228.083 102.637 228.397 102.668L232.203 102.772C232.509 102.772 232.798 102.537 232.79 102.198C232.79 101.891 232.555 101.603 232.216 101.61L228.991 101.513C229.048 100.853 229.321 100.247 229.754 99.7411C230.326 99.1019 231.094 98.726 231.935 98.6744C233.681 98.5572 235.172 99.8938 235.289 101.639C235.334 102.447 235.096 103.216 234.588 103.841L233.821 104.523C233.338 104.802 232.833 104.983 232.324 104.994ZM245.316 94.3558L236.404 102.208C236.426 101.999 236.415 101.797 236.404 101.595C236.32 100.455 235.806 99.3772 234.954 98.6133C234.196 97.9653 233.293 97.5876 232.294 97.5382L239.079 91.7622C239.137 91.7155 239.187 91.6358 239.238 91.5565C239.637 90.7516 240.29 90.1628 241.144 89.8697C241.966 89.5838 242.893 89.615 243.666 90.0221C244.463 90.3891 245.059 91.0737 245.352 91.9284C245.664 92.71 245.65 93.5652 245.316 94.3558Z" fill="#663FCD"/>
<path d="M227.14 97.8037C227.212 97.822 227.277 97.8073 227.342 97.7926C227.569 97.7418 227.767 97.5614 227.782 97.3196L228.039 95.7286L229.645 96.0515C229.717 96.0693 229.822 96.08 229.887 96.0658C230.114 96.015 230.279 95.8417 230.333 95.6248C230.398 95.3037 230.196 95.0084 229.875 94.9438L228.229 94.5955L228.362 93.8165C228.426 93.4954 228.191 93.2068 227.87 93.1426C227.549 93.0781 227.261 93.3128 227.196 93.6339L227.082 94.3412L224.755 93.8388L225.163 91.7031L230.012 92.6638L230.045 92.6567L230.077 92.6496L234.075 93.4602C234.147 93.478 234.252 93.4887 234.317 93.4745C234.544 93.4237 234.709 93.2504 234.763 93.0335C234.828 92.7124 234.626 92.4166 234.305 92.3525L230.877 91.6532L232.025 86.4216C232.089 86.1005 231.887 85.8047 231.598 85.733C231.277 85.6684 230.981 85.8706 230.91 86.1593L230.472 88.1653L228.351 87.8215C228.03 87.7573 227.741 87.9921 227.677 88.3132C227.612 88.6343 227.847 88.9225 228.168 88.9871L230.225 89.3452L229.744 91.463L221.106 89.7131C220.785 89.6485 220.49 89.8507 220.425 90.1718C220.36 90.493 220.563 90.7883 220.884 90.8528L224.023 91.4804L223.503 94.1862L223.023 96.6109C222.958 96.9321 223.16 97.2274 223.481 97.2919C223.554 97.3098 223.651 97.2879 223.716 97.2737C223.943 97.2229 224.109 97.0497 224.163 96.8327L224.532 94.9781L226.924 95.4663L226.648 97.1294C226.617 97.4438 226.819 97.7396 227.14 97.8042V97.8037Z" fill="#663FCD"/>
<path fill-rule="evenodd" clip-rule="evenodd" d="M194.192 19.1727L191.864 18.8103L193.59 15.3734L194.192 19.1727ZM191.648 20.1977L192.249 23.9962L193.976 20.5595L191.648 20.1967L191.648 20.1977ZM193.315 12.7981L190.178 19.0406C190.111 19.1718 190.088 19.3205 190.111 19.4657L191.205 26.3681C191.236 26.5647 191.349 26.739 191.516 26.8473C191.684 26.9556 191.889 26.9876 192.081 26.9355C192.273 26.8835 192.434 26.752 192.523 26.5742L195.662 20.3292C195.728 20.1982 195.751 20.0494 195.729 19.9043L194.634 13.0018C194.604 12.8049 194.49 12.6303 194.323 12.5221C194.155 12.4136 193.949 12.3818 193.757 12.4341C193.565 12.4868 193.404 12.6186 193.315 12.797L193.315 12.7981ZM202.704 20.4959C202.882 18.3824 202.37 16.2681 201.243 14.4713L200.599 14.9423C200.396 15.0901 200.131 15.1188 199.902 15.0174C199.672 14.9161 199.515 14.7004 199.488 14.4512C199.461 14.202 199.569 13.9574 199.771 13.8097L200.416 13.3387C199.046 11.7194 197.187 10.5889 195.119 10.1173L195.09 10.2973L195.09 10.2974C195.061 10.4813 194.961 10.6463 194.81 10.7562C194.66 10.8653 194.473 10.9102 194.289 10.8813C194.106 10.8523 193.941 10.7518 193.832 10.6019C193.722 10.4519 193.677 10.2646 193.705 10.0811L193.732 9.90245V9.90232C191.619 9.72287 189.504 10.2353 187.707 11.3624L188.177 12.0057C188.325 12.208 188.354 12.474 188.252 12.7032C188.151 12.9325 187.935 13.0902 187.686 13.1171C187.437 13.1442 187.192 13.036 187.044 12.8336L186.574 12.1904C184.955 13.5602 183.824 15.4191 183.352 17.4871L183.531 17.5154V17.5155C183.779 17.5537 183.987 17.7211 184.078 17.9545C184.168 18.1882 184.127 18.452 183.97 18.6473C183.813 18.8425 183.564 18.9392 183.317 18.901L183.136 18.8741V18.8739C182.958 20.9874 183.47 23.1019 184.597 24.8988L185.241 24.4279C185.444 24.2801 185.71 24.2514 185.939 24.3527C186.168 24.454 186.326 24.6698 186.353 24.9189C186.379 25.1682 186.272 25.4127 186.069 25.5605L185.425 26.0315C186.795 27.6508 188.654 28.7813 190.721 29.2525L190.751 29.0726V29.0727C190.789 28.8253 190.957 28.6174 191.191 28.5271C191.424 28.4369 191.688 28.4782 191.883 28.6354C192.078 28.7927 192.174 29.0419 192.136 29.2893L192.108 29.4679C194.222 29.647 196.336 29.1345 198.133 28.0076L197.663 27.3644C197.515 27.162 197.487 26.8961 197.588 26.6669C197.689 26.4375 197.905 26.2798 198.154 26.2529C198.404 26.2259 198.648 26.3341 198.796 26.5365L199.266 27.1797C200.886 25.8098 202.016 23.9507 202.488 21.8827L202.309 21.8546C202.062 21.8163 201.853 21.6489 201.763 21.4155C201.672 21.1819 201.713 20.918 201.87 20.7227C202.027 20.5275 202.276 20.4309 202.523 20.469L202.704 20.4958V20.4959ZM186.297 10.6227C183.894 12.3791 182.287 15.0185 181.83 17.9598C181.372 20.9012 182.102 23.904 183.858 26.3072C185.614 28.7104 188.254 30.3178 191.195 30.7751C194.136 31.2326 197.139 30.5029 199.543 28.7466C201.946 26.9904 203.553 24.3509 204.01 21.4096C204.468 18.4682 203.738 15.4654 201.982 13.0622C200.224 10.6616 197.585 9.05678 194.644 8.59904C191.704 8.14184 188.702 8.86967 186.297 10.6227V10.6227Z" fill="#663FCD"/>
<path d="M193.727 84.8906C195.406 82.4098 194.753 79.0274 192.273 77.3487C189.997 75.809 181.348 75.2652 180.369 75.2077C179.933 75.1819 179.586 75.6954 179.772 76.0901C180.189 76.9777 183.909 84.8042 186.185 86.344C188.666 88.0231 192.048 87.3711 193.727 84.8906ZM181.354 76.5172C184.419 76.7501 190.086 77.3661 191.578 78.3758C193.493 79.6719 193.995 82.2815 192.7 84.1954C191.405 86.1097 188.795 86.6143 186.88 85.3182C185.387 84.3081 182.709 79.2778 181.354 76.5172Z" fill="#663FCD"/>
<path d="M191.112 83.1175C191.849 82.0285 191.562 80.5427 190.471 79.8047C189.591 79.2087 186.752 78.9994 185.904 78.95C185.685 78.9361 185.476 79.0399 185.354 79.2208C185.232 79.4011 185.213 79.6323 185.305 79.8318C185.666 80.6015 186.915 83.1625 187.795 83.7585C188.886 84.4969 190.373 84.2092 191.112 83.1175ZM186.905 80.2728C188.193 80.4002 189.455 80.6135 189.777 80.8309C190.301 81.1854 190.439 81.8994 190.085 82.4227C189.729 82.9483 189.014 83.0868 188.49 82.7323C188.169 82.5149 187.502 81.4215 186.905 80.2728Z" fill="#663FCD"/>
<path d="M191.566 96.8184C191.67 97.2144 192.026 97.6985 192.966 98.192C194.087 98.7826 195.986 99.3171 196.621 98.3778C196.647 98.3399 196.709 98.2219 196.726 98.1796C197.341 96.6051 198.734 92.9715 200.157 89.2507C203.083 86.544 205.938 83.9015 207.171 82.7461C207.204 82.714 207.289 82.6143 207.315 82.5755C208.026 81.5253 206.452 79.8207 205.784 79.252C204.975 78.5634 204.393 78.4133 203.987 78.4636C203.823 77.9772 203.37 77.5033 202.593 77.094C201.509 76.5235 199.655 76.0322 198.993 77.0103C198.966 77.049 198.894 77.1862 198.879 77.2303C198.256 78.8159 196.882 82.4058 195.474 86.0808C192.586 88.7545 189.765 91.3663 188.524 92.5315C188.488 92.5627 188.387 92.6811 188.361 92.7208C187.699 93.6989 188.845 95.2364 189.777 96.0319C190.441 96.6015 191.053 96.846 191.566 96.8189M192.786 96.5409C192.795 96.5191 192.806 96.4911 192.815 96.4674C193.024 96.4323 193.559 96.4741 194.297 96.7623C195.066 97.0634 195.505 97.417 195.61 97.5765C195.607 97.5947 195.61 97.6121 195.609 97.6313C195.608 97.6339 195.605 97.6375 195.605 97.6415C195.41 97.6834 194.855 97.6437 194.098 97.3476C193.338 97.0514 192.901 96.704 192.786 96.5409ZM196.103 96.3579C195.463 95.8644 194.495 95.4462 193.638 95.2871C194.808 94.2013 196.397 92.7292 198.103 91.1521C197.33 93.1639 196.622 95.0106 196.103 96.3579ZM205.243 82.8477C204.185 83.8311 202.737 85.1722 201.16 86.6358C200.488 87.2544 199.797 87.8967 199.103 88.5376C199.041 88.5946 198.979 88.6507 198.917 88.7086C197.19 90.3049 195.477 91.8923 194.078 93.1933C193.251 93.9621 192.53 94.6337 192.002 95.1344C191.813 95.3143 191.643 95.4747 191.505 95.6092C191.355 95.627 190.798 95.3704 190.172 94.697C189.573 94.0521 189.376 93.5229 189.371 93.437C190.342 92.523 192.288 90.7183 194.472 88.6966C195.146 88.0748 195.833 87.4379 196.529 86.7943C196.857 86.4906 197.186 86.1877 197.513 85.8853C198.959 84.5477 200.367 83.2441 201.551 82.1471C202.16 81.5854 202.703 81.079 203.163 80.651C203.596 81.4714 204.451 82.3795 205.243 82.8472L205.243 82.8477ZM205.415 80.6104C205.973 81.2064 206.221 81.7092 206.254 81.9061C206.249 81.9088 206.246 81.9132 206.242 81.9146C206.227 81.9239 206.21 81.927 206.195 81.9368C206.008 81.8976 205.514 81.6219 204.95 81.0171C204.41 80.4412 204.171 79.961 204.126 79.7535C204.144 79.7366 204.167 79.7152 204.184 79.6991C204.378 79.745 204.861 80.0198 205.415 80.6104ZM202.565 79.5161C201.386 80.6113 199.538 82.3221 197.529 84.1803C198.59 81.4059 199.535 78.9393 199.995 77.7327C200.115 77.6548 200.683 77.6419 201.51 77.9612C202.362 78.2917 202.805 78.7135 202.851 78.7834C202.77 78.9896 202.673 79.2373 202.565 79.5161Z" fill="#663FCD" fill-opacity="0.52"/>
<path d="M219.481 56.9892C219.437 54.7007 218.273 52.5798 216.368 51.3126C214.463 50.0459 212.058 49.7943 209.932 50.6396C207.805 51.485 206.229 53.3196 205.712 55.5497C203.902 56.1265 202.406 57.4163 201.568 59.1217C200.73 60.8272 200.623 62.8003 201.272 64.5859C201.921 66.3715 203.269 67.8154 205.006 68.5838C206.742 69.3525 208.717 69.3792 210.474 68.6586L209.815 74.9609C209.784 75.258 209.914 75.5484 210.155 75.7235C210.396 75.8989 210.712 75.9319 210.985 75.8103C211.257 75.6887 211.443 75.4313 211.475 75.1346L212.134 68.8318C213.704 69.9346 215.658 70.3413 217.538 69.9565C219.417 69.5716 221.056 68.4296 222.068 66.799C223.079 65.168 223.375 63.1922 222.886 61.3363C222.397 59.4803 221.165 57.908 219.481 56.9892ZM215.579 68.3967C214.421 68.2773 213.336 67.7767 212.493 66.9732C212.441 66.9255 212.386 66.8814 212.328 66.8405L212.786 62.46L217.068 60.8437C217.346 60.7381 217.548 60.4918 217.596 60.1974C217.644 59.903 217.531 59.605 217.301 59.4166C217.07 59.2277 216.756 59.1765 216.477 59.2821L212.984 60.6009L213.452 56.1224C213.483 55.8258 213.354 55.5354 213.112 55.3599C212.871 55.1849 212.555 55.1515 212.283 55.2731C212.01 55.3947 211.823 55.6521 211.793 55.9487L210.976 63.757L208.477 62.2489C208.221 62.0939 207.903 62.0872 207.641 62.2311C207.379 62.3749 207.213 62.6475 207.207 62.9464C207.2 63.2457 207.354 63.5249 207.609 63.6799L210.794 65.6067L210.682 66.6766C210.617 66.7046 210.554 66.7367 210.493 66.7723C209.502 67.3843 208.337 67.6498 207.18 67.5268C205.54 67.3562 204.073 66.4334 203.209 65.0286C202.346 63.6238 202.183 61.8975 202.769 60.3559C203.356 58.8144 204.625 57.6332 206.203 57.1589C206.486 57.0738 206.741 56.9157 206.942 56.7006C207.143 56.485 207.283 56.2204 207.349 55.9332C207.744 54.2375 208.943 52.843 210.56 52.2007C212.177 51.558 214.006 51.7495 215.455 52.7125C216.904 53.6754 217.789 55.2882 217.824 57.0284C217.831 57.3215 217.915 57.6074 218.068 57.8577C218.22 58.108 218.436 58.3134 218.693 58.4541C220.143 59.2442 221.143 60.665 221.398 62.2979C221.653 63.9307 221.134 65.5889 219.993 66.7844C218.853 67.9798 217.221 68.5762 215.579 68.3971L215.579 68.3967Z" fill="#663FCD" fill-opacity="0.52"/>
</g>
</g>
<defs>
<clipPath id="clip0_41_3188">
<rect width="249" height="104.98" fill="white" transform="translate(236)"/>
</clipPath>
<clipPath id="clip1_41_3188">
<rect width="249" height="104.98" fill="white" transform="translate(236)"/>
</clipPath>
<clipPath id="clip2_41_3188">
<rect width="249" height="104.98" fill="white" transform="translate(0 4)"/>
</clipPath>
<clipPath id="clip3_41_3188">
<rect width="249" height="104.98" fill="white" transform="translate(0 4)"/>
</clipPath>
</defs>
</svg>
