<svg width="390" height="140" viewBox="0 0 390 140" fill="none" xmlns="http://www.w3.org/2000/svg">
<ellipse cx="79.5" cy="75" rx="22.5" ry="21" fill="#D9D9D9"/>
<g filter="url(#filter0_d_41_3117)">
<rect x="25" y="37" width="340" height="75" rx="29" fill="white" fill-opacity="0.95" shape-rendering="crispEdges"/>
</g>
<path d="M92.615 65.2111C92.4952 65.1178 92.3557 65.053 92.2072 65.0216C92.0586 64.9902 91.9048 64.993 91.7575 65.0299L84.1162 66.9399L76.4475 63.1049C76.2338 62.9983 75.9891 62.9717 75.7575 63.0299L67.7575 65.0299C67.5412 65.084 67.3491 65.2088 67.2119 65.3846C67.0746 65.5603 67 65.7769 67 65.9999V83.9999C67 84.1518 67.0347 84.3018 67.1013 84.4384C67.168 84.5749 67.2649 84.6945 67.3846 84.788C67.5044 84.8815 67.6439 84.9465 67.7926 84.978C67.9412 85.0095 68.0951 85.0067 68.2425 84.9699L75.8837 83.0599L83.5525 86.8949C83.6917 86.9635 83.8448 86.9994 84 86.9999C84.0818 86.9998 84.1632 86.9898 84.2425 86.9699L92.2425 84.9699C92.4588 84.9158 92.6509 84.791 92.7881 84.6152C92.9254 84.4395 93 84.2229 93 83.9999V65.9999C93 65.8478 92.9654 65.6977 92.8987 65.561C92.8319 65.4243 92.7349 65.3047 92.615 65.2111ZM77 65.6174L83 68.6174V84.3824L77 81.3824V65.6174ZM69 66.7811L75 65.2811V81.2186L69 82.7186V66.7811ZM91 83.2186L85 84.7186V68.7811L91 67.2811V83.2186Z" fill="black"/>
<path d="M217.962 85.6718C216.118 82.4834 213.276 80.1971 209.959 79.1133C211.6 78.1366 212.875 76.6484 213.588 74.8772C214.301 73.106 214.412 71.1497 213.906 69.3088C213.399 67.4679 212.303 65.8441 210.784 64.6868C209.265 63.5296 207.409 62.9028 205.499 62.9028C203.59 62.9028 201.734 63.5296 200.215 64.6868C198.696 65.8441 197.6 67.4679 197.093 69.3088C196.587 71.1497 196.698 73.106 197.411 74.8772C198.124 76.6484 199.399 78.1366 201.04 79.1133C197.723 80.1959 194.881 82.4821 193.036 85.6718C192.969 85.782 192.924 85.9047 192.905 86.0326C192.885 86.1605 192.891 86.291 192.923 86.4164C192.955 86.5418 193.012 86.6596 193.09 86.7627C193.168 86.8659 193.266 86.9524 193.378 87.0171C193.49 87.0818 193.614 87.1234 193.742 87.1395C193.87 87.1555 194.001 87.1457 194.125 87.1106C194.25 87.0755 194.366 87.0158 194.467 86.9351C194.568 86.8544 194.652 86.7542 194.714 86.6405C196.995 82.6977 201.027 80.3436 205.499 80.3436C209.971 80.3436 214.004 82.6977 216.285 86.6405C216.347 86.7542 216.431 86.8544 216.532 86.9351C216.633 87.0158 216.749 87.0755 216.874 87.1106C216.998 87.1457 217.129 87.1555 217.257 87.1395C217.385 87.1234 217.509 87.0818 217.621 87.0171C217.733 86.9524 217.831 86.8659 217.909 86.7627C217.987 86.6596 218.044 86.5418 218.076 86.4164C218.107 86.291 218.114 86.1605 218.094 86.0326C218.075 85.9047 218.03 85.782 217.962 85.6718ZM198.718 71.6249C198.718 70.2837 199.116 68.9726 199.861 67.8574C200.606 66.7422 201.665 65.8731 202.904 65.3598C204.143 64.8466 205.507 64.7123 206.822 64.9739C208.138 65.2356 209.346 65.8814 210.295 66.8298C211.243 67.7782 211.889 68.9865 212.15 70.3019C212.412 71.6174 212.278 72.9808 211.765 74.22C211.251 75.4591 210.382 76.5181 209.267 77.2633C208.152 78.0084 206.841 78.4061 205.499 78.4061C203.702 78.4042 201.978 77.6891 200.707 76.4178C199.435 75.1465 198.72 73.4228 198.718 71.6249Z" fill="black"/>
<path d="M157.75 72.3313L153.25 67.3313C153.155 67.2262 153.04 67.1423 152.911 67.0852C152.781 67.0281 152.641 66.9991 152.5 67H144V63C144 62.7348 143.895 62.4804 143.707 62.2929C143.52 62.1054 143.265 62 143 62C142.735 62 142.48 62.1054 142.293 62.2929C142.105 62.4804 142 62.7348 142 63V67H132C131.47 67 130.961 67.2107 130.586 67.5858C130.211 67.9609 130 68.4696 130 69V77C130 77.5304 130.211 78.0391 130.586 78.4142C130.961 78.7893 131.47 79 132 79H142V87C142 87.2652 142.105 87.5196 142.293 87.7071C142.48 87.8946 142.735 88 143 88C143.265 88 143.52 87.8946 143.707 87.7071C143.895 87.5196 144 87.2652 144 87V79H152.5C152.64 79 152.779 78.9706 152.907 78.9135C153.035 78.8564 153.15 78.773 153.244 78.6688L157.744 73.6687C157.91 73.4859 158.002 73.2481 158.003 73.0012C158.005 72.7543 157.914 72.5156 157.75 72.3313ZM152.055 77H132V69H152.055L155.655 73L152.055 77Z" fill="black"/>
<path d="M271 80C270.113 80.0008 269.252 80.2958 268.551 80.8387C267.849 81.3815 267.348 82.1417 267.125 83H255C253.939 83 252.922 82.5786 252.172 81.8284C251.421 81.0783 251 80.0609 251 79C251 77.9391 251.421 76.9217 252.172 76.1716C252.922 75.4214 253.939 75 255 75H267C268.326 75 269.598 74.4732 270.536 73.5355C271.473 72.5979 272 71.3261 272 70C272 68.6739 271.473 67.4021 270.536 66.4645C269.598 65.5268 268.326 65 267 65H255C254.735 65 254.48 65.1054 254.293 65.2929C254.105 65.4804 254 65.7348 254 66C254 66.2652 254.105 66.5196 254.293 66.7071C254.48 66.8946 254.735 67 255 67H267C267.796 67 268.559 67.3161 269.121 67.8787C269.684 68.4413 270 69.2044 270 70C270 70.7956 269.684 71.5587 269.121 72.1213C268.559 72.6839 267.796 73 267 73H255C253.409 73 251.883 73.6321 250.757 74.7574C249.632 75.8826 249 77.4087 249 79C249 80.5913 249.632 82.1174 250.757 83.2426C251.883 84.3679 253.409 85 255 85H267.125C267.312 85.7243 267.698 86.3816 268.24 86.8974C268.782 87.4131 269.458 87.7666 270.19 87.9176C270.923 88.0687 271.683 88.0112 272.385 87.7519C273.087 87.4925 273.701 87.0416 274.16 86.4503C274.618 85.859 274.901 85.1511 274.977 84.4069C275.053 83.6628 274.919 82.9122 274.59 82.2404C274.261 81.5686 273.75 81.0026 273.116 80.6065C272.481 80.2105 271.748 80.0004 271 80ZM271 86C270.604 86 270.218 85.8827 269.889 85.6629C269.56 85.4432 269.304 85.1308 269.152 84.7654C269.001 84.3999 268.961 83.9978 269.038 83.6098C269.116 83.2219 269.306 82.8655 269.586 82.5858C269.865 82.3061 270.222 82.1156 270.61 82.0384C270.998 81.9613 271.4 82.0009 271.765 82.1522C272.131 82.3036 272.443 82.56 272.663 82.8889C272.883 83.2178 273 83.6044 273 84C273 84.5304 272.789 85.0391 272.414 85.4142C272.039 85.7893 271.53 86 271 86Z" fill="black"/>
<path d="M316.062 72.0625C316.062 71.7393 316.188 71.4293 316.41 71.2007C316.633 70.9722 316.935 70.8438 317.25 70.8438H329.125C329.44 70.8438 329.742 70.9722 329.965 71.2007C330.187 71.4293 330.312 71.7393 330.312 72.0625C330.312 72.3857 330.187 72.6957 329.965 72.9243C329.742 73.1528 329.44 73.2812 329.125 73.2812H317.25C316.935 73.2812 316.633 73.1528 316.41 72.9243C316.188 72.6957 316.062 72.3857 316.062 72.0625ZM317.25 78.1562H329.125C329.44 78.1562 329.742 78.0278 329.965 77.7993C330.187 77.5707 330.312 77.2607 330.312 76.9375C330.312 76.6143 330.187 76.3043 329.965 76.0757C329.742 75.8472 329.44 75.7188 329.125 75.7188H317.25C316.935 75.7188 316.633 75.8472 316.41 76.0757C316.188 76.3043 316.062 76.6143 316.062 76.9375C316.062 77.2607 316.188 77.5707 316.41 77.7993C316.633 78.0278 316.935 78.1562 317.25 78.1562ZM337.438 64.75V83.0312C337.438 84.0009 337.062 84.9309 336.394 85.6166C335.726 86.3023 334.82 86.6875 333.875 86.6875H307.75C306.808 86.6875 305.904 86.3046 305.237 85.6225C304.569 84.9405 304.192 84.0148 304.188 83.048V68.4062C304.188 68.083 304.313 67.773 304.535 67.5445C304.758 67.3159 305.06 67.1875 305.375 67.1875C305.69 67.1875 305.992 67.3159 306.215 67.5445C306.437 67.773 306.562 68.083 306.562 68.4062V83.0312C306.562 83.3545 306.688 83.6645 306.91 83.893C307.133 84.1216 307.435 84.25 307.75 84.25C308.065 84.25 308.367 84.1216 308.59 83.893C308.812 83.6645 308.938 83.3545 308.938 83.0312V64.75C308.938 64.1035 309.188 63.4835 309.633 63.0264C310.079 62.5693 310.683 62.3125 311.312 62.3125H335.062C335.692 62.3125 336.296 62.5693 336.742 63.0264C337.187 63.4835 337.438 64.1035 337.438 64.75ZM335.062 64.75H311.312V83.0312C311.313 83.4464 311.244 83.8587 311.109 84.25H333.875C334.19 84.25 334.492 84.1216 334.715 83.893C334.937 83.6645 335.062 83.3545 335.062 83.0312V64.75Z" fill="#19C595"/>
<defs>
<filter id="filter0_d_41_3117" x="-14.4" y="0.6" width="422.8" height="157.8" filterUnits="userSpaceOnUse" color-interpolation-filters="sRGB">
<feFlood flood-opacity="0" result="BackgroundImageFix"/>
<feColorMatrix in="SourceAlpha" type="matrix" values="0 0 0 0 0 0 0 0 0 0 0 0 0 0 0 0 0 0 127 0" result="hardAlpha"/>
<feMorphology radius="11" operator="dilate" in="SourceAlpha" result="effect1_dropShadow_41_3117"/>
<feOffset dx="2" dy="5"/>
<feGaussianBlur stdDeviation="15.2"/>
<feComposite in2="hardAlpha" operator="out"/>
<feColorMatrix type="matrix" values="0 0 0 0 0.241091 0 0 0 0 0.24066 0 0 0 0 0.241667 0 0 0 0.12 0"/>
<feBlend mode="normal" in2="BackgroundImageFix" result="effect1_dropShadow_41_3117"/>
<feBlend mode="normal" in="SourceGraphic" in2="effect1_dropShadow_41_3117" result="shape"/>
</filter>
</defs>
</svg>
