<svg width="32" height="32" viewBox="0 0 32 32" fill="none" xmlns="http://www.w3.org/2000/svg">
<path d="M31.4697 11.1176L16.4697 3.11758C16.325 3.04054 16.1636 3.00024 15.9997 3.00024C15.8358 3.00024 15.6744 3.04054 15.5297 3.11758L0.529688 11.1176C0.369693 11.2028 0.235888 11.33 0.142587 11.4854C0.0492867 11.6409 0 11.8188 0 12.0001C0 12.1814 0.0492867 12.3593 0.142587 12.5147C0.235888 12.6702 0.369693 12.7973 0.529688 12.8826L3.99969 14.7338V20.7863C3.99865 21.2775 4.17942 21.7517 4.50719 22.1176C6.14469 23.9413 9.81344 27.0001 15.9997 27.0001C18.0509 27.017 20.0867 26.6455 21.9997 25.9051V30.0001C21.9997 30.2653 22.105 30.5196 22.2926 30.7072C22.4801 30.8947 22.7345 31.0001 22.9997 31.0001C23.2649 31.0001 23.5193 30.8947 23.7068 30.7072C23.8943 30.5196 23.9997 30.2653 23.9997 30.0001V24.9388C25.3037 24.1861 26.4821 23.2342 27.4922 22.1176C27.82 21.7517 28.0007 21.2775 27.9997 20.7863V14.7338L31.4697 12.8826C31.6297 12.7973 31.7635 12.6702 31.8568 12.5147C31.9501 12.3593 31.9994 12.1814 31.9994 12.0001C31.9994 11.8188 31.9501 11.6409 31.8568 11.4854C31.7635 11.33 31.6297 11.2028 31.4697 11.1176ZM15.9997 25.0001C10.5909 25.0001 7.40969 22.3576 5.99969 20.7863V15.8001L15.5297 20.8826C15.6744 20.9596 15.8358 20.9999 15.9997 20.9999C16.1636 20.9999 16.325 20.9596 16.4697 20.8826L21.9997 17.9338V23.7263C20.4247 24.4613 18.4397 25.0001 15.9997 25.0001ZM25.9997 20.7813C25.4002 21.4465 24.7296 22.0438 23.9997 22.5626V16.8663L25.9997 15.8001V20.7813ZM23.4997 14.8676L23.4722 14.8513L16.4722 11.1176C16.2386 10.9983 15.9676 10.9755 15.7174 11.0542C15.4672 11.1328 15.258 11.3066 15.1347 11.5381C15.0114 11.7695 14.984 12.0402 15.0583 12.2917C15.1327 12.5431 15.3029 12.7554 15.5322 12.8826L21.3747 16.0001L15.9997 18.8663L3.12469 12.0001L15.9997 5.13383L28.8747 12.0001L23.4997 14.8676Z" fill="#19C595"/>
</svg>
