<svg width="35" height="36" viewBox="0 0 35 36" fill="none" xmlns="http://www.w3.org/2000/svg">
<path d="M12.0312 13.5C12.0312 13.2016 12.1465 12.9155 12.3516 12.7045C12.5567 12.4935 12.8349 12.375 13.125 12.375H21.875C22.1651 12.375 22.4433 12.4935 22.6484 12.7045C22.8535 12.9155 22.9688 13.2016 22.9688 13.5C22.9688 13.7984 22.8535 14.0845 22.6484 14.2955C22.4433 14.5065 22.1651 14.625 21.875 14.625H13.125C12.8349 14.625 12.5567 14.5065 12.3516 14.2955C12.1465 14.0845 12.0312 13.7984 12.0312 13.5ZM13.125 19.125H21.875C22.1651 19.125 22.4433 19.0065 22.6484 18.7955C22.8535 18.5845 22.9688 18.2984 22.9688 18C22.9688 17.7016 22.8535 17.4155 22.6484 17.2045C22.4433 16.9935 22.1651 16.875 21.875 16.875H13.125C12.8349 16.875 12.5567 16.9935 12.3516 17.2045C12.1465 17.4155 12.0312 17.7016 12.0312 18C12.0312 18.2984 12.1465 18.5845 12.3516 18.7955C12.5567 19.0065 12.8349 19.125 13.125 19.125ZM17.5 21.375H13.125C12.8349 21.375 12.5567 21.4935 12.3516 21.7045C12.1465 21.9155 12.0312 22.2016 12.0312 22.5C12.0312 22.7984 12.1465 23.0845 12.3516 23.2955C12.5567 23.5065 12.8349 23.625 13.125 23.625H17.5C17.7901 23.625 18.0683 23.5065 18.2734 23.2955C18.4785 23.0845 18.5938 22.7984 18.5938 22.5C18.5938 22.2016 18.4785 21.9155 18.2734 21.7045C18.0683 21.4935 17.7901 21.375 17.5 21.375ZM30.625 6.75V22.0345C30.6259 22.3301 30.5697 22.6229 30.4596 22.896C30.3495 23.169 30.1878 23.4168 29.9838 23.625L22.9688 30.8405C22.7664 31.0503 22.5254 31.2167 22.26 31.3299C21.9945 31.4431 21.7098 31.5009 21.4225 31.5H6.5625C5.98234 31.5 5.42594 31.2629 5.0157 30.841C4.60547 30.419 4.375 29.8467 4.375 29.25V6.75C4.375 6.15326 4.60547 5.58097 5.0157 5.15901C5.42594 4.73705 5.98234 4.5 6.5625 4.5H28.4375C29.0177 4.5 29.5741 4.73705 29.9843 5.15901C30.3945 5.58097 30.625 6.15326 30.625 6.75ZM6.5625 29.25H20.7812V22.5C20.7812 22.2016 20.8965 21.9155 21.1016 21.7045C21.3067 21.4935 21.5849 21.375 21.875 21.375H28.4375V6.75H6.5625V29.25ZM22.9688 23.625V27.6609L26.8912 23.625H22.9688Z" fill="#19C595"/>
</svg>
